<svg width="223" height="80" viewBox="0 0 223 80" fill="none" xmlns="http://www.w3.org/2000/svg">
<rect x="1" y="1" width="221" height="78" rx="19" stroke="white" stroke-width="2"/>
<path d="M80.444 25.812C80.444 24.996 80.632 24.264 81.008 23.616C81.392 22.968 81.908 22.464 82.556 22.104C83.212 21.736 83.928 21.552 84.704 21.552C85.592 21.552 86.38 21.772 87.068 22.212C87.764 22.644 88.268 23.26 88.58 24.06H86.936C86.72 23.62 86.42 23.292 86.036 23.076C85.652 22.86 85.208 22.752 84.704 22.752C84.152 22.752 83.66 22.876 83.228 23.124C82.796 23.372 82.456 23.728 82.208 24.192C81.968 24.656 81.848 25.196 81.848 25.812C81.848 26.428 81.968 26.968 82.208 27.432C82.456 27.896 82.796 28.256 83.228 28.512C83.66 28.76 84.152 28.884 84.704 28.884C85.208 28.884 85.652 28.776 86.036 28.56C86.42 28.344 86.72 28.016 86.936 27.576H88.58C88.268 28.376 87.764 28.992 87.068 29.424C86.38 29.856 85.592 30.072 84.704 30.072C83.92 30.072 83.204 29.892 82.556 29.532C81.908 29.164 81.392 28.656 81.008 28.008C80.632 27.36 80.444 26.628 80.444 25.812ZM93.1933 30.108C92.5693 30.108 92.0053 29.968 91.5013 29.688C90.9973 29.4 90.6013 29 90.3133 28.488C90.0253 27.968 89.8813 27.368 89.8813 26.688C89.8813 26.016 90.0293 25.42 90.3253 24.9C90.6213 24.38 91.0253 23.98 91.5373 23.7C92.0493 23.42 92.6213 23.28 93.2533 23.28C93.8853 23.28 94.4573 23.42 94.9693 23.7C95.4813 23.98 95.8853 24.38 96.1813 24.9C96.4773 25.42 96.6253 26.016 96.6253 26.688C96.6253 27.36 96.4733 27.956 96.1693 28.476C95.8653 28.996 95.4493 29.4 94.9213 29.688C94.4013 29.968 93.8253 30.108 93.1933 30.108ZM93.1933 28.92C93.5453 28.92 93.8733 28.836 94.1773 28.668C94.4893 28.5 94.7413 28.248 94.9333 27.912C95.1253 27.576 95.2213 27.168 95.2213 26.688C95.2213 26.208 95.1293 25.804 94.9453 25.476C94.7613 25.14 94.5173 24.888 94.2133 24.72C93.9093 24.552 93.5813 24.468 93.2293 24.468C92.8773 24.468 92.5493 24.552 92.2453 24.72C91.9493 24.888 91.7133 25.14 91.5373 25.476C91.3613 25.804 91.2733 26.208 91.2733 26.688C91.2733 27.4 91.4533 27.952 91.8133 28.344C92.1813 28.728 92.6413 28.92 93.1933 28.92ZM106.126 23.28C106.646 23.28 107.11 23.388 107.518 23.604C107.934 23.82 108.258 24.14 108.49 24.564C108.73 24.988 108.85 25.5 108.85 26.1V30H107.494V26.304C107.494 25.712 107.346 25.26 107.05 24.948C106.754 24.628 106.35 24.468 105.838 24.468C105.326 24.468 104.918 24.628 104.614 24.948C104.318 25.26 104.17 25.712 104.17 26.304V30H102.814V26.304C102.814 25.712 102.666 25.26 102.37 24.948C102.074 24.628 101.67 24.468 101.158 24.468C100.646 24.468 100.238 24.628 99.9336 24.948C99.6376 25.26 99.4896 25.712 99.4896 26.304V30H98.1216V23.388H99.4896V24.144C99.7136 23.872 99.9976 23.66 100.342 23.508C100.686 23.356 101.054 23.28 101.446 23.28C101.974 23.28 102.446 23.392 102.862 23.616C103.278 23.84 103.598 24.164 103.822 24.588C104.022 24.188 104.334 23.872 104.758 23.64C105.182 23.4 105.638 23.28 106.126 23.28ZM111.43 22.512C111.182 22.512 110.974 22.428 110.806 22.26C110.638 22.092 110.554 21.884 110.554 21.636C110.554 21.388 110.638 21.18 110.806 21.012C110.974 20.844 111.182 20.76 111.43 20.76C111.67 20.76 111.874 20.844 112.042 21.012C112.21 21.18 112.294 21.388 112.294 21.636C112.294 21.884 112.21 22.092 112.042 22.26C111.874 22.428 111.67 22.512 111.43 22.512ZM112.102 23.388V30H110.734V23.388H112.102ZM117.378 23.28C117.898 23.28 118.362 23.388 118.77 23.604C119.186 23.82 119.51 24.14 119.742 24.564C119.974 24.988 120.09 25.5 120.09 26.1V30H118.734V26.304C118.734 25.712 118.586 25.26 118.29 24.948C117.994 24.628 117.59 24.468 117.078 24.468C116.566 24.468 116.158 24.628 115.854 24.948C115.558 25.26 115.41 25.712 115.41 26.304V30H114.042V23.388H115.41V24.144C115.634 23.872 115.918 23.66 116.262 23.508C116.614 23.356 116.986 23.28 117.378 23.28ZM124.643 23.28C125.155 23.28 125.607 23.384 125.999 23.592C126.399 23.792 126.711 24.044 126.935 24.348V23.388H128.315V30.108C128.315 30.716 128.187 31.256 127.931 31.728C127.675 32.208 127.303 32.584 126.815 32.856C126.335 33.128 125.759 33.264 125.087 33.264C124.191 33.264 123.447 33.052 122.855 32.628C122.263 32.212 121.927 31.644 121.847 30.924H123.203C123.307 31.268 123.527 31.544 123.863 31.752C124.207 31.968 124.615 32.076 125.087 32.076C125.639 32.076 126.083 31.908 126.419 31.572C126.763 31.236 126.935 30.748 126.935 30.108V29.004C126.703 29.316 126.387 29.58 125.987 29.796C125.595 30.004 125.147 30.108 124.643 30.108C124.067 30.108 123.539 29.964 123.059 29.676C122.587 29.38 122.211 28.972 121.931 28.452C121.659 27.924 121.523 27.328 121.523 26.664C121.523 26 121.659 25.412 121.931 24.9C122.211 24.388 122.587 23.992 123.059 23.712C123.539 23.424 124.067 23.28 124.643 23.28ZM126.935 26.688C126.935 26.232 126.839 25.836 126.647 25.5C126.463 25.164 126.219 24.908 125.915 24.732C125.611 24.556 125.283 24.468 124.931 24.468C124.579 24.468 124.251 24.556 123.947 24.732C123.643 24.9 123.395 25.152 123.203 25.488C123.019 25.816 122.927 26.208 122.927 26.664C122.927 27.12 123.019 27.52 123.203 27.864C123.395 28.208 123.643 28.472 123.947 28.656C124.259 28.832 124.587 28.92 124.931 28.92C125.283 28.92 125.611 28.832 125.915 28.656C126.219 28.48 126.463 28.224 126.647 27.888C126.839 27.544 126.935 27.144 126.935 26.688ZM136.265 30.084C135.705 30.084 135.201 29.988 134.753 29.796C134.305 29.596 133.953 29.316 133.697 28.956C133.441 28.596 133.313 28.176 133.313 27.696H134.777C134.809 28.056 134.949 28.352 135.197 28.584C135.453 28.816 135.809 28.932 136.265 28.932C136.737 28.932 137.105 28.82 137.369 28.596C137.633 28.364 137.765 28.068 137.765 27.708C137.765 27.428 137.681 27.2 137.513 27.024C137.353 26.848 137.149 26.712 136.901 26.616C136.661 26.52 136.325 26.416 135.893 26.304C135.349 26.16 134.905 26.016 134.561 25.872C134.225 25.72 133.937 25.488 133.697 25.176C133.457 24.864 133.337 24.448 133.337 23.928C133.337 23.448 133.457 23.028 133.697 22.668C133.937 22.308 134.273 22.032 134.705 21.84C135.137 21.648 135.637 21.552 136.205 21.552C137.013 21.552 137.673 21.756 138.185 22.164C138.705 22.564 138.993 23.116 139.049 23.82H137.537C137.513 23.516 137.369 23.256 137.105 23.04C136.841 22.824 136.493 22.716 136.061 22.716C135.669 22.716 135.349 22.816 135.101 23.016C134.853 23.216 134.729 23.504 134.729 23.88C134.729 24.136 134.805 24.348 134.957 24.516C135.117 24.676 135.317 24.804 135.557 24.9C135.797 24.996 136.125 25.1 136.541 25.212C137.093 25.364 137.541 25.516 137.885 25.668C138.237 25.82 138.533 26.056 138.773 26.376C139.021 26.688 139.145 27.108 139.145 27.636C139.145 28.06 139.029 28.46 138.797 28.836C138.573 29.212 138.241 29.516 137.801 29.748C137.369 29.972 136.857 30.084 136.265 30.084ZM143.772 30.108C143.148 30.108 142.584 29.968 142.08 29.688C141.576 29.4 141.18 29 140.892 28.488C140.604 27.968 140.46 27.368 140.46 26.688C140.46 26.016 140.608 25.42 140.904 24.9C141.2 24.38 141.604 23.98 142.116 23.7C142.628 23.42 143.2 23.28 143.832 23.28C144.464 23.28 145.036 23.42 145.548 23.7C146.06 23.98 146.464 24.38 146.76 24.9C147.056 25.42 147.204 26.016 147.204 26.688C147.204 27.36 147.052 27.956 146.748 28.476C146.444 28.996 146.028 29.4 145.5 29.688C144.98 29.968 144.404 30.108 143.772 30.108ZM143.772 28.92C144.124 28.92 144.452 28.836 144.756 28.668C145.068 28.5 145.32 28.248 145.512 27.912C145.704 27.576 145.8 27.168 145.8 26.688C145.8 26.208 145.708 25.804 145.524 25.476C145.34 25.14 145.096 24.888 144.792 24.72C144.488 24.552 144.16 24.468 143.808 24.468C143.456 24.468 143.128 24.552 142.824 24.72C142.528 24.888 142.292 25.14 142.116 25.476C141.94 25.804 141.852 26.208 141.852 26.688C141.852 27.4 142.032 27.952 142.392 28.344C142.76 28.728 143.22 28.92 143.772 28.92ZM151.568 30.108C150.944 30.108 150.38 29.968 149.876 29.688C149.372 29.4 148.976 29 148.688 28.488C148.4 27.968 148.256 27.368 148.256 26.688C148.256 26.016 148.404 25.42 148.7 24.9C148.996 24.38 149.4 23.98 149.912 23.7C150.424 23.42 150.996 23.28 151.628 23.28C152.26 23.28 152.832 23.42 153.344 23.7C153.856 23.98 154.26 24.38 154.556 24.9C154.852 25.42 155 26.016 155 26.688C155 27.36 154.848 27.956 154.544 28.476C154.24 28.996 153.824 29.4 153.296 29.688C152.776 29.968 152.2 30.108 151.568 30.108ZM151.568 28.92C151.92 28.92 152.248 28.836 152.552 28.668C152.864 28.5 153.116 28.248 153.308 27.912C153.5 27.576 153.596 27.168 153.596 26.688C153.596 26.208 153.504 25.804 153.32 25.476C153.136 25.14 152.892 24.888 152.588 24.72C152.284 24.552 151.956 24.468 151.604 24.468C151.252 24.468 150.924 24.552 150.62 24.72C150.324 24.888 150.088 25.14 149.912 25.476C149.736 25.804 149.648 26.208 149.648 26.688C149.648 27.4 149.828 27.952 150.188 28.344C150.556 28.728 151.016 28.92 151.568 28.92ZM159.832 23.28C160.352 23.28 160.816 23.388 161.224 23.604C161.64 23.82 161.964 24.14 162.196 24.564C162.428 24.988 162.544 25.5 162.544 26.1V30H161.188V26.304C161.188 25.712 161.04 25.26 160.744 24.948C160.448 24.628 160.044 24.468 159.532 24.468C159.02 24.468 158.612 24.628 158.308 24.948C158.012 25.26 157.864 25.712 157.864 26.304V30H156.496V23.388H157.864V24.144C158.088 23.872 158.372 23.66 158.716 23.508C159.068 23.356 159.44 23.28 159.832 23.28ZM164.985 30.084C164.737 30.084 164.529 30 164.361 29.832C164.193 29.664 164.109 29.456 164.109 29.208C164.109 28.96 164.193 28.752 164.361 28.584C164.529 28.416 164.737 28.332 164.985 28.332C165.225 28.332 165.429 28.416 165.597 28.584C165.765 28.752 165.849 28.96 165.849 29.208C165.849 29.456 165.765 29.664 165.597 29.832C165.429 30 165.225 30.084 164.985 30.084ZM168.024 30.084C167.776 30.084 167.568 30 167.4 29.832C167.232 29.664 167.148 29.456 167.148 29.208C167.148 28.96 167.232 28.752 167.4 28.584C167.568 28.416 167.776 28.332 168.024 28.332C168.264 28.332 168.468 28.416 168.636 28.584C168.804 28.752 168.888 28.96 168.888 29.208C168.888 29.456 168.804 29.664 168.636 29.832C168.468 30 168.264 30.084 168.024 30.084ZM171.062 30.084C170.814 30.084 170.606 30 170.438 29.832C170.27 29.664 170.186 29.456 170.186 29.208C170.186 28.96 170.27 28.752 170.438 28.584C170.606 28.416 170.814 28.332 171.062 28.332C171.302 28.332 171.506 28.416 171.674 28.584C171.842 28.752 171.926 28.96 171.926 29.208C171.926 29.456 171.842 29.664 171.674 29.832C171.506 30 171.302 30.084 171.062 30.084Z" fill="white"/>
<path d="M89.98 54.52H84.74L83.9 57H80.32L85.4 42.96H89.36L94.44 57H90.82L89.98 54.52ZM89.1 51.88L87.36 46.74L85.64 51.88H89.1ZM99.6461 47.42C99.9794 46.9 100.439 46.48 101.026 46.16C101.613 45.84 102.299 45.68 103.086 45.68C104.006 45.68 104.839 45.9133 105.586 46.38C106.333 46.8467 106.919 47.5133 107.346 48.38C107.786 49.2467 108.006 50.2533 108.006 51.4C108.006 52.5467 107.786 53.56 107.346 54.44C106.919 55.3067 106.333 55.98 105.586 56.46C104.839 56.9267 104.006 57.16 103.086 57.16C102.313 57.16 101.626 57 101.026 56.68C100.439 56.36 99.9794 55.9467 99.6461 55.44V62.32H96.2261V45.84H99.6461V47.42ZM104.526 51.4C104.526 50.5467 104.286 49.88 103.806 49.4C103.339 48.9067 102.759 48.66 102.066 48.66C101.386 48.66 100.806 48.9067 100.326 49.4C99.8594 49.8933 99.6261 50.5667 99.6261 51.42C99.6261 52.2733 99.8594 52.9467 100.326 53.44C100.806 53.9333 101.386 54.18 102.066 54.18C102.746 54.18 103.326 53.9333 103.806 53.44C104.286 52.9333 104.526 52.2533 104.526 51.4ZM113.46 47.42C113.794 46.9 114.254 46.48 114.84 46.16C115.427 45.84 116.114 45.68 116.9 45.68C117.82 45.68 118.654 45.9133 119.4 46.38C120.147 46.8467 120.734 47.5133 121.16 48.38C121.6 49.2467 121.82 50.2533 121.82 51.4C121.82 52.5467 121.6 53.56 121.16 54.44C120.734 55.3067 120.147 55.98 119.4 56.46C118.654 56.9267 117.82 57.16 116.9 57.16C116.127 57.16 115.44 57 114.84 56.68C114.254 56.36 113.794 55.9467 113.46 55.44V62.32H110.04V45.84H113.46V47.42ZM118.34 51.4C118.34 50.5467 118.1 49.88 117.62 49.4C117.154 48.9067 116.574 48.66 115.88 48.66C115.2 48.66 114.62 48.9067 114.14 49.4C113.674 49.8933 113.44 50.5667 113.44 51.42C113.44 52.2733 113.674 52.9467 114.14 53.44C114.62 53.9333 115.2 54.18 115.88 54.18C116.56 54.18 117.14 53.9333 117.62 53.44C118.1 52.9333 118.34 52.2533 118.34 51.4ZM133.413 57.14C132.386 57.14 131.466 56.9733 130.653 56.64C129.839 56.3067 129.186 55.8133 128.693 55.16C128.213 54.5067 127.959 53.72 127.933 52.8H131.573C131.626 53.32 131.806 53.72 132.113 54C132.419 54.2667 132.819 54.4 133.313 54.4C133.819 54.4 134.219 54.2867 134.513 54.06C134.806 53.82 134.953 53.4933 134.953 53.08C134.953 52.7333 134.833 52.4467 134.593 52.22C134.366 51.9933 134.079 51.8067 133.733 51.66C133.399 51.5133 132.919 51.3467 132.293 51.16C131.386 50.88 130.646 50.6 130.073 50.32C129.499 50.04 129.006 49.6267 128.593 49.08C128.179 48.5333 127.973 47.82 127.973 46.94C127.973 45.6333 128.446 44.6133 129.393 43.88C130.339 43.1333 131.573 42.76 133.093 42.76C134.639 42.76 135.886 43.1333 136.833 43.88C137.779 44.6133 138.286 45.64 138.353 46.96H134.653C134.626 46.5067 134.459 46.1533 134.153 45.9C133.846 45.6333 133.453 45.5 132.973 45.5C132.559 45.5 132.226 45.6133 131.973 45.84C131.719 46.0533 131.593 46.3667 131.593 46.78C131.593 47.2333 131.806 47.5867 132.233 47.84C132.659 48.0933 133.326 48.3667 134.233 48.66C135.139 48.9667 135.873 49.26 136.433 49.54C137.006 49.82 137.499 50.2267 137.913 50.76C138.326 51.2933 138.533 51.98 138.533 52.82C138.533 53.62 138.326 54.3467 137.913 55C137.513 55.6533 136.926 56.1733 136.153 56.56C135.379 56.9467 134.466 57.14 133.413 57.14ZM147.098 54.1V57H145.358C144.118 57 143.151 56.7 142.458 56.1C141.764 55.4867 141.418 54.4933 141.418 53.12V48.68H140.058V45.84H141.418V43.12H144.838V45.84H147.078V48.68H144.838V53.16C144.838 53.4933 144.918 53.7333 145.078 53.88C145.238 54.0267 145.504 54.1 145.878 54.1H147.098ZM154.323 57.16C153.229 57.16 152.243 56.9267 151.363 56.46C150.496 55.9933 149.809 55.3267 149.303 54.46C148.809 53.5933 148.563 52.58 148.563 51.42C148.563 50.2733 148.816 49.2667 149.323 48.4C149.829 47.52 150.523 46.8467 151.403 46.38C152.283 45.9133 153.269 45.68 154.363 45.68C155.456 45.68 156.443 45.9133 157.323 46.38C158.203 46.8467 158.896 47.52 159.403 48.4C159.909 49.2667 160.163 50.2733 160.163 51.42C160.163 52.5667 159.903 53.58 159.383 54.46C158.876 55.3267 158.176 55.9933 157.283 56.46C156.403 56.9267 155.416 57.16 154.323 57.16ZM154.323 54.2C154.976 54.2 155.529 53.96 155.983 53.48C156.449 53 156.683 52.3133 156.683 51.42C156.683 50.5267 156.456 49.84 156.003 49.36C155.563 48.88 155.016 48.64 154.363 48.64C153.696 48.64 153.143 48.88 152.703 49.36C152.263 49.8267 152.043 50.5133 152.043 51.42C152.043 52.3133 152.256 53 152.683 53.48C153.123 53.96 153.669 54.2 154.323 54.2ZM165.637 47.7C166.037 47.0867 166.537 46.6067 167.137 46.26C167.737 45.9 168.404 45.72 169.137 45.72V49.34H168.197C167.344 49.34 166.704 49.5267 166.277 49.9C165.85 50.26 165.637 50.9 165.637 51.82V57H162.217V45.84H165.637V47.7ZM181.532 51.24C181.532 51.56 181.512 51.8933 181.472 52.24H173.732C173.785 52.9333 174.005 53.4667 174.392 53.84C174.792 54.2 175.278 54.38 175.852 54.38C176.705 54.38 177.298 54.02 177.632 53.3H181.272C181.085 54.0333 180.745 54.6933 180.252 55.28C179.772 55.8667 179.165 56.3267 178.432 56.66C177.698 56.9933 176.878 57.16 175.972 57.16C174.878 57.16 173.905 56.9267 173.052 56.46C172.198 55.9933 171.532 55.3267 171.052 54.46C170.572 53.5933 170.332 52.58 170.332 51.42C170.332 50.26 170.565 49.2467 171.032 48.38C171.512 47.5133 172.178 46.8467 173.032 46.38C173.885 45.9133 174.865 45.68 175.972 45.68C177.052 45.68 178.012 45.9067 178.852 46.36C179.692 46.8133 180.345 47.46 180.812 48.3C181.292 49.14 181.532 50.12 181.532 51.24ZM178.032 50.34C178.032 49.7533 177.832 49.2867 177.432 48.94C177.032 48.5933 176.532 48.42 175.932 48.42C175.358 48.42 174.872 48.5867 174.472 48.92C174.085 49.2533 173.845 49.7267 173.752 50.34H178.032Z" fill="white"/>
<path d="M39.7609 29.2057L41.3441 28.5554C42.6297 28.0454 44.2914 27.5248 46.2528 27.8542C50.2712 28.5299 53.0422 30.6996 54.6933 33.5768C55.3308 34.6861 54.8166 36.1481 53.6266 36.6134C52.6071 37.0122 51.7357 37.7161 51.1314 38.6289C50.527 39.5416 50.2193 40.6187 50.2502 41.713C50.2811 42.8072 50.6492 43.8652 51.3041 44.7424C51.959 45.6196 52.8688 46.2731 53.9092 46.6137C55.0099 46.9749 55.6304 48.1968 55.2692 49.2976C54.3299 52.1493 52.9784 54.7822 51.3783 56.9072C49.7973 59.0067 47.8678 60.7492 45.7194 61.6013C44.3169 62.1538 42.8124 61.9477 41.3738 61.5907L40.5196 61.3633L39.2509 60.9957C38.6751 60.8278 38.0822 60.6833 37.4999 60.6833C36.9156 60.6833 36.3248 60.8278 35.7489 60.9957L34.4803 61.3633L33.6261 61.5907C32.1874 61.9477 30.6808 62.1559 29.2804 61.6013C26.5753 60.5303 24.1889 58.0313 22.3848 55.0839C20.4341 51.8371 19.1456 48.2361 18.5938 44.4887C18.1114 41.1864 18.3728 37.4783 19.9007 34.3418C21.4732 31.1097 24.3547 28.5937 28.7471 27.8542C30.5321 27.5546 32.0663 27.9562 33.2946 28.4173L33.9979 28.6936L35.2389 29.2057C36.0889 29.5393 36.7583 29.7348 37.4999 29.7348C38.2394 29.7348 38.9109 29.5393 39.7609 29.2057ZM37.0069 20.8821C39.0809 18.8059 42.2663 18.6274 43.0164 19.3797C43.7687 20.1298 43.5902 23.3152 41.5141 25.3892C39.4401 27.4632 36.2547 27.6417 35.5046 26.8916C34.7523 26.1414 34.9308 22.9561 37.0069 20.8821Z" fill="white"/>
</svg>
