<svg width="161" height="162" viewBox="0 0 161 162" fill="none" xmlns="http://www.w3.org/2000/svg">
<g clip-path="url(#clip0_1928_7797)">
<path d="M35.7575 14.7266L31.193 30.2485L23.5463 25.8794V43.2537H30.7478V38.244H40.7672V43.2537H47.9686V25.8794L40.3219 30.2488L35.7575 14.7266ZM125.932 14.7266L121.368 30.2488L113.721 25.8794V43.2537H120.922V38.244H130.942V43.2537H138.143V25.8794L130.497 30.2488L125.932 14.7266ZM23.5463 48.8896V133.428H47.9686V48.8896H23.5463ZM113.721 48.8896V133.428H138.143V48.8896H113.721ZM30.7478 58.2828H40.7672V69.5547H30.7478V58.2828ZM53.6045 58.2828V63.9188H108.085V58.2828H53.6045ZM120.922 58.2828H130.942V68.9285H120.922V58.2828ZM17.9104 69.266C14.4556 74.782 9.90424 80.0613 5.69922 84.983V93.4482C9.79152 89.0647 14.3253 84.3462 17.9104 79.3665V69.266ZM143.779 69.266V79.3662C147.364 84.3455 151.898 89.0641 155.99 93.4482V84.9833C151.785 80.0613 147.234 74.782 143.779 69.266ZM30.7478 78.3217H40.7672V83.9576H30.7478V78.3217ZM120.922 78.3217H130.942V83.9576H120.922V78.3217ZM30.7478 98.3605H40.7672V103.996H30.7478V98.3605ZM120.922 98.3605H130.942V103.996H120.922V98.3605ZM5.69922 118.399V124.035H17.9104V118.399H5.69922ZM30.7478 118.399H40.7672V124.035H30.7478V118.399ZM53.6045 118.399V124.035H71.9119C64.9274 125.012 58.7608 127.045 53.6045 129.429V133.428H58.6143V133.512C64.8147 130.981 72.3878 129.045 80.8448 129.045C89.3018 129.045 96.875 130.981 103.075 133.512V133.428H108.085V129.429C102.929 127.045 96.7622 125.012 89.7778 124.035H108.085V118.399H53.6045ZM120.922 118.399H130.942V124.035H120.922V118.399ZM143.779 118.399V124.035H155.99V118.399H143.779ZM18.5366 139.064V153.467H52.9783V139.064H18.5366ZM108.711 139.064V153.467H143.153V139.064H108.711Z" fill="#EAEAEA"/>
<path d="M136 171.125H36C29.125 171.125 23.5 165.5 23.5 158.625V93.3125C23.5 89.25 25.375 85.5 28.8125 83L86 43L143.188 83C146.625 85.1875 148.5 89.25 148.5 93.3125V158.625C148.5 165.5 142.875 171.125 136 171.125Z" fill="#78909C"/>
<path d="M54.75 46.125H117.25V143H54.75V46.125Z" fill="#AED581"/>
<path d="M51.625 43V146.125H120.375V43H51.625ZM114.125 139.875H57.875V49.25H114.125V139.875Z" fill="#558B2F"/>
<path d="M117.25 52.375C117.25 57.6875 116.312 61.75 111 61.75C105.688 61.75 101.625 57.6875 101.625 52.375C101.625 47.0625 105.688 46.125 111 46.125C116.312 46.125 117.25 47.0625 117.25 52.375ZM61 46.125C66.3125 46.125 70.375 47.0625 70.375 52.375C70.375 57.6875 66.3125 61.75 61 61.75C55.6875 61.75 54.75 57.6875 54.75 52.375C54.75 47.0625 55.6875 46.125 61 46.125Z" fill="#558B2F"/>
<path d="M86 74.25C89.4518 74.25 92.25 71.4518 92.25 68C92.25 64.5482 89.4518 61.75 86 61.75C82.5482 61.75 79.75 64.5482 79.75 68C79.75 71.4518 82.5482 74.25 86 74.25Z" fill="#558B2F"/>
<path d="M86 124.25C96.3553 124.25 104.75 115.855 104.75 105.5C104.75 95.1447 96.3553 86.75 86 86.75C75.6447 86.75 67.25 95.1447 67.25 105.5C67.25 115.855 75.6447 124.25 86 124.25Z" fill="#558B2F"/>
<path d="M136 171.125H36C29.125 171.125 23.5 165.5 23.5 158.625V96.125L86 136.75L148.5 96.125V158.625C148.5 165.5 142.875 171.125 136 171.125Z" fill="#CFD8DC"/>
</g>
<defs>
<clipPath id="clip0_1928_7797">
<rect width="160.311" height="160.311" fill="white" transform="translate(0.689453 0.984375)"/>
</clipPath>
</defs>
</svg>
