<svg width="223" height="80" viewBox="0 0 223 80" fill="none" xmlns="http://www.w3.org/2000/svg">
<rect x="1" y="1" width="221" height="78" rx="19" stroke="white" stroke-width="2"/>
<path d="M86.936 24.06C86.72 23.644 86.42 23.332 86.036 23.124C85.652 22.908 85.208 22.8 84.704 22.8C84.152 22.8 83.66 22.924 83.228 23.172C82.796 23.42 82.456 23.772 82.208 24.228C81.968 24.684 81.848 25.212 81.848 25.812C81.848 26.412 81.968 26.944 82.208 27.408C82.456 27.864 82.796 28.216 83.228 28.464C83.66 28.712 84.152 28.836 84.704 28.836C85.448 28.836 86.052 28.628 86.516 28.212C86.98 27.796 87.264 27.232 87.368 26.52H84.236V25.428H88.832V26.496C88.744 27.144 88.512 27.74 88.136 28.284C87.768 28.828 87.284 29.264 86.684 29.592C86.092 29.912 85.432 30.072 84.704 30.072C83.92 30.072 83.204 29.892 82.556 29.532C81.908 29.164 81.392 28.656 81.008 28.008C80.632 27.36 80.444 26.628 80.444 25.812C80.444 24.996 80.632 24.264 81.008 23.616C81.392 22.968 81.908 22.464 82.556 22.104C83.212 21.736 83.928 21.552 84.704 21.552C85.592 21.552 86.38 21.772 87.068 22.212C87.764 22.644 88.268 23.26 88.58 24.06H86.936ZM96.3853 26.532C96.3853 26.78 96.3693 27.004 96.3373 27.204H91.2853C91.3253 27.732 91.5213 28.156 91.8733 28.476C92.2253 28.796 92.6573 28.956 93.1693 28.956C93.9053 28.956 94.4253 28.648 94.7293 28.032H96.2053C96.0053 28.64 95.6413 29.14 95.1133 29.532C94.5933 29.916 93.9453 30.108 93.1693 30.108C92.5373 30.108 91.9693 29.968 91.4653 29.688C90.9693 29.4 90.5773 29 90.2893 28.488C90.0093 27.968 89.8693 27.368 89.8693 26.688C89.8693 26.008 90.0053 25.412 90.2773 24.9C90.5573 24.38 90.9453 23.98 91.4413 23.7C91.9453 23.42 92.5213 23.28 93.1693 23.28C93.7933 23.28 94.3493 23.416 94.8373 23.688C95.3253 23.96 95.7053 24.344 95.9773 24.84C96.2493 25.328 96.3853 25.892 96.3853 26.532ZM94.9573 26.1C94.9493 25.596 94.7693 25.192 94.4173 24.888C94.0653 24.584 93.6293 24.432 93.1093 24.432C92.6373 24.432 92.2333 24.584 91.8973 24.888C91.5613 25.184 91.3613 25.588 91.2973 26.1H94.9573ZM99.4715 24.504V28.164C99.4715 28.412 99.5275 28.592 99.6395 28.704C99.7595 28.808 99.9595 28.86 100.24 28.86H101.08V30H99.9995C99.3835 30 98.9115 29.856 98.5835 29.568C98.2555 29.28 98.0915 28.812 98.0915 28.164V24.504H97.3115V23.388H98.0915V21.744H99.4715V23.388H101.08V24.504H99.4715ZM107.114 21.66V30H105.746V21.66H107.114ZM110.65 24.504V28.164C110.65 28.412 110.706 28.592 110.818 28.704C110.938 28.808 111.138 28.86 111.418 28.86H112.258V30H111.178C110.562 30 110.09 29.856 109.762 29.568C109.434 29.28 109.27 28.812 109.27 28.164V24.504H108.49V23.388H109.27V21.744H110.65V23.388H112.258V24.504H110.65ZM120.728 30.084C119.952 30.084 119.236 29.904 118.58 29.544C117.932 29.176 117.416 28.668 117.032 28.02C116.656 27.364 116.468 26.628 116.468 25.812C116.468 24.996 116.656 24.264 117.032 23.616C117.416 22.968 117.932 22.464 118.58 22.104C119.236 21.736 119.952 21.552 120.728 21.552C121.512 21.552 122.228 21.736 122.876 22.104C123.532 22.464 124.048 22.968 124.424 23.616C124.8 24.264 124.988 24.996 124.988 25.812C124.988 26.628 124.8 27.364 124.424 28.02C124.048 28.668 123.532 29.176 122.876 29.544C122.228 29.904 121.512 30.084 120.728 30.084ZM120.728 28.896C121.28 28.896 121.772 28.772 122.204 28.524C122.636 28.268 122.972 27.908 123.212 27.444C123.46 26.972 123.584 26.428 123.584 25.812C123.584 25.196 123.46 24.656 123.212 24.192C122.972 23.728 122.636 23.372 122.204 23.124C121.772 22.876 121.28 22.752 120.728 22.752C120.176 22.752 119.684 22.876 119.252 23.124C118.82 23.372 118.48 23.728 118.232 24.192C117.992 24.656 117.872 25.196 117.872 25.812C117.872 26.428 117.992 26.972 118.232 27.444C118.48 27.908 118.82 28.268 119.252 28.524C119.684 28.772 120.176 28.896 120.728 28.896ZM129.814 23.28C130.334 23.28 130.798 23.388 131.206 23.604C131.622 23.82 131.946 24.14 132.178 24.564C132.41 24.988 132.526 25.5 132.526 26.1V30H131.17V26.304C131.17 25.712 131.022 25.26 130.726 24.948C130.43 24.628 130.026 24.468 129.514 24.468C129.002 24.468 128.594 24.628 128.29 24.948C127.994 25.26 127.846 25.712 127.846 26.304V30H126.478V23.388H127.846V24.144C128.07 23.872 128.354 23.66 128.698 23.508C129.05 23.356 129.422 23.28 129.814 23.28Z" fill="white"/>
<path d="M90.56 47.4C90.3067 46.9333 89.94 46.58 89.46 46.34C88.9933 46.0867 88.44 45.96 87.8 45.96C86.6933 45.96 85.8067 46.3267 85.14 47.06C84.4733 47.78 84.14 48.7467 84.14 49.96C84.14 51.2533 84.4867 52.2667 85.18 53C85.8867 53.72 86.8533 54.08 88.08 54.08C88.92 54.08 89.6267 53.8667 90.2 53.44C90.7867 53.0133 91.2133 52.4 91.48 51.6H87.14V49.08H94.58V52.26C94.3267 53.1133 93.8933 53.9067 93.28 54.64C92.68 55.3733 91.9133 55.9667 90.98 56.42C90.0467 56.8733 88.9933 57.1 87.82 57.1C86.4333 57.1 85.1933 56.8 84.1 56.2C83.02 55.5867 82.1733 54.74 81.56 53.66C80.96 52.58 80.66 51.3467 80.66 49.96C80.66 48.5733 80.96 47.34 81.56 46.26C82.1733 45.1667 83.02 44.32 84.1 43.72C85.18 43.1067 86.4133 42.8 87.8 42.8C89.48 42.8 90.8933 43.2067 92.04 44.02C93.2 44.8333 93.9667 45.96 94.34 47.4H90.56ZM101.794 57.16C100.701 57.16 99.7144 56.9267 98.8344 56.46C97.9677 55.9933 97.281 55.3267 96.7744 54.46C96.281 53.5933 96.0344 52.58 96.0344 51.42C96.0344 50.2733 96.2877 49.2667 96.7944 48.4C97.301 47.52 97.9944 46.8467 98.8744 46.38C99.7544 45.9133 100.741 45.68 101.834 45.68C102.928 45.68 103.914 45.9133 104.794 46.38C105.674 46.8467 106.368 47.52 106.874 48.4C107.381 49.2667 107.634 50.2733 107.634 51.42C107.634 52.5667 107.374 53.58 106.854 54.46C106.348 55.3267 105.648 55.9933 104.754 56.46C103.874 56.9267 102.888 57.16 101.794 57.16ZM101.794 54.2C102.448 54.2 103.001 53.96 103.454 53.48C103.921 53 104.154 52.3133 104.154 51.42C104.154 50.5267 103.928 49.84 103.474 49.36C103.034 48.88 102.488 48.64 101.834 48.64C101.168 48.64 100.614 48.88 100.174 49.36C99.7344 49.8267 99.5144 50.5133 99.5144 51.42C99.5144 52.3133 99.7277 53 100.154 53.48C100.594 53.96 101.141 54.2 101.794 54.2ZM114.769 57.16C113.675 57.16 112.689 56.9267 111.809 56.46C110.942 55.9933 110.255 55.3267 109.749 54.46C109.255 53.5933 109.009 52.58 109.009 51.42C109.009 50.2733 109.262 49.2667 109.769 48.4C110.275 47.52 110.969 46.8467 111.849 46.38C112.729 45.9133 113.715 45.68 114.809 45.68C115.902 45.68 116.889 45.9133 117.769 46.38C118.649 46.8467 119.342 47.52 119.849 48.4C120.355 49.2667 120.609 50.2733 120.609 51.42C120.609 52.5667 120.349 53.58 119.829 54.46C119.322 55.3267 118.622 55.9933 117.729 56.46C116.849 56.9267 115.862 57.16 114.769 57.16ZM114.769 54.2C115.422 54.2 115.975 53.96 116.429 53.48C116.895 53 117.129 52.3133 117.129 51.42C117.129 50.5267 116.902 49.84 116.449 49.36C116.009 48.88 115.462 48.64 114.809 48.64C114.142 48.64 113.589 48.88 113.149 49.36C112.709 49.8267 112.489 50.5133 112.489 51.42C112.489 52.3133 112.702 53 113.129 53.48C113.569 53.96 114.115 54.2 114.769 54.2ZM126.903 45.68C127.69 45.68 128.376 45.84 128.963 46.16C129.563 46.48 130.023 46.9 130.343 47.42V45.84H133.763V56.98C133.763 58.0067 133.556 58.9333 133.143 59.76C132.743 60.6 132.123 61.2667 131.283 61.76C130.456 62.2533 129.423 62.5 128.183 62.5C126.53 62.5 125.19 62.1067 124.163 61.32C123.136 60.5467 122.55 59.4933 122.403 58.16H125.783C125.89 58.5867 126.143 58.92 126.543 59.16C126.943 59.4133 127.436 59.54 128.023 59.54C128.73 59.54 129.29 59.3333 129.703 58.92C130.13 58.52 130.343 57.8733 130.343 56.98V55.4C130.01 55.92 129.55 56.3467 128.963 56.68C128.376 57 127.69 57.16 126.903 57.16C125.983 57.16 125.15 56.9267 124.403 56.46C123.656 55.98 123.063 55.3067 122.623 54.44C122.196 53.56 121.983 52.5467 121.983 51.4C121.983 50.2533 122.196 49.2467 122.623 48.38C123.063 47.5133 123.656 46.8467 124.403 46.38C125.15 45.9133 125.983 45.68 126.903 45.68ZM130.343 51.42C130.343 50.5667 130.103 49.8933 129.623 49.4C129.156 48.9067 128.583 48.66 127.903 48.66C127.223 48.66 126.643 48.9067 126.163 49.4C125.696 49.88 125.463 50.5467 125.463 51.4C125.463 52.2533 125.696 52.9333 126.163 53.44C126.643 53.9333 127.223 54.18 127.903 54.18C128.583 54.18 129.156 53.9333 129.623 53.44C130.103 52.9467 130.343 52.2733 130.343 51.42ZM139.897 42.2V57H136.477V42.2H139.897ZM153.136 51.24C153.136 51.56 153.116 51.8933 153.076 52.24H145.336C145.389 52.9333 145.609 53.4667 145.996 53.84C146.396 54.2 146.882 54.38 147.456 54.38C148.309 54.38 148.902 54.02 149.236 53.3H152.876C152.689 54.0333 152.349 54.6933 151.856 55.28C151.376 55.8667 150.769 56.3267 150.036 56.66C149.302 56.9933 148.482 57.16 147.576 57.16C146.482 57.16 145.509 56.9267 144.656 56.46C143.802 55.9933 143.136 55.3267 142.656 54.46C142.176 53.5933 141.936 52.58 141.936 51.42C141.936 50.26 142.169 49.2467 142.636 48.38C143.116 47.5133 143.782 46.8467 144.636 46.38C145.489 45.9133 146.469 45.68 147.576 45.68C148.656 45.68 149.616 45.9067 150.456 46.36C151.296 46.8133 151.949 47.46 152.416 48.3C152.896 49.14 153.136 50.12 153.136 51.24ZM149.636 50.34C149.636 49.7533 149.436 49.2867 149.036 48.94C148.636 48.5933 148.136 48.42 147.536 48.42C146.962 48.42 146.476 48.5867 146.076 48.92C145.689 49.2533 145.449 49.7267 145.356 50.34H149.636ZM170.358 47.48C170.358 48.2933 170.172 49.04 169.798 49.72C169.425 50.3867 168.852 50.9267 168.078 51.34C167.305 51.7533 166.345 51.96 165.198 51.96H163.078V57H159.658V42.96H165.198C166.318 42.96 167.265 43.1533 168.038 43.54C168.812 43.9267 169.392 44.46 169.778 45.14C170.165 45.82 170.358 46.6 170.358 47.48ZM164.938 49.24C165.592 49.24 166.078 49.0867 166.398 48.78C166.718 48.4733 166.878 48.04 166.878 47.48C166.878 46.92 166.718 46.4867 166.398 46.18C166.078 45.8733 165.592 45.72 164.938 45.72H163.078V49.24H164.938ZM175.799 42.2V57H172.379V42.2H175.799ZM177.837 51.4C177.837 50.2533 178.051 49.2467 178.477 48.38C178.917 47.5133 179.511 46.8467 180.257 46.38C181.004 45.9133 181.837 45.68 182.757 45.68C183.544 45.68 184.231 45.84 184.817 46.16C185.417 46.48 185.877 46.9 186.197 47.42V45.84H189.617V57H186.197V55.42C185.864 55.94 185.397 56.36 184.797 56.68C184.211 57 183.524 57.16 182.737 57.16C181.831 57.16 181.004 56.9267 180.257 56.46C179.511 55.98 178.917 55.3067 178.477 54.44C178.051 53.56 177.837 52.5467 177.837 51.4ZM186.197 51.42C186.197 50.5667 185.957 49.8933 185.477 49.4C185.011 48.9067 184.437 48.66 183.757 48.66C183.077 48.66 182.497 48.9067 182.017 49.4C181.551 49.88 181.317 50.5467 181.317 51.4C181.317 52.2533 181.551 52.9333 182.017 53.44C182.497 53.9333 183.077 54.18 183.757 54.18C184.437 54.18 185.011 53.9333 185.477 53.44C185.957 52.9467 186.197 52.2733 186.197 51.42ZM203.731 45.84L196.731 62.3H193.051L195.611 56.62L191.071 45.84H194.891L197.471 52.82L200.031 45.84H203.731Z" fill="white"/>
<path d="M16.7812 20.9261V60.0725C16.7815 60.1575 16.8068 60.2404 16.8541 60.311C16.9013 60.3816 16.9683 60.4367 17.0467 60.4694C17.1251 60.502 17.2114 60.5108 17.2948 60.4946C17.3782 60.4784 17.4549 60.438 17.5154 60.3783L37.8984 40.5003L17.5154 20.6203C17.4549 20.5606 17.3782 20.5202 17.2948 20.504C17.2114 20.4878 17.1251 20.4966 17.0467 20.5292C16.9683 20.5619 16.9013 20.617 16.8541 20.6876C16.8068 20.7582 16.7815 20.8411 16.7812 20.9261ZM46.4449 32.3323L20.8871 18.2515L20.8712 18.2426C20.4309 18.0035 20.0126 18.5992 20.3732 18.9458L40.4076 38.1027L46.4449 32.3323ZM20.3752 62.0548C20.0126 62.4014 20.4309 62.9971 20.8732 62.758L20.8891 62.749L46.4449 48.6683L40.4076 42.8959L20.3752 62.0548ZM56.7625 38.0101L49.6255 34.0795L42.9148 40.5003L49.6255 46.9181L56.7625 42.9905C58.7038 41.9177 58.7038 39.0829 56.7625 38.0101Z" fill="white"/>
</svg>
