<svg width="140" height="140" viewBox="0 0 140 140" fill="none" xmlns="http://www.w3.org/2000/svg">
<path d="M72.9875 1.25H13.2063C10.0353 1.25 6.99414 2.50967 4.7519 4.7519C2.50967 6.99414 1.25 10.0353 1.25 13.2063V126.794C1.25 128.364 1.55926 129.919 2.16012 131.369C2.76097 132.82 3.64166 134.138 4.7519 135.248C5.86215 136.358 7.18019 137.239 8.63079 137.84C10.0814 138.441 11.6361 138.75 13.2063 138.75H72.9875C74.5583 138.752 76.1142 138.445 77.5659 137.845C79.0176 137.245 80.3366 136.364 81.4473 135.254C82.5581 134.143 83.4387 132.824 84.0387 131.372C84.6386 129.92 84.9462 128.365 84.9437 126.794V13.2063C84.9421 10.0358 83.6819 6.99561 81.44 4.75373C79.1981 2.51186 76.158 1.25166 72.9875 1.25Z" fill="#66E1FF"/>
<path d="M84.9437 19.7375V13.2063C84.9421 10.0358 83.6819 6.99561 81.44 4.75373C79.1981 2.51186 76.158 1.25166 72.9875 1.25H13.2063C10.0353 1.25 6.99414 2.50967 4.7519 4.7519C2.50967 6.99414 1.25 10.0353 1.25 13.2063V103.431L84.9437 19.7375Z" fill="#C2F3FF"/>
<path d="M138.751 43.1008V102.882H108.863C102.657 102.468 96.8119 99.8155 92.4131 95.4178C88.0143 91.0201 85.3605 85.1757 84.9445 78.9695H67.007C63.836 78.9695 60.7949 77.7099 58.5527 75.4676C56.3105 73.2254 55.0508 70.1843 55.0508 67.0133C55.0508 63.8423 56.3105 60.8012 58.5527 58.5589C60.7949 56.3167 63.836 55.057 67.007 55.057H84.9445V22.1758H93.132C95.5883 22.1945 97.9883 22.9383 100.007 24.3258L126.795 43.1008H138.751Z" fill="#FFDDA1"/>
<path d="M126.787 43.1008L100.006 24.3258C97.9798 22.9398 95.5856 22.1911 93.1309 22.1758H84.9434V37.1195H93.1309C95.5809 37.1383 97.9809 37.8883 100.006 39.2758L126.787 58.0445H138.75V43.1008H126.787Z" fill="#FFDDA1"/>
<path d="M1.25 114.838V126.794C1.25 128.364 1.55926 129.919 2.16012 131.37C2.76097 132.82 3.64166 134.138 4.7519 135.248C5.86215 136.359 7.18019 137.239 8.63079 137.84C10.0814 138.441 11.6361 138.75 13.2063 138.75H72.9875C76.1585 138.75 79.1996 137.491 81.4418 135.248C83.6841 133.006 84.9437 129.965 84.9437 126.794V114.838H1.25Z" fill="white"/>
<path d="M84.9375 22.1758H93.1313C95.5813 22.1758 97.975 22.9258 99.9813 24.3383L126.794 43.1008H138.744M138.75 102.876H108.863C102.657 102.462 96.813 99.8103 92.4143 95.4139C88.0156 91.0175 85.3612 85.1746 84.9437 78.9695H67.0062C63.8353 78.9695 60.7941 77.7099 58.5519 75.4676C56.3097 73.2254 55.05 70.1843 55.05 67.0133C55.05 63.8423 56.3097 60.8012 58.5519 58.5589C60.7941 56.3167 63.8353 55.057 67.0062 55.057H99.8938M84.9437 114.838H1.25" stroke="#191919" stroke-linecap="round" stroke-linejoin="round"/>
<path d="M43.0995 128.288C42.727 128.254 42.3806 128.082 42.1284 127.806C41.8762 127.529 41.7363 127.169 41.7363 126.795C41.7363 126.42 41.8762 126.06 42.1284 125.783C42.3806 125.507 42.727 125.335 43.0995 125.301" stroke="#191919"/>
<path d="M43.0938 128.288C43.4663 128.254 43.8127 128.082 44.0649 127.806C44.3171 127.529 44.457 127.169 44.457 126.795C44.457 126.42 44.3171 126.06 44.0649 125.783C43.8127 125.507 43.4663 125.335 43.0938 125.301" stroke="#191919"/>
<path d="M84.9437 105.694V126.794C84.9421 129.964 83.6819 133.004 81.44 135.246C79.1981 137.488 76.158 138.748 72.9875 138.75H13.2063C11.6361 138.75 10.0814 138.441 8.63079 137.84C7.18019 137.239 5.86215 136.358 4.7519 135.248C3.64166 134.138 2.76097 132.82 2.16012 131.369C1.55926 129.919 1.25 128.364 1.25 126.794V13.2063C1.25 10.0353 2.50967 6.99414 4.7519 4.7519C6.99414 2.50967 10.0353 1.25 13.2063 1.25H72.9875C76.1585 1.25 79.1996 2.50967 81.4418 4.7519C83.6841 6.99414 84.9437 10.0353 84.9437 13.2063V55.0563M43.0938 19.1875V46.0875" stroke="#191919" stroke-linecap="round" stroke-linejoin="round"/>
<path d="M34.125 31.1438L43.1062 19.1875L52.0625 31.1438M43.0938 96.9V70M43.0938 96.9L52.0625 84.9438M43.0938 96.9L34.1312 84.9438" stroke="#191919" stroke-linecap="round" stroke-linejoin="round"/>
</svg>
