<svg width="241" height="198" viewBox="0 0 241 198" fill="none" xmlns="http://www.w3.org/2000/svg">
<path d="M131.502 176.062V173.772L197.084 139.416L238.62 161.172V163.462L173.038 197.818L131.502 176.062Z" fill="#165DFC"/>
<path d="M131.502 173.772L173.038 195.528L238.62 161.172L197.084 139.416L131.502 173.772Z" fill="#165DFC"/>
<path opacity="0.15" d="M131.502 173.771L173.038 195.528V197.818L131.502 176.062V173.771Z" fill="black"/>
<path opacity="0.1" d="M173.039 195.527L238.621 161.172V163.462L173.039 197.818V195.527Z" fill="black"/>
<path d="M185.056 165.182L192.709 169.191V142.039L166.473 128.297L166.478 155.449L185.056 165.182Z" fill="#EBEBEB"/>
<path d="M190.523 141.779L218.944 148.03V146.883L190.523 140.637V141.779Z" fill="#37474F"/>
<path d="M164.293 126.885L190.524 140.637L218.945 146.883L192.714 133.136L164.293 126.885Z" fill="#455A64"/>
<path opacity="0.5" d="M164.293 126.885L190.524 140.637L218.945 146.883L192.714 133.136L164.293 126.885Z" fill="#37474F"/>
<path d="M164.293 126.885L190.524 140.637V141.779L164.293 128.032V126.885Z" fill="#263238"/>
<path d="M192.709 169.191L216.76 156.592V147.548L192.709 142.264V169.191Z" fill="#EBEBEB"/>
<path d="M192.709 143.602L216.76 148.891V147.548L192.709 142.264V143.602Z" fill="#E0E0E0"/>
<path d="M197.078 166.901V156.592L212.389 148.578V158.882L197.078 166.901Z" fill="#455A64"/>
<path opacity="0.5" d="M197.078 166.901V156.592L212.389 148.578V158.882L197.078 166.901Z" fill="#37474F"/>
<path d="M212.39 148.578L212.18 148.686V158.775L212.39 158.877V148.578Z" fill="#263238"/>
<path d="M212.174 158.779L197.078 166.686V166.901L212.389 158.882L212.174 158.779Z" fill="#37474F"/>
<path d="M173.038 188.662V147.431L144.617 132.541V173.773L173.038 188.662Z" fill="#EBEBEB"/>
<path d="M144.617 132.541V138.269L173.038 153.159V147.431L144.617 132.541Z" fill="#E0E0E0"/>
<path d="M151.178 143.953L146.803 141.668V171.443L151.178 173.733V143.953Z" fill="#455A64"/>
<path d="M147.152 171.261V141.848L151.178 143.952V173.366L147.152 171.261Z" fill="#FAFAFA"/>
<path d="M147.152 141.848L151.178 143.952V145.041L147.152 142.946V141.848Z" fill="#E0E0E0"/>
<path d="M146.803 171.442L147.153 171.262L151.178 173.367V173.733L146.803 171.442Z" fill="#37474F"/>
<path d="M166.478 153.158L157.732 148.572V157.739L166.478 162.319V153.158Z" fill="#455A64"/>
<path d="M158.082 157.558V148.758L166.478 153.158V161.953L158.082 157.558Z" fill="#FAFAFA"/>
<path d="M158.082 148.758V150.159L166.478 154.559V153.158L158.082 148.758Z" fill="#E0E0E0"/>
<path d="M157.732 157.739L158.082 157.559L166.478 161.954V162.32L157.732 157.739Z" fill="#37474F"/>
<path d="M161.752 150.682L162.102 150.862V160.029L161.752 159.848V150.682Z" fill="#455A64"/>
<path d="M162.104 150.863V160.03L162.459 159.844V151.049L162.104 150.863Z" fill="#37474F"/>
<path d="M166.478 169.192L157.732 164.611V173.773L166.478 178.354V169.192Z" fill="#455A64"/>
<path d="M158.082 173.591V164.791L166.478 169.191V177.986L158.082 173.591Z" fill="#FAFAFA"/>
<path d="M158.082 164.791V166.193L166.478 170.593V169.191L158.082 164.791Z" fill="#E0E0E0"/>
<path d="M157.732 173.772L158.082 173.592L166.478 177.987V178.353L157.732 173.772Z" fill="#37474F"/>
<path d="M161.752 166.715L162.102 166.9V176.062L161.752 175.881V166.715Z" fill="#455A64"/>
<path d="M162.104 166.9V176.062L162.459 175.881V167.081L162.104 166.9Z" fill="#37474F"/>
<path d="M173.039 147.43L194.9 126.816V177.209L173.039 188.661V147.43Z" fill="#FAFAFA"/>
<path d="M194.9 161.172L173.039 172.624V166.9L194.9 155.355V161.172Z" fill="#E0E0E0"/>
<path d="M173.039 150.379L194.9 129.839V126.816L173.039 147.43V150.379Z" fill="#F0F0F0"/>
<path d="M179.594 149.667L188.339 145.086V157.739L179.594 162.32V149.667Z" fill="#455A64"/>
<path d="M187.989 157.558V145.271L179.594 149.667V161.954L187.989 157.558Z" fill="#E6E6E6"/>
<path d="M187.989 145.271V146.673L179.594 151.068V149.667L187.989 145.271Z" fill="#E0E0E0"/>
<path d="M188.339 157.739L187.989 157.559L179.594 161.954V162.32L188.339 157.739Z" fill="#37474F"/>
<path d="M184.319 147.195L183.969 147.376V160.029L184.319 159.848V147.195Z" fill="#455A64"/>
<path d="M183.968 147.377V160.03L183.613 159.845V147.563L183.968 147.377Z" fill="#37474F"/>
<path d="M180.686 184.657V172.023L187.246 168.59V181.219L180.686 184.657Z" fill="#37474F"/>
<path d="M187.036 181.077V168.697L180.686 172.023V184.403L187.036 181.077Z" fill="#455A64"/>
<path d="M187.247 168.59L187.037 168.697V181.077L187.247 181.219V168.59Z" fill="#263238"/>
<path d="M173.039 165.753L194.9 154.301L199.27 156.591L177.409 168.043L173.039 165.753Z" fill="#E0E0E0"/>
<path d="M173.039 165.754V166.902L177.409 169.192V168.044L173.039 165.754Z" fill="#EBEBEB"/>
<path d="M177.408 168.044L199.269 156.592V157.739L177.408 169.191V168.044Z" fill="#F5F5F5"/>
<path d="M177.564 160.602V167.409C177.564 167.422 177.56 167.434 177.552 167.444C177.545 167.455 177.534 167.463 177.521 167.468C177.486 167.484 177.447 167.493 177.408 167.493C177.369 167.493 177.33 167.484 177.295 167.468C177.282 167.463 177.271 167.455 177.264 167.444C177.256 167.434 177.252 167.422 177.252 167.409V160.602H177.564Z" fill="#37474F"/>
<path d="M179.453 159.609V166.417C179.454 166.43 179.45 166.442 179.442 166.453C179.434 166.463 179.423 166.471 179.41 166.476C179.375 166.492 179.336 166.501 179.297 166.501C179.257 166.501 179.219 166.492 179.184 166.476C179.171 166.471 179.159 166.463 179.151 166.453C179.144 166.442 179.14 166.43 179.141 166.417V159.609H179.453Z" fill="#37474F"/>
<path d="M181.349 158.623V165.431C181.349 165.431 181.349 165.47 181.3 165.489C181.265 165.504 181.226 165.511 181.187 165.511C181.148 165.511 181.11 165.504 181.074 165.489C181.063 165.483 181.053 165.474 181.046 165.464C181.038 165.454 181.033 165.443 181.031 165.431V158.623H181.349Z" fill="#37474F"/>
<path d="M183.237 157.633V164.44C183.236 164.453 183.23 164.465 183.222 164.476C183.213 164.486 183.202 164.494 183.189 164.499C183.154 164.516 183.115 164.524 183.076 164.524C183.037 164.524 182.998 164.516 182.963 164.499C182.951 164.493 182.941 164.485 182.933 164.475C182.926 164.464 182.921 164.453 182.92 164.44V157.633H183.237Z" fill="#37474F"/>
<path d="M185.126 156.641V163.448C185.124 163.461 185.119 163.473 185.111 163.483C185.102 163.494 185.091 163.502 185.078 163.507C185.044 163.524 185.006 163.532 184.967 163.532C184.929 163.532 184.891 163.524 184.857 163.507C184.844 163.502 184.833 163.494 184.824 163.483C184.816 163.473 184.81 163.461 184.809 163.448V156.641H185.126Z" fill="#37474F"/>
<path d="M187.015 155.648V162.456C187.014 162.469 187.009 162.481 187 162.492C186.991 162.502 186.98 162.51 186.966 162.515C186.932 162.531 186.895 162.54 186.856 162.54C186.818 162.54 186.78 162.531 186.746 162.515C186.732 162.51 186.721 162.502 186.712 162.492C186.704 162.481 186.698 162.469 186.697 162.456V155.648H187.015Z" fill="#37474F"/>
<path d="M188.903 154.662V161.47C188.903 161.47 188.903 161.509 188.855 161.528C188.82 161.543 188.783 161.55 188.745 161.55C188.707 161.55 188.669 161.543 188.634 161.528C188.602 161.509 188.586 161.489 188.586 161.47V154.662H188.903Z" fill="#37474F"/>
<path d="M190.792 153.672V160.479C190.791 160.492 190.786 160.504 190.779 160.514C190.771 160.524 190.761 160.532 190.749 160.538C190.714 160.555 190.675 160.563 190.636 160.563C190.597 160.563 190.558 160.555 190.523 160.538C190.51 160.533 190.499 160.525 190.49 160.515C190.482 160.504 190.476 160.492 190.475 160.479V153.672H190.792Z" fill="#37474F"/>
<path d="M192.683 152.68V159.487C192.682 159.5 192.678 159.512 192.67 159.522C192.663 159.532 192.652 159.541 192.64 159.546C192.605 159.563 192.566 159.571 192.527 159.571C192.487 159.571 192.449 159.563 192.414 159.546C192.4 159.541 192.389 159.533 192.38 159.523C192.372 159.513 192.366 159.5 192.365 159.487V152.68H192.683Z" fill="#37474F"/>
<path d="M194.571 151.693V158.501C194.571 158.513 194.566 158.525 194.559 158.536C194.551 158.546 194.541 158.554 194.528 158.56C194.493 158.574 194.454 158.582 194.415 158.582C194.376 158.582 194.338 158.574 194.302 158.56C194.27 158.54 194.254 158.521 194.254 158.501V151.693H194.571Z" fill="#37474F"/>
<path d="M196.461 150.701V157.509C196.461 157.521 196.456 157.534 196.449 157.544C196.441 157.554 196.43 157.563 196.418 157.567C196.383 157.584 196.344 157.593 196.305 157.593C196.265 157.593 196.226 157.584 196.192 157.567C196.179 157.563 196.168 157.554 196.16 157.544C196.153 157.534 196.148 157.521 196.148 157.509V150.701H196.461Z" fill="#37474F"/>
<path d="M198.355 149.711V156.519C198.354 156.531 198.348 156.544 198.34 156.554C198.331 156.565 198.32 156.573 198.306 156.577C198.271 156.594 198.233 156.603 198.193 156.603C198.154 156.603 198.115 156.594 198.08 156.577C198.068 156.572 198.057 156.564 198.05 156.553C198.042 156.543 198.038 156.531 198.037 156.519V149.711H198.355Z" fill="#37474F"/>
<path d="M177.408 160.845C177.36 160.846 177.314 160.834 177.273 160.811L173.759 159.004C173.701 158.971 173.66 158.918 173.643 158.858C173.626 158.797 173.636 158.733 173.669 158.678C173.703 158.624 173.759 158.583 173.824 158.565C173.89 158.547 173.961 158.552 174.023 158.579L177.408 160.318L198.725 149.149L193.747 146.58C193.716 146.564 193.689 146.543 193.668 146.518C193.646 146.492 193.63 146.463 193.621 146.432C193.612 146.401 193.609 146.368 193.614 146.337C193.618 146.305 193.63 146.274 193.647 146.246C193.665 146.218 193.689 146.194 193.717 146.174C193.745 146.154 193.777 146.14 193.811 146.132C193.845 146.123 193.881 146.121 193.916 146.125C193.951 146.129 193.985 146.14 194.016 146.156L199.398 148.934C199.439 148.957 199.472 148.988 199.496 149.026C199.519 149.064 199.532 149.106 199.532 149.149C199.532 149.192 199.52 149.234 199.496 149.27C199.472 149.307 199.439 149.338 199.398 149.359L177.537 160.811C177.499 160.833 177.454 160.845 177.408 160.845Z" fill="#455A64"/>
<path d="M171.246 149.037L195.679 126.079V124.932L171.246 147.889V149.037Z" fill="#37474F"/>
<path d="M171.246 149.038L142.045 133.737V132.59L171.246 147.89V149.038Z" fill="#263238"/>
<path d="M166.478 109.637L195.679 124.932L171.246 147.889L142.045 132.589L166.478 109.637Z" fill="#455A64"/>
<path d="M212.389 158.883L227.69 166.902L212.389 174.92L197.078 166.902L212.389 158.883Z" fill="#F0F0F0"/>
<path d="M187.246 181.219L180.686 184.657L187.241 188.09L193.801 184.652L187.246 181.219Z" fill="#F0F0F0"/>
<path d="M194.366 178.392L195.297 177.904C195.553 176.531 195.589 175.131 195.404 173.748C194.936 171.047 192.913 170.12 192.175 170.388C191.438 170.657 191.266 171.453 192.595 173.016C193.801 174.591 194.421 176.475 194.366 178.392Z" fill="#165DFC"/>
<g opacity="0.2">
<path d="M194.366 178.392L195.297 177.904C195.553 176.531 195.589 175.131 195.404 173.748C194.936 171.047 192.913 170.12 192.175 170.388C191.438 170.657 191.266 171.453 192.595 173.016C193.801 174.591 194.421 176.475 194.366 178.392Z" fill="black"/>
</g>
<path d="M194.706 177.318C194.697 177.317 194.688 177.315 194.68 177.311C194.672 177.307 194.665 177.302 194.66 177.295C194.654 177.289 194.65 177.282 194.648 177.274C194.646 177.266 194.645 177.257 194.647 177.249C195.034 174.725 193.91 171.956 192.656 170.837C192.65 170.832 192.645 170.825 192.642 170.818C192.638 170.811 192.637 170.804 192.637 170.796C192.637 170.788 192.638 170.78 192.642 170.773C192.645 170.766 192.65 170.76 192.656 170.754C192.669 170.744 192.686 170.738 192.704 170.738C192.722 170.738 192.739 170.744 192.753 170.754C194.033 171.892 195.174 174.705 194.782 177.274C194.78 177.281 194.777 177.289 194.773 177.295C194.768 177.302 194.762 177.307 194.755 177.311C194.748 177.316 194.74 177.318 194.731 177.319C194.723 177.32 194.714 177.32 194.706 177.318Z" fill="white"/>
<path d="M191.778 179.745C191.632 179.823 191.331 179.652 191.213 179.584C191.013 179.46 190.852 179.292 190.744 179.096C190.624 178.875 190.584 178.625 190.631 178.383C190.653 178.252 190.685 178.123 190.728 177.997C190.766 177.875 190.809 177.753 190.847 177.631C190.893 177.51 190.913 177.382 190.906 177.254C190.828 177.008 190.646 176.799 190.4 176.673C190.261 176.601 190.142 176.5 190.054 176.379C189.965 176.258 189.908 176.119 189.889 175.975C189.911 175.739 190.015 175.515 190.185 175.335C190.346 175.15 190.54 174.989 190.685 174.793C190.801 174.653 190.86 174.48 190.852 174.305C190.836 174.201 190.798 174.102 190.739 174.012C190.603 173.822 190.484 173.623 190.384 173.416C190.334 173.312 190.317 173.198 190.338 173.086C190.358 172.974 190.413 172.87 190.497 172.786C190.578 172.731 190.671 172.69 190.77 172.668C190.869 172.645 190.972 172.64 191.073 172.654C191.264 172.675 191.447 172.733 191.611 172.825C192.149 173.094 192.45 173.67 193.015 173.875C193.24 173.938 193.468 173.989 193.699 174.026C193.815 174.047 193.925 174.088 194.022 174.149C194.119 174.209 194.202 174.287 194.264 174.378C194.474 174.754 194.086 175.218 194.232 175.619C194.377 176.019 194.738 176.107 194.953 176.424C195.038 176.566 195.072 176.728 195.05 176.888C195.034 177.159 194.961 177.424 194.835 177.67C194.698 177.916 194.542 178.153 194.366 178.378L191.778 179.745Z" fill="#165DFC"/>
<g opacity="0.1">
<path d="M191.778 179.745C191.632 179.823 191.331 179.652 191.213 179.584C191.013 179.46 190.852 179.292 190.744 179.096C190.624 178.875 190.584 178.625 190.631 178.383C190.653 178.252 190.685 178.123 190.728 177.997C190.766 177.875 190.809 177.753 190.847 177.631C190.893 177.51 190.913 177.382 190.906 177.254C190.828 177.008 190.646 176.799 190.4 176.673C190.261 176.601 190.142 176.5 190.054 176.379C189.965 176.258 189.908 176.119 189.889 175.975C189.911 175.739 190.015 175.515 190.185 175.335C190.346 175.15 190.54 174.989 190.685 174.793C190.801 174.653 190.86 174.48 190.852 174.305C190.836 174.201 190.798 174.102 190.739 174.012C190.603 173.822 190.484 173.623 190.384 173.416C190.334 173.312 190.317 173.198 190.338 173.086C190.358 172.974 190.413 172.87 190.497 172.786C190.578 172.731 190.671 172.69 190.77 172.668C190.869 172.645 190.972 172.64 191.073 172.654C191.264 172.675 191.447 172.733 191.611 172.825C192.149 173.094 192.45 173.67 193.015 173.875C193.24 173.938 193.468 173.989 193.699 174.026C193.815 174.047 193.925 174.088 194.022 174.149C194.119 174.209 194.202 174.287 194.264 174.378C194.474 174.754 194.086 175.218 194.232 175.619C194.377 176.019 194.738 176.107 194.953 176.424C195.038 176.566 195.072 176.728 195.05 176.888C195.034 177.159 194.961 177.424 194.835 177.67C194.698 177.916 194.542 178.153 194.366 178.378L191.778 179.745Z" fill="black"/>
</g>
<path d="M193.29 179.011C193.273 179.011 193.256 179.005 193.244 178.994C193.232 178.983 193.225 178.968 193.225 178.953C193.333 176.56 192.095 173.918 191.191 173.151C191.184 173.146 191.179 173.139 191.176 173.132C191.172 173.125 191.17 173.117 191.17 173.109C191.17 173.101 191.171 173.093 191.174 173.086C191.177 173.078 191.182 173.072 191.188 173.066C191.194 173.06 191.201 173.055 191.209 173.052C191.217 173.049 191.226 173.047 191.235 173.047C191.243 173.047 191.252 173.048 191.26 173.051C191.268 173.054 191.276 173.058 191.282 173.063C192.203 173.845 193.467 176.531 193.36 178.958C193.357 178.973 193.349 178.987 193.336 178.996C193.323 179.006 193.307 179.012 193.29 179.011Z" fill="white"/>
<path d="M192.897 176.19C192.273 176.035 191.633 175.942 190.987 175.911C190.978 175.911 190.969 175.91 190.961 175.906C190.952 175.903 190.945 175.898 190.939 175.893C190.933 175.887 190.928 175.879 190.925 175.872C190.922 175.864 190.921 175.856 190.922 175.848C190.922 175.84 190.924 175.832 190.927 175.824C190.931 175.817 190.936 175.81 190.943 175.805C190.949 175.799 190.957 175.795 190.966 175.792C190.974 175.79 190.983 175.789 190.992 175.789C191.651 175.82 192.304 175.917 192.94 176.077C192.948 176.08 192.956 176.083 192.963 176.088C192.969 176.093 192.975 176.099 192.979 176.106C192.983 176.113 192.985 176.12 192.986 176.128C192.987 176.136 192.986 176.143 192.983 176.151C192.976 176.165 192.964 176.177 192.948 176.184C192.932 176.191 192.914 176.193 192.897 176.19Z" fill="white"/>
<path d="M235.555 154.38L233.896 157.346L234.165 157.469L235.824 154.504L235.555 154.38Z" fill="#455A64"/>
<path d="M232.487 154.149L232.23 154.293L233.848 156.664L234.104 156.52L232.487 154.149Z" fill="#455A64"/>
<path d="M234.29 153.887V161.036C234.286 161.056 234.277 161.075 234.264 161.091C234.251 161.107 234.234 161.12 234.214 161.129C234.159 161.153 234.098 161.166 234.037 161.166C233.975 161.166 233.914 161.153 233.859 161.129C233.84 161.12 233.824 161.106 233.812 161.09C233.799 161.074 233.792 161.056 233.789 161.036V153.887H234.29Z" fill="#455A64"/>
<path d="M240.241 151.659C240.241 152.316 240.026 152.958 239.624 153.504C239.222 154.05 238.65 154.476 237.981 154.727C237.312 154.978 236.576 155.044 235.866 154.915C235.156 154.787 234.503 154.47 233.992 154.005C233.48 153.54 233.132 152.948 232.992 152.304C232.851 151.659 232.924 150.991 233.202 150.384C233.48 149.778 233.95 149.259 234.552 148.895C235.155 148.531 235.863 148.337 236.587 148.338C237.067 148.338 237.543 148.424 237.987 148.591C238.43 148.758 238.833 149.002 239.173 149.311C239.512 149.619 239.781 149.985 239.964 150.388C240.148 150.791 240.242 151.223 240.241 151.659Z" fill="#165DFC"/>
<path opacity="0.2" d="M237.759 150.808C238.228 149.461 238.734 148.933 238.416 148.767C237.81 148.456 237.119 148.308 236.423 148.34C235.728 148.373 235.057 148.585 234.49 148.952C233.922 149.319 233.482 149.825 233.221 150.41C232.959 150.996 232.888 151.637 233.014 152.259C233.14 152.88 233.459 153.456 233.934 153.919C234.408 154.382 235.018 154.712 235.692 154.871C236.366 155.03 237.076 155.011 237.739 154.816C238.402 154.622 238.989 154.26 239.433 153.773C238.325 154.061 237.119 152.557 237.759 150.808Z" fill="black"/>
<path d="M233.389 152.602C233.389 153.064 233.238 153.515 232.955 153.899C232.672 154.283 232.27 154.582 231.8 154.759C231.329 154.936 230.812 154.981 230.313 154.891C229.814 154.801 229.355 154.578 228.996 154.251C228.636 153.924 228.392 153.507 228.293 153.054C228.194 152.601 228.246 152.132 228.442 151.705C228.637 151.279 228.968 150.915 229.391 150.659C229.815 150.403 230.313 150.267 230.822 150.268C231.16 150.268 231.494 150.328 231.806 150.445C232.117 150.563 232.401 150.735 232.639 150.952C232.878 151.168 233.067 151.426 233.195 151.709C233.324 151.992 233.39 152.296 233.389 152.602Z" fill="#165DFC"/>
<path opacity="0.2" d="M230.824 150.268C230.283 150.266 229.755 150.42 229.317 150.707C229.252 152.133 230.582 153.52 230.21 153.989C229.839 154.458 228.919 154.17 228.596 153.774C228.823 154.126 229.148 154.418 229.539 154.62C229.929 154.822 230.371 154.928 230.821 154.926C231.271 154.925 231.712 154.816 232.101 154.611C232.489 154.406 232.812 154.112 233.036 153.758C233.26 153.405 233.378 153.004 233.378 152.596C233.378 152.188 233.26 151.787 233.035 151.434C232.81 151.08 232.487 150.786 232.098 150.582C231.709 150.377 231.268 150.269 230.818 150.268H230.824Z" fill="black"/>
<path d="M234.036 154.365C236.643 154.365 238.756 152.447 238.756 150.082C238.756 147.716 236.643 145.799 234.036 145.799C231.43 145.799 229.316 147.716 229.316 150.082C229.316 152.447 231.43 154.365 234.036 154.365Z" fill="#165DFC"/>
<path opacity="0.1" d="M238.626 151.063C238.446 151.754 238.079 152.394 237.558 152.925C237.037 153.455 236.379 153.859 235.643 154.101C234.907 154.343 234.116 154.414 233.342 154.309C232.567 154.204 231.834 153.926 231.208 153.499C230.582 153.073 230.083 152.512 229.756 151.866C229.429 151.221 229.284 150.512 229.334 149.803C229.384 149.094 229.629 148.408 230.045 147.806C230.46 147.204 231.035 146.705 231.716 146.355C231.317 146.569 230.955 146.834 230.64 147.142C230.407 148.056 230.513 149.015 230.939 149.87C231.366 150.724 232.091 151.428 233.002 151.872C233.913 152.317 234.96 152.477 235.981 152.328C237.003 152.179 237.941 151.729 238.653 151.049L238.626 151.063Z" fill="black"/>
<path d="M138.266 167.179L136.607 170.145L136.876 170.268L138.535 167.303L138.266 167.179Z" fill="#455A64"/>
<path d="M135.934 166.398L135.678 166.543L137.306 168.913L137.563 168.768L135.934 166.398Z" fill="#455A64"/>
<path d="M136.997 166.676V173.835C136.995 173.855 136.987 173.875 136.974 173.891C136.96 173.908 136.942 173.92 136.921 173.928C136.868 173.954 136.807 173.968 136.746 173.968C136.685 173.968 136.625 173.954 136.571 173.928C136.55 173.92 136.532 173.908 136.519 173.891C136.506 173.875 136.498 173.855 136.496 173.835V166.676H136.997Z" fill="#455A64"/>
<path d="M142.954 164.45C142.956 165.106 142.744 165.748 142.344 166.295C141.944 166.842 141.374 167.269 140.707 167.523C140.04 167.776 139.305 167.844 138.595 167.719C137.885 167.594 137.232 167.28 136.718 166.818C136.204 166.356 135.853 165.766 135.709 165.123C135.564 164.48 135.633 163.812 135.906 163.204C136.18 162.597 136.645 162.076 137.244 161.709C137.844 161.341 138.549 161.143 139.273 161.139C139.754 161.136 140.232 161.22 140.677 161.385C141.123 161.55 141.529 161.793 141.871 162.101C142.213 162.409 142.484 162.774 142.67 163.177C142.856 163.58 142.953 164.013 142.954 164.45Z" fill="#165DFC"/>
<path opacity="0.2" d="M140.442 163.605C140.916 162.257 141.416 161.73 141.099 161.564C140.493 161.251 139.801 161.103 139.105 161.135C138.409 161.168 137.738 161.379 137.17 161.746C136.603 162.113 136.162 162.619 135.901 163.205C135.639 163.791 135.567 164.433 135.694 165.054C135.82 165.676 136.14 166.252 136.614 166.715C137.089 167.178 137.7 167.508 138.375 167.666C139.049 167.825 139.759 167.805 140.422 167.61C141.085 167.415 141.673 167.052 142.116 166.564C141.034 166.852 139.813 165.353 140.442 163.605Z" fill="black"/>
<path d="M136.104 165.391C136.104 165.853 135.953 166.304 135.67 166.688C135.388 167.072 134.986 167.371 134.516 167.548C134.046 167.724 133.529 167.771 133.03 167.68C132.531 167.59 132.072 167.368 131.712 167.042C131.353 166.715 131.108 166.299 131.008 165.846C130.909 165.394 130.96 164.924 131.155 164.498C131.35 164.071 131.679 163.707 132.102 163.45C132.525 163.194 133.023 163.057 133.531 163.057C134.214 163.057 134.868 163.303 135.35 163.74C135.833 164.178 136.104 164.772 136.104 165.391Z" fill="#165DFC"/>
<path opacity="0.2" d="M133.531 163.057C132.992 163.057 132.467 163.211 132.029 163.496C131.959 164.922 133.294 166.314 132.917 166.778C132.541 167.242 131.626 166.959 131.303 166.563C131.529 166.917 131.855 167.211 132.246 167.415C132.638 167.619 133.081 167.726 133.533 167.725C133.984 167.724 134.427 167.616 134.818 167.41C135.208 167.205 135.532 166.91 135.757 166.555C135.982 166.2 136.101 165.797 136.1 165.388C136.099 164.978 135.98 164.576 135.754 164.221C135.528 163.867 135.203 163.573 134.811 163.368C134.42 163.164 133.977 163.056 133.525 163.057H133.531Z" fill="black"/>
<path d="M136.749 167.159C139.356 167.159 141.469 165.242 141.469 162.877C141.469 160.511 139.356 158.594 136.749 158.594C134.142 158.594 132.029 160.511 132.029 162.877C132.029 165.242 134.142 167.159 136.749 167.159Z" fill="#165DFC"/>
<path opacity="0.1" d="M141.341 163.853C141.163 164.547 140.797 165.19 140.277 165.723C139.756 166.257 139.097 166.664 138.359 166.908C137.622 167.152 136.829 167.225 136.052 167.12C135.275 167.016 134.539 166.737 133.911 166.31C133.283 165.883 132.783 165.32 132.455 164.672C132.127 164.025 131.982 163.314 132.034 162.603C132.085 161.892 132.331 161.204 132.75 160.601C133.168 159.998 133.746 159.5 134.43 159.15C134.022 159.36 133.65 159.623 133.327 159.932C133.245 160.252 133.204 160.58 133.203 160.908C133.205 161.764 133.489 162.6 134.02 163.308C134.55 164.016 135.303 164.563 136.18 164.879C137.057 165.194 138.018 165.264 138.939 165.078C139.86 164.893 140.698 164.461 141.346 163.839L141.341 163.853Z" fill="black"/>
<path d="M0 159.545V157.254L85.2577 112.57L133.354 137.784V140.074L48.0914 184.768L0 159.545Z" fill="#165DFC"/>
<path d="M0 157.254L48.0914 182.473L133.354 137.784L85.2577 112.57L0 157.254Z" fill="#165DFC"/>
<path d="M102.742 133.203L83.0664 143.512L102.764 153.821L122.418 143.444L102.742 133.203Z" fill="#F0F0F0"/>
<path opacity="0.15" d="M0 157.254L48.0914 182.472V184.768L0 159.544V157.254Z" fill="black"/>
<path opacity="0.1" d="M48.0918 182.472L133.355 137.783V140.074L48.0918 184.767V182.472Z" fill="black"/>
<path d="M66.7598 102.808L97.3658 86.7754L111.488 111.442L80.8815 127.479L66.7598 102.808Z" fill="#455A64"/>
<path opacity="0.5" d="M66.7598 102.808L97.3658 86.7754L111.488 111.442L80.8815 127.479L66.7598 102.808Z" fill="#37474F"/>
<path d="M80.8809 144.656L107.117 130.913V114.881L80.8809 128.623V144.656Z" fill="#F0F0F0"/>
<path d="M83.0664 143.512V129.77L102.742 119.461V133.203L83.0664 143.512Z" fill="#455A64"/>
<path opacity="0.5" d="M83.0664 143.512V129.77L102.742 119.461V133.203L83.0664 143.512Z" fill="#37474F"/>
<path d="M102.742 119.461L102.537 119.568V133.096L102.742 133.198V119.461Z" fill="#263238"/>
<path d="M102.532 133.096L83.0664 143.302V143.512L102.742 133.203L102.532 133.096Z" fill="#37474F"/>
<path d="M99.5621 110.774V103.351L94.853 100.885L90.1602 108.259V115.706L99.5621 110.774Z" fill="#F0F0F0"/>
<path d="M94.8535 100.883L100.666 103.925L101.408 103.54L94.8535 100.102V100.883Z" fill="#263238"/>
<path d="M90.1596 115.705L85.4613 108.311L83.0664 104.531L90.1596 108.257V115.705Z" fill="#E0E0E0"/>
<path opacity="0.4" d="M100.666 103.926H99.5625V103.35L100.666 103.926Z" fill="black"/>
<path d="M89.041 110.015L94.8533 100.883V100.102L88.3145 110.396L89.041 110.015Z" fill="#165DFC"/>
<path d="M89.041 110.015L94.8533 100.883V100.102L88.3145 110.396L89.041 110.015Z" fill="#37474F"/>
<path d="M88.3142 110.397L94.853 100.102L88.0935 96.5566L81.5547 106.851L88.3142 110.397Z" fill="#165DFC"/>
<path d="M88.3142 110.397L94.853 100.102L88.0935 96.5566L81.5547 106.851L88.3142 110.397Z" fill="#263238"/>
<path d="M92.5117 107.066L97.21 104.6V109.522L92.5117 111.988V107.066Z" fill="#455A64"/>
<path d="M96.731 109.268V104.854L92.5117 107.066V111.48L96.731 109.268Z" fill="#E0E0E0"/>
<path d="M97.21 109.523L96.731 109.27L92.5117 111.482V111.99L97.21 109.523Z" fill="#37474F"/>
<path d="M111.487 111.441L80.8809 127.479V128.622L111.487 112.589V111.441Z" fill="#37474F"/>
<path d="M39.3459 138.932L26.2306 116.023L13.1152 125.19V157.255L39.3459 170.997V138.932Z" fill="#F0F0F0"/>
<path d="M21.8597 134.351L17.4844 132.061V138.927L21.8597 141.222V134.351Z" fill="#455A64"/>
<path d="M17.834 138.745V132.24L21.8595 134.35V140.855L17.834 138.745Z" fill="#FAFAFA"/>
<path d="M17.834 132.24L21.8595 134.365V135.043L17.834 132.934V132.24Z" fill="#E0E0E0"/>
<path d="M17.4844 138.927L17.8342 138.746L21.8597 140.856V141.222L17.4844 138.927Z" fill="#37474F"/>
<path d="M21.8597 137.97L17.4844 135.68V135.309L21.8597 137.604V137.97Z" fill="#455A64"/>
<path d="M34.975 141.222L30.5996 138.932V145.803L34.975 148.093V141.222Z" fill="#455A64"/>
<path d="M30.9492 145.616V139.111L34.9748 141.221V147.726L30.9492 145.616Z" fill="#FAFAFA"/>
<path d="M30.9492 139.111L34.9748 141.221V141.9L30.9492 139.805V139.111Z" fill="#E0E0E0"/>
<path d="M30.5996 145.803L30.9494 145.617L34.975 147.727V148.093L30.5996 145.803Z" fill="#37474F"/>
<path d="M34.975 144.743L30.5996 142.467V142.096L34.975 144.371V144.743Z" fill="#455A64"/>
<path d="M21.8597 148.093L17.4844 145.803V152.674L21.8597 154.964V148.093Z" fill="#455A64"/>
<path d="M17.834 152.488V145.988L21.8595 148.093V154.598L17.834 152.488Z" fill="#FAFAFA"/>
<path d="M17.834 145.988L21.8595 148.108V148.791L17.834 146.682V145.988Z" fill="#E0E0E0"/>
<path d="M17.4844 152.674L17.8342 152.488L21.8597 154.598V154.964L17.4844 152.674Z" fill="#37474F"/>
<path d="M21.8597 151.716L17.4844 149.421V149.055L21.8597 151.345V151.716Z" fill="#455A64"/>
<path d="M34.975 154.964L30.5996 152.674V159.545L34.975 161.835V154.964Z" fill="#455A64"/>
<path d="M30.9492 159.364V152.859L34.9748 154.964V161.469L30.9492 159.364Z" fill="#FAFAFA"/>
<path d="M30.9492 152.859L34.9748 154.964V155.643L30.9492 153.553V152.859Z" fill="#E0E0E0"/>
<path d="M30.5996 159.544L30.9494 159.363L34.975 161.468V161.834L30.5996 159.544Z" fill="#37474F"/>
<path d="M34.975 158.486L30.5996 156.21V155.844L34.975 158.115V158.486Z" fill="#455A64"/>
<path d="M80.8821 149.24L39.3457 170.996V138.931L80.8821 117.17V149.24Z" fill="#FAFAFA"/>
<path d="M57.5625 160.296V148.839L64.1175 145.406V156.858L57.5625 160.296Z" fill="#37474F"/>
<path d="M63.913 156.716V145.514L57.5625 148.839V160.042L63.913 156.716Z" fill="#455A64"/>
<path d="M64.1186 145.406L63.9141 145.514V156.716L64.1186 156.858V145.406Z" fill="#263238"/>
<path d="M66.6738 142.619L76.5117 137.467V146.946L66.6738 152.103V142.619Z" fill="#263238"/>
<path d="M75.9035 146.627V137.783L66.6738 142.618V151.467L75.9035 146.627Z" fill="#E6E6E6"/>
<path d="M75.9035 137.783V139.844L66.6738 144.684V142.618L75.9035 137.783Z" fill="#E0E0E0"/>
<path d="M76.5117 146.944L75.9035 146.627L66.6738 151.467V152.101L76.5117 146.944Z" fill="#37474F"/>
<path d="M76.5117 142.209L75.9035 141.887L66.6738 146.726V147.361L76.5117 142.209Z" fill="#37474F"/>
<path d="M71.7976 149.415L71.1895 149.733V140.249L71.7976 139.932V149.415Z" fill="#37474F"/>
<path d="M43.7207 154.642L53.5532 149.49V158.974L43.7207 164.126V154.642Z" fill="#263238"/>
<path d="M52.9504 158.656V149.807L43.7207 154.641V163.49L52.9504 158.656Z" fill="#E6E6E6"/>
<path d="M52.9504 149.807V151.867L43.7207 156.707V154.641L52.9504 149.807Z" fill="#E0E0E0"/>
<path d="M53.5532 158.974L52.9504 158.656L43.7207 163.491V164.126L53.5532 158.974Z" fill="#37474F"/>
<path d="M53.5532 154.231L52.9504 153.914L43.7207 158.754V159.384L53.5532 154.231Z" fill="#37474F"/>
<path d="M48.8391 161.445L48.2363 161.762V152.278L48.8391 151.961V161.445Z" fill="#37474F"/>
<path d="M55.7168 132.334L65.5546 127.182V136.665L55.7168 141.818V132.334Z" fill="#263238"/>
<path d="M64.9519 136.347V127.498L55.7168 132.333V141.182L64.9519 136.347Z" fill="#E6E6E6"/>
<path d="M64.9519 127.498V128.406L55.7168 133.241V132.333L64.9519 127.498Z" fill="#E0E0E0"/>
<path d="M65.5546 136.665L64.9519 136.348L55.7168 141.182V141.817L65.5546 136.665Z" fill="#37474F"/>
<path d="M65.5546 131.923L64.9519 131.605L55.7168 136.445V137.075L65.5546 131.923Z" fill="#37474F"/>
<path d="M60.841 139.136L60.2383 139.454V129.97L60.841 129.652V139.136Z" fill="#37474F"/>
<path d="M45.9062 140.7L50.0179 138.561V144.054L45.9062 146.193V140.7Z" fill="#455A64"/>
<path d="M49.6681 143.873V138.74L45.9062 140.699V145.826L49.6681 143.873Z" fill="#E0E0E0"/>
<path d="M50.0179 144.054L49.6681 143.873L45.9062 145.826V146.193L50.0179 144.054Z" fill="#37474F"/>
<path d="M45.9062 143.443L50.0179 141.304V140.938L45.9062 143.076V143.443Z" fill="#455A64"/>
<path d="M70.2148 127.948L74.3211 125.809V131.307L70.2148 133.446V127.948Z" fill="#455A64"/>
<path d="M73.9713 131.122V125.994L70.2148 127.948V133.075L73.9713 131.122Z" fill="#E0E0E0"/>
<path d="M74.3211 131.309L73.9713 131.123L70.2148 133.076V133.448L74.3211 131.309Z" fill="#37474F"/>
<path d="M70.2148 130.698L74.3211 128.559V128.188L70.2148 130.326V130.698Z" fill="#455A64"/>
<path d="M24.0449 118.543L38.2043 143.191L83.0666 119.691L68.9449 95.0195L24.0449 118.543Z" fill="#455A64"/>
<path d="M24.0449 117.17L38.2043 141.817L83.0666 118.313L68.9449 93.6465L24.0449 117.17Z" fill="#455A64"/>
<path d="M24.0449 117.17V118.542L38.2043 143.189V141.817L24.0449 117.17Z" fill="#263238"/>
<path d="M38.2051 141.817L83.0674 118.312V119.69L38.2051 143.189V141.817Z" fill="#37474F"/>
<path d="M10.9297 127.709L24.045 118.542V117.17L10.9297 126.331V127.709Z" fill="#263238"/>
<path d="M24.045 118.543L10.9297 127.709L13.1147 126.488L24.045 118.856L24.1742 118.768L24.045 118.543Z" fill="black"/>
<path d="M49.3984 137.325L71.2591 125.874L60.3288 122.436L49.3984 137.325Z" fill="#FAFAFA"/>
<path d="M49.3987 135.948L42.8438 111.896L60.3291 121.063L49.3987 135.948Z" fill="#263238"/>
<path d="M60.3288 122.435V121.062L49.3984 135.947V137.325L60.3288 122.435Z" fill="#37474F"/>
<path d="M71.2585 125.873V124.496L60.3281 121.062V122.435L71.2585 125.873Z" fill="#263238"/>
<path d="M71.2594 124.496L42.8438 111.896L60.3291 121.063L71.2594 124.496Z" fill="#37474F"/>
<path d="M39.3457 169.853L48.0911 174.433L89.6274 152.673L80.8821 148.092L39.3457 169.853Z" fill="#E6E6E6"/>
<path d="M39.3457 169.854V170.996L48.0911 175.582V174.434L39.3457 169.854Z" fill="#F0F0F0"/>
<path d="M89.6262 152.674V153.821L48.0898 175.582V174.435L89.6262 152.674Z" fill="#FAFAFA"/>
<path d="M48.6938 155.697V172.829C48.6889 172.877 48.6698 172.923 48.6386 172.963C48.6074 173.002 48.5651 173.034 48.5162 173.053C48.3843 173.113 48.2387 173.145 48.091 173.145C47.9434 173.145 47.7978 173.113 47.6659 173.053C47.617 173.034 47.5747 173.002 47.5435 172.963C47.5123 172.923 47.4932 172.877 47.4883 172.829V155.697H48.6938Z" fill="#37474F"/>
<path d="M87.4418 135.406V152.542C87.4365 152.59 87.4173 152.636 87.386 152.674C87.3548 152.713 87.3128 152.743 87.2642 152.762C87.1323 152.822 86.9867 152.854 86.8391 152.854C86.6915 152.854 86.5459 152.822 86.4139 152.762C86.3654 152.743 86.3234 152.713 86.2921 152.674C86.2609 152.636 86.2416 152.59 86.2363 152.542V135.406H87.4418Z" fill="#37474F"/>
<path d="M39.3457 152.673L48.0911 157.254L89.6274 135.493L80.8821 130.912L39.3457 152.673Z" fill="#455A64"/>
<path d="M39.3457 152.674V153.821L48.0911 158.402V157.255L39.3457 152.674Z" fill="#37474F"/>
<path d="M89.6262 135.494V136.642L48.0898 158.403V157.255L89.6262 135.494Z" fill="#263238"/>
<path d="M128.102 129.837L126.443 132.803L126.712 132.927L128.371 129.961L128.102 129.837Z" fill="#455A64"/>
<path d="M125.037 129.602L124.781 129.746L126.399 132.117L126.655 131.973L125.037 129.602Z" fill="#455A64"/>
<path d="M126.833 129.334V136.483C126.83 136.504 126.822 136.523 126.809 136.539C126.796 136.556 126.778 136.568 126.757 136.576C126.703 136.603 126.642 136.617 126.58 136.617C126.518 136.617 126.457 136.603 126.402 136.576C126.382 136.568 126.365 136.555 126.353 136.539C126.34 136.522 126.333 136.503 126.332 136.483V129.334H126.833Z" fill="#455A64"/>
<path d="M132.817 127.112C132.817 127.769 132.603 128.411 132.2 128.957C131.798 129.503 131.227 129.928 130.558 130.18C129.889 130.431 129.154 130.497 128.444 130.369C127.734 130.241 127.082 129.924 126.57 129.46C126.058 128.996 125.71 128.404 125.568 127.76C125.427 127.115 125.5 126.448 125.777 125.841C126.054 125.234 126.523 124.716 127.124 124.351C127.726 123.986 128.434 123.791 129.158 123.791C130.128 123.791 131.059 124.141 131.745 124.764C132.432 125.386 132.817 126.231 132.817 127.112Z" fill="#165DFC"/>
<path opacity="0.2" d="M130.276 126.263C130.75 124.915 131.25 124.388 130.933 124.222C130.327 123.91 129.635 123.761 128.939 123.793C128.243 123.826 127.572 124.038 127.004 124.404C126.437 124.771 125.996 125.277 125.735 125.863C125.473 126.449 125.401 127.091 125.528 127.713C125.654 128.334 125.974 128.91 126.448 129.373C126.923 129.836 127.534 130.166 128.209 130.324C128.883 130.483 129.593 130.464 130.256 130.268C130.919 130.073 131.507 129.71 131.95 129.223C130.868 129.511 129.663 128.011 130.276 126.263Z" fill="black"/>
<path d="M125.94 128.049C125.94 128.511 125.789 128.962 125.506 129.346C125.224 129.73 124.822 130.029 124.352 130.206C123.882 130.382 123.365 130.429 122.866 130.339C122.367 130.249 121.908 130.026 121.548 129.7C121.189 129.373 120.944 128.957 120.844 128.505C120.745 128.052 120.796 127.582 120.991 127.156C121.185 126.729 121.515 126.365 121.938 126.108C122.361 125.852 122.859 125.715 123.367 125.715C124.05 125.715 124.704 125.961 125.186 126.399C125.669 126.836 125.94 127.43 125.94 128.049Z" fill="#165DFC"/>
<path opacity="0.2" d="M123.367 125.715C122.828 125.715 122.303 125.869 121.865 126.154C121.795 127.58 123.13 128.972 122.753 129.441C122.376 129.91 121.462 129.617 121.139 129.221C121.365 129.575 121.691 129.869 122.082 130.073C122.474 130.277 122.917 130.384 123.369 130.383C123.82 130.383 124.263 130.274 124.654 130.069C125.044 129.863 125.368 129.568 125.593 129.213C125.818 128.858 125.936 128.455 125.936 128.046C125.935 127.636 125.816 127.234 125.59 126.88C125.363 126.525 125.039 126.231 124.647 126.026C124.256 125.822 123.813 125.715 123.361 125.715H123.367Z" fill="black"/>
<path d="M126.579 129.818C129.186 129.818 131.299 127.9 131.299 125.535C131.299 123.169 129.186 121.252 126.579 121.252C123.973 121.252 121.859 123.169 121.859 125.535C121.859 127.9 123.973 129.818 126.579 129.818Z" fill="#165DFC"/>
<path opacity="0.1" d="M131.203 126.511C131.025 127.205 130.659 127.847 130.138 128.38C129.618 128.913 128.959 129.319 128.222 129.563C127.484 129.807 126.692 129.88 125.916 129.775C125.139 129.671 124.404 129.393 123.776 128.966C123.148 128.539 122.647 127.977 122.319 127.33C121.991 126.683 121.846 125.972 121.897 125.262C121.947 124.551 122.193 123.863 122.61 123.26C123.027 122.657 123.604 122.158 124.287 121.809C123.878 122.018 123.506 122.284 123.184 122.595C122.95 123.51 123.054 124.47 123.481 125.327C123.908 126.183 124.633 126.888 125.546 127.333C126.459 127.777 127.507 127.937 128.53 127.787C129.552 127.637 130.492 127.185 131.203 126.502V126.511Z" fill="black"/>
<path d="M9.6099 148.997L7.95117 151.963L8.21992 152.087L9.87865 149.121L9.6099 148.997Z" fill="#455A64"/>
<path d="M7.22688 148.654L6.9707 148.799L8.59938 151.169L8.85555 151.024L7.22688 148.654Z" fill="#455A64"/>
<path d="M8.33206 148.492V155.642C8.32991 155.662 8.32177 155.681 8.3085 155.697C8.29523 155.714 8.27734 155.727 8.25671 155.734C8.20207 155.761 8.14107 155.775 8.07911 155.775C8.01716 155.775 7.95616 155.761 7.90152 155.734C7.88089 155.727 7.863 155.714 7.84973 155.697C7.83646 155.681 7.82832 155.662 7.82617 155.642V148.492H8.33206Z" fill="#455A64"/>
<path d="M14.284 146.27C14.284 146.927 14.0694 147.569 13.6673 148.115C13.2652 148.661 12.6936 149.087 12.0249 149.338C11.3562 149.589 10.6204 149.655 9.91049 149.527C9.2006 149.399 8.54852 149.083 8.03672 148.618C7.52491 148.154 7.17637 147.562 7.03516 146.918C6.89396 146.274 6.96643 145.606 7.24342 144.999C7.5204 144.392 7.98946 143.874 8.59128 143.509C9.1931 143.144 9.90064 142.949 10.6244 142.949C11.595 142.949 12.5259 143.299 13.2122 143.922C13.8985 144.545 14.284 145.389 14.284 146.27Z" fill="#165DFC"/>
<path opacity="0.2" d="M11.7756 145.42C12.2438 144.072 12.7497 143.545 12.4268 143.379C11.9384 143.128 11.3932 142.983 10.8331 142.955C10.2731 142.926 9.71326 143.014 9.19689 143.213C8.68051 143.412 8.22142 143.716 7.85507 144.101C7.48872 144.487 7.22493 144.943 7.08407 145.436C6.9432 145.929 6.92904 146.444 7.04267 146.943C7.15631 147.441 7.3947 147.909 7.73943 148.311C8.08415 148.712 8.52599 149.037 9.03081 149.259C9.53562 149.48 10.0899 149.594 10.6508 149.591C11.1905 149.591 11.7236 149.482 12.2119 149.274C12.7003 149.065 13.132 148.762 13.4763 148.384C12.3622 148.668 11.189 147.168 11.7756 145.42Z" fill="black"/>
<path d="M7.4223 147.207C7.4223 147.669 7.27143 148.12 6.98876 148.504C6.70609 148.888 6.30433 149.187 5.83427 149.364C5.36421 149.541 4.84697 149.587 4.34796 149.497C3.84895 149.407 3.39057 149.184 3.03081 148.858C2.67104 148.532 2.42603 148.116 2.32677 147.663C2.22751 147.21 2.27846 146.741 2.47316 146.314C2.66787 145.888 2.99759 145.523 3.42063 145.266C3.84367 145.01 4.34104 144.873 4.84982 144.873C5.53209 144.873 6.18641 145.119 6.66884 145.557C7.15127 145.995 7.4223 146.588 7.4223 147.207Z" fill="#165DFC"/>
<path opacity="0.2" d="M4.86134 144.873C4.32169 144.874 3.79609 145.029 3.35983 145.317C3.28986 146.743 4.62454 148.13 4.2532 148.599C3.88186 149.068 2.96158 148.78 2.63867 148.384C2.86617 148.738 3.19216 149.031 3.58393 149.234C3.97569 149.437 4.41945 149.543 4.87066 149.542C5.32188 149.54 5.76468 149.431 6.15462 149.225C6.54456 149.019 6.86792 148.723 7.09226 148.368C7.31659 148.013 7.43401 147.61 7.43272 147.201C7.43143 146.791 7.31148 146.389 7.08491 146.035C6.85834 145.681 6.53312 145.387 6.14188 145.183C5.75065 144.979 5.30717 144.872 4.85595 144.873H4.86134Z" fill="black"/>
<path d="M8.07917 148.976C10.6858 148.976 12.799 147.058 12.799 144.693C12.799 142.328 10.6858 140.41 8.07917 140.41C5.4725 140.41 3.35938 142.328 3.35938 144.693C3.35938 147.058 5.4725 148.976 8.07917 148.976Z" fill="#165DFC"/>
<path opacity="0.1" d="M12.6687 145.67C12.4909 146.364 12.1252 147.006 11.6047 147.54C11.0841 148.073 10.4251 148.48 9.68745 148.724C8.94977 148.968 8.15667 149.041 7.37999 148.937C6.60332 148.832 5.8676 148.554 5.23948 148.126C4.61136 147.699 4.11069 147.136 3.78281 146.489C3.45493 145.841 3.31021 145.13 3.36174 144.419C3.41328 143.708 3.65944 143.02 4.07794 142.417C4.49645 141.814 5.07407 141.316 5.75848 140.967C5.34847 141.178 4.97493 141.443 4.64984 141.753C4.41522 142.669 4.51941 143.629 4.9463 144.485C5.37319 145.341 6.09901 146.046 7.01161 146.491C7.92422 146.936 8.97279 147.095 9.99529 146.945C11.0178 146.795 11.9573 146.343 12.6687 145.66V145.67Z" fill="black"/>
<path d="M108.384 131.039L109.32 130.55C109.576 129.179 109.613 127.78 109.428 126.399C108.96 123.699 106.936 122.766 106.199 123.035C105.461 123.303 105.289 124.104 106.619 125.662C107.824 127.237 108.442 129.121 108.384 131.039Z" fill="#165DFC"/>
<g opacity="0.2">
<path d="M108.384 131.039L109.32 130.55C109.576 129.179 109.613 127.78 109.428 126.399C108.96 123.699 106.936 122.766 106.199 123.035C105.461 123.303 105.289 124.104 106.619 125.662C107.824 127.237 108.442 129.121 108.384 131.039Z" fill="black"/>
</g>
<path d="M108.723 129.969C108.714 129.968 108.706 129.965 108.699 129.961C108.691 129.957 108.685 129.951 108.68 129.945C108.675 129.939 108.671 129.931 108.67 129.924C108.668 129.916 108.667 129.908 108.669 129.9C109.051 127.371 107.932 124.602 106.672 123.488C106.662 123.476 106.656 123.46 106.656 123.444C106.656 123.429 106.662 123.413 106.672 123.4C106.685 123.389 106.703 123.383 106.721 123.383C106.739 123.383 106.756 123.389 106.769 123.4C108.05 124.538 109.191 127.351 108.798 129.915C108.798 129.923 108.795 129.931 108.791 129.938C108.787 129.946 108.781 129.952 108.774 129.957C108.767 129.962 108.758 129.966 108.75 129.968C108.741 129.97 108.732 129.97 108.723 129.969Z" fill="white"/>
<path d="M105.801 132.397C105.655 132.47 105.354 132.304 105.236 132.235C105.036 132.112 104.875 131.943 104.767 131.747C104.647 131.525 104.607 131.273 104.654 131.029C104.676 130.9 104.709 130.773 104.751 130.648L104.87 130.277C104.916 130.158 104.936 130.032 104.929 129.906C104.849 129.659 104.668 129.449 104.423 129.32C104.278 129.252 104.153 129.153 104.059 129.031C103.965 128.909 103.906 128.769 103.885 128.622C103.905 128.386 104.009 128.164 104.181 127.987C104.342 127.801 104.536 127.64 104.681 127.445C104.796 127.304 104.855 127.132 104.848 126.956C104.833 126.851 104.794 126.75 104.735 126.658C104.6 126.47 104.481 126.273 104.38 126.068C104.328 125.963 104.312 125.848 104.332 125.735C104.352 125.622 104.408 125.517 104.493 125.433C104.575 125.378 104.668 125.338 104.767 125.316C104.866 125.295 104.968 125.291 105.069 125.306C105.26 125.326 105.443 125.385 105.607 125.477C106.145 125.745 106.446 126.317 107.012 126.527C107.236 126.59 107.464 126.64 107.695 126.678C107.806 126.701 107.911 126.744 108.003 126.805C108.096 126.865 108.174 126.941 108.233 127.03C108.438 127.406 108.056 127.87 108.201 128.27C108.346 128.67 108.707 128.758 108.922 129.076C109.007 129.217 109.041 129.38 109.019 129.54C109.002 129.81 108.929 130.075 108.804 130.321C108.666 130.566 108.508 130.802 108.33 131.024C108.33 131.024 105.828 132.382 105.801 132.397Z" fill="#165DFC"/>
<g opacity="0.1">
<path d="M105.801 132.397C105.655 132.47 105.354 132.304 105.236 132.235C105.036 132.112 104.875 131.943 104.767 131.747C104.647 131.525 104.607 131.273 104.654 131.029C104.676 130.9 104.709 130.773 104.751 130.648L104.87 130.277C104.916 130.158 104.936 130.032 104.929 129.906C104.849 129.659 104.668 129.449 104.423 129.32C104.278 129.252 104.153 129.153 104.059 129.031C103.965 128.909 103.906 128.769 103.885 128.622C103.905 128.386 104.009 128.164 104.181 127.987C104.342 127.801 104.536 127.64 104.681 127.445C104.796 127.304 104.855 127.132 104.848 126.956C104.833 126.851 104.794 126.75 104.735 126.658C104.6 126.47 104.481 126.273 104.38 126.068C104.328 125.963 104.312 125.848 104.332 125.735C104.352 125.622 104.408 125.517 104.493 125.433C104.575 125.378 104.668 125.338 104.767 125.316C104.866 125.295 104.968 125.291 105.069 125.306C105.26 125.326 105.443 125.385 105.607 125.477C106.145 125.745 106.446 126.317 107.012 126.527C107.236 126.59 107.464 126.64 107.695 126.678C107.806 126.701 107.911 126.744 108.003 126.805C108.096 126.865 108.174 126.941 108.233 127.03C108.438 127.406 108.056 127.87 108.201 128.27C108.346 128.67 108.707 128.758 108.922 129.076C109.007 129.217 109.041 129.38 109.019 129.54C109.002 129.81 108.929 130.075 108.804 130.321C108.666 130.566 108.508 130.802 108.33 131.024C108.33 131.024 105.828 132.382 105.801 132.397Z" fill="black"/>
</g>
<path d="M107.313 131.663C107.304 131.663 107.295 131.662 107.287 131.658C107.279 131.655 107.272 131.65 107.266 131.644C107.259 131.639 107.255 131.631 107.252 131.624C107.249 131.616 107.248 131.608 107.249 131.6C107.356 129.207 106.113 126.57 105.214 125.798C105.208 125.793 105.204 125.786 105.2 125.779C105.197 125.772 105.195 125.764 105.195 125.757C105.195 125.749 105.197 125.741 105.2 125.734C105.204 125.727 105.208 125.721 105.214 125.715C105.228 125.705 105.245 125.699 105.263 125.699C105.28 125.699 105.298 125.705 105.311 125.715C106.231 126.501 107.496 129.183 107.389 131.61C107.386 131.626 107.377 131.64 107.363 131.65C107.349 131.66 107.331 131.665 107.313 131.663Z" fill="white"/>
<path d="M106.921 128.837C106.297 128.682 105.656 128.587 105.01 128.554C105.002 128.554 104.993 128.552 104.986 128.549C104.978 128.546 104.971 128.542 104.965 128.537C104.959 128.531 104.954 128.525 104.951 128.518C104.947 128.51 104.946 128.503 104.946 128.495C104.945 128.487 104.946 128.478 104.949 128.47C104.952 128.463 104.958 128.455 104.964 128.45C104.971 128.444 104.979 128.44 104.988 128.438C104.997 128.435 105.007 128.435 105.016 128.437C105.673 128.467 106.324 128.562 106.958 128.72C106.976 128.724 106.991 128.735 107 128.75C107.01 128.764 107.012 128.782 107.007 128.798C107.001 128.813 106.988 128.826 106.972 128.833C106.956 128.84 106.938 128.842 106.921 128.837Z" fill="white"/>
<path d="M126.967 79.1296V76.8392L183.798 47.0645L229.715 71.1158V73.4061L172.873 103.181L126.967 79.1296Z" fill="#165DFC"/>
<path d="M126.967 76.8392L172.873 100.891L229.715 71.1158L183.798 47.0645L126.967 76.8392Z" fill="#165DFC"/>
<path opacity="0.15" d="M126.967 76.8398L172.873 100.891V103.182L126.967 79.1302V76.8398Z" fill="black"/>
<path opacity="0.1" d="M172.873 100.89L229.715 71.1152V73.4056L172.873 103.18V100.89Z" fill="black"/>
<path d="M166.312 58.515L153.197 35.6113L140.082 44.7728L140.076 76.8282L166.312 90.5704V58.515Z" fill="#EBEBEB"/>
<path d="M148.821 53.9349L144.451 51.6445V58.5156L148.821 60.806V53.9349Z" fill="#455A64"/>
<path d="M144.801 58.3291V51.8242L148.821 53.9339V60.4387L144.801 58.3291Z" fill="#FAFAFA"/>
<path d="M144.801 51.8242L148.821 53.9485V54.6322L144.801 52.5226V51.8242Z" fill="#E0E0E0"/>
<path d="M144.451 58.5157L144.801 58.3301L148.821 60.4398V60.806L144.451 58.5157Z" fill="#37474F"/>
<path d="M148.821 57.559L144.451 55.2637V54.8926L148.821 57.1878V57.559Z" fill="#455A64"/>
<path d="M161.942 60.806L157.566 58.5156V65.3867L161.942 67.6771V60.806Z" fill="#455A64"/>
<path d="M157.916 65.206V58.7012L161.942 60.806V67.3108L157.916 65.206Z" fill="#FAFAFA"/>
<path d="M157.916 58.7012L161.942 60.806V61.4848L157.916 59.3946V58.7012Z" fill="#E0E0E0"/>
<path d="M157.566 65.3858L157.916 65.2051L161.942 67.3099V67.6761L157.566 65.3858Z" fill="#37474F"/>
<path d="M161.942 64.3266L157.566 62.0508V61.6797L161.942 63.9554V64.3266Z" fill="#455A64"/>
<path d="M148.821 67.682L144.451 65.3867V72.2578L148.821 74.5482V67.682Z" fill="#455A64"/>
<path d="M144.801 72.0722V65.5723L148.821 67.6819V74.1819L144.801 72.0722Z" fill="#FAFAFA"/>
<path d="M144.801 65.5723L148.821 67.6966V68.3754L144.801 66.2657V65.5723Z" fill="#E0E0E0"/>
<path d="M144.451 72.2578L144.801 72.0723L148.821 74.1819V74.5482L144.451 72.2578Z" fill="#37474F"/>
<path d="M148.821 71.3002L144.451 69.0049V68.6387L148.821 70.929V71.3002Z" fill="#455A64"/>
<path d="M161.942 74.5482L157.566 72.2578V79.1289L161.942 81.4193V74.5482Z" fill="#455A64"/>
<path d="M157.916 78.9482V72.4434L161.942 74.5482V81.053L157.916 78.9482Z" fill="#FAFAFA"/>
<path d="M157.916 72.4434L161.942 74.5482V75.2318L157.916 73.1368V72.4434Z" fill="#E0E0E0"/>
<path d="M157.566 79.128L157.916 78.9473L161.942 81.0521V81.4183L157.566 79.128Z" fill="#37474F"/>
<path d="M161.942 78.0697L157.566 75.794V75.4277L161.942 77.7034V78.0697Z" fill="#455A64"/>
<path d="M207.849 68.8093L166.312 90.5702V58.5148L207.849 36.7539V68.8093Z" fill="#FAFAFA"/>
<path d="M166.312 64.3262L207.849 42.4823V36.7539L166.312 58.5148V64.3262Z" fill="#F0F0F0"/>
<path d="M171.773 75.6023L181.611 70.4453V77.9757L171.773 83.1278V75.6023Z" fill="#263238"/>
<path d="M181.009 77.6592V70.7637L171.773 75.6032V82.4939L181.009 77.6592Z" fill="#E6E6E6"/>
<path d="M181.009 70.7637V72.3996L171.773 77.2343V75.6032L181.009 70.7637Z" fill="#E0E0E0"/>
<path d="M181.611 77.9756L181.009 77.6582L171.773 82.4929V83.1277L181.611 77.9756Z" fill="#37474F"/>
<path d="M181.611 74.21L181.009 73.8926L171.773 78.7321V79.367L181.611 74.21Z" fill="#37474F"/>
<path d="M176.898 80.4464L176.295 80.7638V73.2334L176.898 72.916V80.4464Z" fill="#37474F"/>
<path d="M171.773 64.1267L181.611 58.9746V66.5001L171.773 71.6571V64.1267Z" fill="#263238"/>
<path d="M181.009 66.1817V59.291L171.773 64.1257V71.0212L181.009 66.1817Z" fill="#E6E6E6"/>
<path d="M181.009 59.291V60.9221L171.773 65.7617V64.1257L181.009 59.291Z" fill="#E0E0E0"/>
<path d="M181.611 66.4991L181.009 66.1816L171.773 71.0212V71.6561L181.611 66.4991Z" fill="#37474F"/>
<path d="M181.611 62.7393L181.009 62.4219L171.773 67.2565V67.8914L181.611 62.7393Z" fill="#37474F"/>
<path d="M176.898 68.9708L176.295 69.2882V61.7579L176.898 61.4453V68.9708Z" fill="#37474F"/>
<path d="M151.012 38.1274L165.171 62.7794L210.033 39.275L195.912 14.6035L151.012 38.1274Z" fill="#455A64"/>
<path d="M151.012 36.7544L165.171 61.4063L210.033 37.902L195.912 13.2305L151.012 36.7544Z" fill="#455A64"/>
<path d="M151.012 36.7539V38.1262L165.171 62.7781V61.4059L151.012 36.7539Z" fill="#263238"/>
<path d="M165.17 61.4067L210.032 37.9023V39.2746L165.17 62.779V61.4067Z" fill="#37474F"/>
<path d="M137.891 47.2925L151.011 38.1262V36.7539L137.891 45.9154V47.2925Z" fill="#263238"/>
<path d="M151.011 38.127L137.891 47.2933L140.076 46.0724L151.011 38.4395L151.135 38.3516L151.011 38.127Z" fill="black"/>
<path d="M188.172 79.1183L194.732 82.5514V61.0396L188.172 57.6016V79.1183Z" fill="#E0E0E0"/>
<path d="M194.732 82.5517L216.593 71.0999V48.9043L194.732 60.3561V82.5517Z" fill="#FAFAFA"/>
<path d="M194.732 61.0695L216.593 49.8276L205.663 46.3945L194.732 61.0695Z" fill="#FAFAFA"/>
<path d="M205.663 46.3947V45.0176L193.883 60.8402V62.2075L205.663 46.3947Z" fill="#263238"/>
<path d="M205.663 45.017L199.947 42.0234L188.172 57.846L193.882 60.8396L205.663 45.017Z" fill="#37474F"/>
<path d="M193.882 60.8393L188.172 57.8457V59.218L193.882 62.2067V60.8393Z" fill="#263238"/>
<path d="M218.777 50.5164V49.1393L205.662 45.0176V46.3947L218.777 50.5164Z" fill="#37474F"/>
<path d="M218.778 49.1387L209.236 44.9975L199.947 42.0234L205.663 45.017L218.778 49.1387Z" fill="#37474F"/>
<path d="M218.778 49.1387L209.236 44.9975L199.947 42.0234L205.663 45.017L218.778 49.1387Z" fill="#263238"/>
<path d="M198.322 80.6722V68.0386L204.883 64.6055V77.2342L198.322 80.6722Z" fill="#37474F"/>
<path d="M204.673 77.0926V64.7129L198.322 68.0386V80.4232L204.673 77.0926Z" fill="#455A64"/>
<path d="M204.882 64.6055L204.672 64.7129V77.0926L204.882 77.2342V64.6055Z" fill="#263238"/>
<path d="M209.516 63.3597L213.622 61.2207V66.7195L209.516 68.8585V63.3597Z" fill="#455A64"/>
<path d="M213.272 66.5339V61.4062L209.516 63.3597V68.4922L213.272 66.5339Z" fill="#E0E0E0"/>
<path d="M213.622 66.7188L213.272 66.5332L209.516 68.4915V68.8578L213.622 66.7188Z" fill="#37474F"/>
<path d="M209.516 66.1088L213.622 63.9698V63.6035L209.516 65.7425V66.1088Z" fill="#455A64"/>
<path d="M200.744 55.8533L210.582 50.7012V58.2267L200.744 63.3788V55.8533Z" fill="#263238"/>
<path d="M209.974 57.9092V51.0137L200.744 55.8532V62.7488L209.974 57.9092Z" fill="#E6E6E6"/>
<path d="M209.974 51.0137V52.6497L200.744 57.4892V55.8532L209.974 51.0137Z" fill="#E0E0E0"/>
<path d="M210.582 58.2276L209.974 57.9102L200.744 62.7497V63.3797L210.582 58.2276Z" fill="#37474F"/>
<path d="M210.582 54.462L209.974 54.1445L200.744 58.9841V59.6189L210.582 54.462Z" fill="#37474F"/>
<path d="M205.868 60.6983L205.26 61.0158V53.4854L205.868 53.168V60.6983Z" fill="#37474F"/>
<path d="M198.307 80.6616L204.867 77.2285L211.454 80.6616L204.867 84.1143L198.307 80.6616Z" fill="#F0F0F0"/>
<path d="M163.11 90.0933L162.179 89.6049C161.922 88.2333 161.884 86.8354 162.066 85.4539C162.534 82.7534 164.557 81.8206 165.295 82.0892C166.032 82.3578 166.204 83.1587 164.875 84.7165C163.67 86.2922 163.051 88.1761 163.11 90.0933Z" fill="#165DFC"/>
<g opacity="0.2">
<path d="M163.11 90.0933L162.179 89.6049C161.922 88.2333 161.884 86.8354 162.066 85.4539C162.534 82.7534 164.557 81.8206 165.295 82.0892C166.032 82.3578 166.204 83.1587 164.875 84.7165C163.67 86.2922 163.051 88.1761 163.11 90.0933Z" fill="black"/>
</g>
<path d="M162.771 89.0235C162.788 89.02 162.802 89.0111 162.812 88.9986C162.822 88.986 162.827 88.9705 162.825 88.9551C162.443 86.4255 163.562 83.6565 164.822 82.5431C164.832 82.5304 164.838 82.515 164.838 82.4991C164.838 82.4833 164.832 82.4679 164.822 82.4552C164.809 82.4438 164.791 82.4375 164.773 82.4375C164.755 82.4375 164.738 82.4438 164.725 82.4552C163.444 83.593 162.303 86.4059 162.696 88.9698C162.699 88.9858 162.708 89.0002 162.722 89.0102C162.736 89.0202 162.753 89.0249 162.771 89.0235Z" fill="white"/>
<path d="M165.694 91.4503C165.839 91.5235 166.141 91.3575 166.259 91.2843C166.46 91.1621 166.622 90.9935 166.727 90.7959C166.847 90.5732 166.888 90.3227 166.846 90.078C166.82 89.9493 166.786 89.8221 166.743 89.6971L166.625 89.326C166.579 89.2355 166.554 89.1373 166.552 89.0377C166.55 88.938 166.571 88.8391 166.614 88.7473C166.656 88.6554 166.719 88.5725 166.799 88.504C166.879 88.4355 166.974 88.3828 167.077 88.3493C167.215 88.2766 167.333 88.1756 167.421 88.0544C167.509 87.9331 167.564 87.795 167.583 87.6509C167.564 87.4155 167.46 87.1924 167.287 87.0161C167.125 86.8305 166.932 86.6644 166.786 86.474C166.671 86.3331 166.612 86.1609 166.619 85.9856C166.635 85.8805 166.673 85.7793 166.732 85.6877C166.869 85.4983 166.987 85.299 167.088 85.092C167.139 84.9884 167.155 84.8736 167.135 84.7616C167.115 84.6497 167.059 84.5455 166.975 84.462C166.893 84.4071 166.8 84.3676 166.701 84.3458C166.602 84.324 166.499 84.3203 166.399 84.335C166.208 84.3557 166.024 84.414 165.861 84.5059C165.322 84.7745 165.026 85.3459 164.456 85.5559C164.241 85.634 163.999 85.6487 163.773 85.7073C163.661 85.7294 163.556 85.772 163.463 85.8325C163.371 85.8929 163.293 85.97 163.234 86.0589C163.03 86.4349 163.412 86.8988 163.267 87.2944C163.121 87.69 162.761 87.7828 162.545 88.1051C162.459 88.2463 162.425 88.4089 162.449 88.569C162.466 88.8394 162.539 89.1045 162.664 89.3504C162.801 89.5957 162.959 89.8309 163.137 90.0536C163.137 90.0536 165.672 91.4356 165.694 91.4503Z" fill="#165DFC"/>
<g opacity="0.1">
<path d="M165.694 91.4503C165.839 91.5235 166.141 91.3575 166.259 91.2843C166.46 91.1621 166.622 90.9935 166.727 90.7959C166.847 90.5732 166.888 90.3227 166.846 90.078C166.82 89.9493 166.786 89.8221 166.743 89.6971L166.625 89.326C166.579 89.2355 166.554 89.1373 166.552 89.0377C166.55 88.938 166.571 88.8391 166.614 88.7473C166.656 88.6554 166.719 88.5725 166.799 88.504C166.879 88.4355 166.974 88.3828 167.077 88.3493C167.215 88.2766 167.333 88.1756 167.421 88.0544C167.509 87.9331 167.564 87.795 167.583 87.6509C167.564 87.4155 167.46 87.1924 167.287 87.0161C167.125 86.8305 166.932 86.6644 166.786 86.474C166.671 86.3331 166.612 86.1609 166.619 85.9856C166.635 85.8805 166.673 85.7793 166.732 85.6877C166.869 85.4983 166.987 85.299 167.088 85.092C167.139 84.9884 167.155 84.8736 167.135 84.7616C167.115 84.6497 167.059 84.5455 166.975 84.462C166.893 84.4071 166.8 84.3676 166.701 84.3458C166.602 84.324 166.499 84.3203 166.399 84.335C166.208 84.3557 166.024 84.414 165.861 84.5059C165.322 84.7745 165.026 85.3459 164.456 85.5559C164.241 85.634 163.999 85.6487 163.773 85.7073C163.661 85.7294 163.556 85.772 163.463 85.8325C163.371 85.8929 163.293 85.97 163.234 86.0589C163.03 86.4349 163.412 86.8988 163.267 87.2944C163.121 87.69 162.761 87.7828 162.545 88.1051C162.459 88.2463 162.425 88.4089 162.449 88.569C162.466 88.8394 162.539 89.1045 162.664 89.3504C162.801 89.5957 162.959 89.8309 163.137 90.0536C163.137 90.0536 165.672 91.4356 165.694 91.4503Z" fill="black"/>
</g>
<path d="M164.181 90.7193C164.19 90.7193 164.199 90.7176 164.207 90.7144C164.216 90.7111 164.223 90.7064 164.229 90.7004C164.235 90.6944 164.24 90.6874 164.243 90.6797C164.246 90.672 164.247 90.6639 164.246 90.6558C164.138 88.2629 165.382 85.6209 166.28 84.8542C166.286 84.8487 166.291 84.8423 166.294 84.8351C166.298 84.828 166.299 84.8204 166.299 84.8127C166.299 84.8049 166.298 84.7973 166.294 84.7902C166.291 84.7831 166.286 84.7766 166.28 84.7711C166.274 84.7657 166.267 84.7613 166.259 84.7584C166.251 84.7554 166.243 84.7539 166.235 84.7539C166.226 84.7539 166.218 84.7554 166.21 84.7584C166.202 84.7613 166.195 84.7657 166.189 84.7711C165.263 85.5574 163.998 88.2384 164.106 90.6655C164.109 90.6815 164.118 90.696 164.132 90.7059C164.146 90.7159 164.164 90.7207 164.181 90.7193Z" fill="white"/>
<path d="M164.569 87.8857C165.193 87.7282 165.833 87.6332 166.48 87.6025C166.488 87.6025 166.497 87.6008 166.506 87.5976C166.514 87.5944 166.521 87.5896 166.527 87.5836C166.533 87.5777 166.538 87.5706 166.541 87.5629C166.544 87.5552 166.545 87.5471 166.544 87.539C166.544 87.531 166.542 87.5232 166.539 87.5159C166.535 87.5087 166.53 87.5022 166.523 87.4971C166.516 87.4919 166.509 87.4882 166.5 87.4862C166.492 87.4841 166.483 87.4838 166.474 87.4853C165.817 87.5134 165.165 87.6084 164.531 87.7685C164.523 87.7702 164.515 87.7735 164.507 87.7782C164.5 87.7828 164.494 87.7888 164.49 87.7956C164.485 87.8025 164.482 87.8101 164.481 87.8181C164.48 87.826 164.481 87.8341 164.483 87.8418C164.488 87.8579 164.5 87.8717 164.516 87.8799C164.532 87.8881 164.551 87.8902 164.569 87.8857Z" fill="white"/>
<path d="M227.254 64.509L225.596 67.4746L225.864 67.5984L227.523 64.6328L227.254 64.509Z" fill="#455A64"/>
<path d="M224.487 63.4547L224.23 63.5996L225.859 65.9698L226.115 65.8249L224.487 63.4547Z" fill="#455A64"/>
<path d="M225.997 64.0059V71.1553C225.994 71.1747 225.986 71.1933 225.974 71.2095C225.962 71.2256 225.946 71.2389 225.927 71.2481C225.871 71.2723 225.811 71.2849 225.749 71.2849C225.688 71.2849 225.627 71.2723 225.571 71.2481C225.552 71.2391 225.535 71.226 225.522 71.2099C225.508 71.1938 225.5 71.1751 225.496 71.1553V64.0059H225.997Z" fill="#455A64"/>
<path d="M231.954 61.7778C231.954 62.4346 231.739 63.0766 231.337 63.6227C230.935 64.1688 230.364 64.5945 229.695 64.8458C229.026 65.0972 228.29 65.1629 227.58 65.0348C226.871 64.9067 226.218 64.5904 225.707 64.126C225.195 63.6616 224.846 63.0698 224.705 62.4257C224.564 61.7815 224.636 61.1138 224.913 60.507C225.19 59.9002 225.659 59.3816 226.261 59.0167C226.863 58.6518 227.571 58.457 228.294 58.457C229.265 58.457 230.196 58.8069 230.882 59.4297C231.568 60.0524 231.954 60.8971 231.954 61.7778Z" fill="#165DFC"/>
<path opacity="0.2" d="M229.439 60.9276C229.913 59.5798 230.413 59.0523 230.096 58.8863C229.49 58.5756 228.798 58.4282 228.103 58.4617C227.407 58.4951 226.737 58.7079 226.17 59.0751C225.603 59.4422 225.164 59.9485 224.903 60.5345C224.642 61.1204 224.571 61.7617 224.698 62.3831C224.825 63.0044 225.145 63.58 225.619 64.0422C226.094 64.5044 226.705 64.8341 227.379 64.9925C228.053 65.151 228.763 65.1316 229.425 64.9366C230.088 64.7417 230.675 64.3792 231.118 63.8919C230.031 64.1752 228.831 62.6759 229.439 60.9276Z" fill="black"/>
<path d="M225.102 62.7162C225.103 63.178 224.953 63.6298 224.671 64.0144C224.389 64.3989 223.988 64.6988 223.518 64.8763C223.048 65.0537 222.53 65.1006 222.031 65.0111C221.532 64.9216 221.073 64.6996 220.712 64.3734C220.352 64.0471 220.107 63.6312 220.007 63.1782C219.907 62.7253 219.958 62.2557 220.152 61.8289C220.347 61.402 220.677 61.0372 221.1 60.7805C221.523 60.5237 222.02 60.3867 222.53 60.3867C223.211 60.3867 223.864 60.632 224.347 61.0687C224.829 61.5054 225.101 62.0979 225.102 62.7162Z" fill="#165DFC"/>
<path opacity="0.2" d="M222.529 60.3867C221.99 60.3856 221.465 60.5394 221.028 60.8262C220.958 62.2522 222.293 63.6391 221.921 64.108C221.55 64.5768 220.63 64.2886 220.307 63.8931C220.533 64.2473 220.859 64.5412 221.25 64.7452C221.641 64.9492 222.085 65.0562 222.537 65.0554C222.988 65.0545 223.431 64.9459 223.822 64.7405C224.212 64.5351 224.536 64.24 224.761 63.885C224.986 63.5299 225.104 63.1274 225.104 62.7178C225.103 62.3082 224.984 61.9059 224.758 61.5515C224.531 61.197 224.206 60.9027 223.815 60.6983C223.424 60.4938 222.981 60.3864 222.529 60.3867Z" fill="black"/>
<path d="M225.747 64.4837C228.354 64.4837 230.467 62.5662 230.467 60.2008C230.467 57.8355 228.354 55.918 225.747 55.918C223.14 55.918 221.027 57.8355 221.027 60.2008C221.027 62.5662 223.14 64.4837 225.747 64.4837Z" fill="#165DFC"/>
<path opacity="0.1" d="M230.338 61.1823C230.159 61.8752 229.792 62.5167 229.271 63.0488C228.751 63.5808 228.092 63.9867 227.354 64.2296C226.617 64.4726 225.825 64.545 225.049 64.4403C224.273 64.3356 223.538 64.0571 222.911 63.63C222.283 63.2029 221.783 62.6406 221.455 61.994C221.128 61.3474 220.983 60.6369 221.033 59.9267C221.084 59.2164 221.329 58.5289 221.746 57.9261C222.164 57.3234 222.74 56.8245 223.423 56.4746C223.014 56.6861 222.643 56.951 222.319 57.2609C222.09 58.1753 222.197 59.1329 222.625 59.9867C223.053 60.8405 223.778 61.5431 224.688 61.9868C225.599 62.4305 226.645 62.5907 227.666 62.4427C228.686 62.2947 229.625 61.8468 230.338 61.1677V61.1823Z" fill="black"/>
<path d="M133.692 70.429L132.033 73.3945L132.302 73.5183L133.961 70.5527L133.692 70.429Z" fill="#455A64"/>
<path d="M130.627 70.1959L130.371 70.3398L131.989 72.7108L132.245 72.5668L130.627 70.1959Z" fill="#455A64"/>
<path d="M132.428 69.9238V77.0733C132.426 77.0935 132.417 77.1128 132.404 77.1291C132.391 77.1455 132.373 77.1582 132.352 77.1661C132.298 77.1926 132.237 77.2064 132.175 77.2064C132.113 77.2064 132.052 77.1926 131.997 77.1661C131.977 77.1582 131.959 77.1455 131.945 77.1291C131.932 77.1128 131.924 77.0935 131.922 77.0733V69.9238H132.428Z" fill="#455A64"/>
<path d="M138.38 67.7017C138.38 68.3584 138.165 69.0005 137.763 69.5466C137.361 70.0927 136.789 70.5183 136.121 70.7697C135.452 71.021 134.716 71.0868 134.006 70.9586C133.296 70.8305 132.644 70.5142 132.132 70.0498C131.621 69.5854 131.272 68.9937 131.131 68.3495C130.99 67.7053 131.062 67.0376 131.339 66.4308C131.616 65.824 132.085 65.3054 132.687 64.9405C133.289 64.5756 133.996 64.3809 134.72 64.3809C135.201 64.3802 135.677 64.4657 136.121 64.6323C136.566 64.799 136.969 65.0436 137.309 65.3521C137.649 65.6606 137.919 66.0269 138.103 66.4301C138.286 66.8333 138.38 67.2654 138.38 67.7017Z" fill="#165DFC"/>
<path opacity="0.2" d="M135.868 66.8515C136.342 65.5036 136.848 64.9762 136.525 64.8101C135.919 64.5004 135.229 64.3538 134.535 64.3876C133.841 64.4214 133.171 64.6341 132.606 65.0009C132.04 65.3677 131.602 65.8732 131.342 66.4582C131.081 67.0432 131.011 67.6834 131.137 68.3036C131.264 68.9239 131.583 69.4984 132.058 69.9598C132.532 70.4212 133.141 70.7504 133.814 70.9086C134.487 71.0668 135.195 71.0476 135.857 70.8532C136.518 70.6587 137.105 70.2972 137.547 69.8109C136.46 70.099 135.26 68.5998 135.868 66.8515Z" fill="black"/>
<path d="M131.53 68.639C131.53 69.1007 131.379 69.552 131.096 69.9359C130.814 70.3198 130.412 70.619 129.942 70.7956C129.472 70.9723 128.954 71.0185 128.455 70.9285C127.956 70.8384 127.498 70.6161 127.138 70.2896C126.778 69.9632 126.533 69.5472 126.434 69.0944C126.335 68.6416 126.386 68.1722 126.581 67.7457C126.775 67.3192 127.105 66.9546 127.528 66.6981C127.951 66.4416 128.448 66.3047 128.957 66.3047C129.64 66.3047 130.294 66.5506 130.776 66.9884C131.259 67.4262 131.53 68.0199 131.53 68.639Z" fill="#165DFC"/>
<path opacity="0.2" d="M128.957 66.3047C128.418 66.3059 127.893 66.4595 127.456 66.7442C127.386 68.1702 128.72 69.562 128.349 70.0259C127.978 70.4899 127.057 70.2066 126.734 69.8111C126.961 70.1653 127.286 70.4592 127.678 70.6632C128.069 70.8672 128.513 70.9742 128.964 70.9733C129.416 70.9725 129.859 70.8639 130.249 70.6585C130.64 70.453 130.964 70.158 131.189 69.8029C131.414 69.4479 131.532 69.0453 131.532 68.6357C131.531 68.2261 131.412 67.8239 131.185 67.4694C130.959 67.1149 130.634 66.8207 130.243 66.6163C129.852 66.4118 129.408 66.3044 128.957 66.3047Z" fill="black"/>
<path d="M132.175 70.4075C134.782 70.4075 136.895 68.49 136.895 66.1246C136.895 63.7593 134.782 61.8418 132.175 61.8418C129.568 61.8418 127.455 63.7593 127.455 66.1246C127.455 68.49 129.568 70.4075 132.175 70.4075Z" fill="#165DFC"/>
<path opacity="0.1" d="M136.766 67.1013C136.589 67.7952 136.223 68.438 135.702 68.9714C135.182 69.5047 134.523 69.9118 133.785 70.1557C133.047 70.3997 132.254 70.4728 131.478 70.3684C130.701 70.2641 129.965 69.9855 129.337 69.5581C128.709 69.1306 128.208 68.5677 127.88 67.9203C127.553 67.273 127.408 66.5616 127.459 65.8507C127.511 65.1398 127.757 64.4517 128.176 63.8489C128.594 63.2461 129.172 62.7476 129.856 62.3984C129.444 62.607 129.07 62.8722 128.748 63.1847C128.513 64.1002 128.617 65.0603 129.044 65.9167C129.471 66.7731 130.197 67.4781 131.109 67.9227C132.022 68.3673 133.07 68.5268 134.093 68.3766C135.115 68.2264 136.055 67.7747 136.766 67.0915V67.1013Z" fill="black"/>
<path d="M14.5801 61.3815V59.0912L71.4114 29.3164L117.329 53.3628V55.6532L60.4864 85.4329L14.5801 61.3815Z" fill="#165DFC"/>
<path d="M14.5801 59.0912L60.4864 83.1425L117.329 53.3628L71.4114 29.3164L14.5801 59.0912Z" fill="#165DFC"/>
<path opacity="0.15" d="M14.5801 59.0918L60.4864 83.1431V85.4335L14.5801 61.3822V59.0918Z" fill="black"/>
<path opacity="0.1" d="M60.4863 83.1429L117.328 53.3633V55.6536L60.4863 85.4333V83.1429Z" fill="black"/>
<path d="M61.5778 60.8055L69.2307 64.8148V28.169L43 14.4219V51.0726L61.5778 60.8055Z" fill="#EBEBEB"/>
<path d="M69.2307 31.6021L43 17.8599V14.4219L69.2307 28.169V31.6021Z" fill="#E0E0E0"/>
<path d="M52.6183 26.3334L47.3711 23.584V27.7106L52.6183 30.46V26.3334Z" fill="#455A64"/>
<path d="M47.7207 27.525V23.7695L52.6181 26.3334V30.0888L47.7207 27.525Z" fill="#FAFAFA"/>
<path d="M47.3711 27.711L47.7209 27.5254L52.6183 30.0892V30.4604L47.3711 27.711Z" fill="#37474F"/>
<path d="M62.6715 31.6029L57.4297 28.8535V32.9752L62.6715 35.7246V31.6029Z" fill="#455A64"/>
<path d="M57.7793 32.7886V29.0332L62.6713 31.6019V35.3574L57.7793 32.7886Z" fill="#FAFAFA"/>
<path d="M57.4297 32.9746L57.7795 32.7891L62.6715 35.3578V35.7241L57.4297 32.9746Z" fill="#37474F"/>
<path d="M67.0469 27.9113L99.8379 31.8669V30.7242L67.0469 26.7637V27.9113Z" fill="#37474F"/>
<path d="M40.8164 13.0156L67.0471 26.7627L99.8381 30.7232L73.6074 16.9713L40.8164 13.0156Z" fill="#455A64"/>
<path d="M40.8164 13.0156L67.0471 26.7627V27.9103L40.8164 14.1584V13.0156Z" fill="#263238"/>
<path d="M69.2324 64.8158L97.6535 49.9309V31.603L69.2324 28.1699V64.8158Z" fill="#FAFAFA"/>
<path d="M73.6074 62.5246V51.0728L80.1624 47.6348V59.0915L73.6074 62.5246Z" fill="#37474F"/>
<path d="M79.9579 58.9508V47.748L73.6074 51.0737V62.2765L79.9579 58.9508Z" fill="#455A64"/>
<path d="M80.1615 47.6348L79.957 47.7471V58.9499L80.1615 59.0915V47.6348Z" fill="#263238"/>
<path d="M86.7227 44.2017L93.2776 40.7637V47.6348L86.7227 51.0728V44.2017Z" fill="#455A64"/>
<path d="M92.9278 47.4541V40.9492L86.7227 44.2016V50.7065L92.9278 47.4541Z" fill="#E0E0E0"/>
<path d="M93.2776 47.6358L92.9278 47.4551L86.7227 50.7075V51.0738L93.2776 47.6358Z" fill="#37474F"/>
<path d="M90.1779 42.3906L89.8281 42.5762V49.4473L90.1779 49.2666V42.3906Z" fill="#455A64"/>
<path d="M89.8283 42.5762V49.4473L89.4785 49.2666V42.7569L89.8283 42.5762Z" fill="#37474F"/>
<path d="M82.3469 41.9117V32.2619L73.6016 31.207V46.4924L82.3469 41.9117Z" fill="#E0E0E0"/>
<path d="M82.3469 41.9117V32.2619L73.6016 31.207V46.4924L82.3469 41.9117Z" fill="#37474F"/>
<path d="M81.9487 32.213L73.6016 31.207V46.0724L81.9487 41.6968V32.213Z" fill="#E0E0E0"/>
<path d="M81.9492 32.2129L82.3475 32.2617V41.9115L81.9492 41.6967V32.2129Z" fill="#455A64"/>
<path d="M78.3748 43.992V31.7832L77.9766 31.7344V44.202L78.3748 43.992Z" fill="#455A64"/>
<path d="M77.9779 31.7344V44.202L77.5742 43.992V31.6855L77.9779 31.7344Z" fill="#37474F"/>
<path d="M86.7227 39.6211V32.7891L93.2776 33.5802V36.1831L86.7227 39.6211Z" fill="#455A64"/>
<path d="M92.9278 36.0024V33.5411L86.7227 32.7891V39.2548L92.9278 36.0024Z" fill="#E0E0E0"/>
<path d="M90.1779 37.8083L89.8281 37.6276V33.1641L90.1779 33.2031V37.8083Z" fill="#37474F"/>
<path d="M90.1777 33.2031V37.8083L90.4953 37.6276V33.2471L90.1777 33.2031Z" fill="#455A64"/>
<path d="M93.2776 36.1826L92.9278 36.002L86.7227 39.2544V39.6206L93.2776 36.1826Z" fill="#37474F"/>
<path d="M46.2785 68.8237L27.6953 59.0908V45.3438L46.2785 55.0815V68.8237Z" fill="#F0F0F0"/>
<path d="M46.2785 55.0815V58.5146L27.6953 48.7817V45.3438L46.2785 55.0815Z" fill="#E0E0E0"/>
<path d="M35.1281 54.2807L29.8809 51.5312V55.6578L35.1281 58.4024V54.2807Z" fill="#455A64"/>
<path d="M30.2363 55.4722V51.7168L35.1283 54.2806V58.0361L30.2363 55.4722Z" fill="#FAFAFA"/>
<path d="M30.2363 51.7324V52.8849L35.1283 55.4488V54.3011L30.2363 51.7324Z" fill="#E0E0E0"/>
<path d="M29.8809 55.6582L30.2361 55.4727L35.1281 58.0365V58.4028L29.8809 55.6582Z" fill="#37474F"/>
<path d="M44.421 59.1498L39.1738 56.4004V60.5221L44.421 63.2715V59.1498Z" fill="#455A64"/>
<path d="M39.5234 60.3365V56.5859L44.4208 59.1498V62.9052L39.5234 60.3365Z" fill="#FAFAFA"/>
<path d="M39.5234 56.5859V57.7336L44.4208 60.2974V59.1498L39.5234 56.5859Z" fill="#E0E0E0"/>
<path d="M39.1738 60.5215L39.5236 60.3359L44.421 62.9047V63.2709L39.1738 60.5215Z" fill="#37474F"/>
<path d="M46.2793 68.8234L61.5796 60.8047V40.1914L46.2793 55.0812V68.8234Z" fill="#FAFAFA"/>
<path d="M48.4629 67.6826V59.6639L59.3932 53.9355V61.9543L48.4629 67.6826Z" fill="#455A64"/>
<path d="M59.394 53.9355L59.1895 54.043V61.8468L59.394 61.9494V53.9355Z" fill="#263238"/>
<path d="M59.1833 61.8457L48.4629 67.4666V67.6815L59.3932 61.9531L59.1833 61.8457Z" fill="#37474F"/>
<path d="M45.8418 57.1431L62.6705 40.7638V39.6211L45.8418 55.9955V57.1431Z" fill="#37474F"/>
<path d="M45.8417 57.1432L26.166 46.8341V45.6914L45.8417 55.9956V57.1432Z" fill="#263238"/>
<path d="M43.0001 29.3125L62.6705 39.6216L45.8417 55.996L26.166 45.6918L43.0001 29.3125Z" fill="#455A64"/>
<path d="M80.1624 59.0918L93.2777 65.9629L86.7228 69.396L73.6074 62.5249L80.1624 59.0918Z" fill="#F0F0F0"/>
<path d="M110.629 45.47L108.971 48.4355L109.239 48.5593L110.898 45.5938L110.629 45.47Z" fill="#455A64"/>
<path d="M107.549 45.231L107.293 45.375L108.91 47.7459L109.167 47.602L107.549 45.231Z" fill="#455A64"/>
<path d="M109.358 44.959V52.1084C109.358 52.1426 109.358 52.1719 109.283 52.2012C109.227 52.2255 109.166 52.238 109.105 52.238C109.043 52.238 108.983 52.2255 108.927 52.2012C108.908 52.1927 108.891 52.1796 108.879 52.1634C108.866 52.1471 108.859 52.1281 108.857 52.1084V44.959H109.358Z" fill="#455A64"/>
<path d="M115.309 42.7309C115.309 43.3879 115.095 44.0302 114.692 44.5764C114.29 45.1226 113.718 45.5482 113.049 45.7994C112.38 46.0506 111.644 46.1161 110.934 45.9876C110.224 45.859 109.572 45.5423 109.06 45.0774C108.549 44.6125 108.2 44.0203 108.06 43.3758C107.919 42.7313 107.993 42.0635 108.27 41.4567C108.548 40.85 109.018 40.3317 109.621 39.9674C110.223 39.6031 110.931 39.4092 111.655 39.4102C112.136 39.4102 112.611 39.4961 113.055 39.663C113.499 39.83 113.902 40.0747 114.241 40.3831C114.58 40.6915 114.849 41.0576 115.033 41.4605C115.216 41.8634 115.31 42.2951 115.309 42.7309Z" fill="#165DFC"/>
<path opacity="0.2" d="M112.802 41.8812C113.27 40.5334 113.776 40.006 113.453 39.8448C112.907 39.5585 112.286 39.4085 111.655 39.4102C111.039 39.4099 110.432 39.551 109.892 39.8204C109.351 40.0899 108.895 40.4788 108.564 40.9512C108.234 41.4236 108.04 41.9641 108.001 42.5225C107.963 43.081 108.08 43.6392 108.343 44.1455C108.605 44.6517 109.005 45.0895 109.504 45.4182C110.003 45.747 110.585 45.9559 111.197 46.0258C111.809 46.0956 112.43 46.024 113.003 45.8177C113.576 45.6114 114.083 45.277 114.475 44.8455C113.394 45.1336 112.188 43.6295 112.802 41.8812Z" fill="black"/>
<path d="M108.459 43.6742C108.459 44.1361 108.308 44.5876 108.025 44.9716C107.743 45.3555 107.341 45.6547 106.87 45.8313C106.4 46.0078 105.882 46.0537 105.383 45.9633C104.884 45.8728 104.426 45.65 104.066 45.323C103.706 44.9961 103.462 44.5797 103.363 44.1266C103.265 43.6734 103.316 43.2039 103.512 42.7775C103.707 42.351 104.038 41.9868 104.462 41.7309C104.885 41.475 105.383 41.3389 105.892 41.3398C106.574 41.3411 107.227 41.5877 107.708 42.0253C108.189 42.4629 108.459 43.0559 108.459 43.6742Z" fill="#165DFC"/>
<path opacity="0.2" d="M105.908 41.3399C105.367 41.338 104.839 41.4919 104.401 41.7794C104.331 43.2054 105.666 44.5923 105.294 45.0611C104.923 45.5299 104.003 45.2418 103.68 44.8462C103.907 45.1983 104.232 45.4901 104.623 45.6924C105.013 45.8946 105.455 46.0003 105.905 45.9987C106.355 45.9971 106.796 45.8884 107.185 45.6835C107.573 45.4785 107.896 45.1844 108.12 44.8308C108.344 44.4771 108.462 44.0762 108.462 43.6681C108.462 43.2601 108.344 42.8593 108.119 42.5058C107.894 42.1523 107.571 41.8586 107.182 41.654C106.793 41.4493 106.352 41.341 105.902 41.3399H105.908Z" fill="black"/>
<path d="M109.105 45.4368C111.711 45.4368 113.824 43.5193 113.824 41.1539C113.824 38.7886 111.711 36.8711 109.105 36.8711C106.498 36.8711 104.385 38.7886 104.385 41.1539C104.385 43.5193 106.498 45.4368 109.105 45.4368Z" fill="#165DFC"/>
<path opacity="0.1" d="M113.695 42.1354C113.515 42.8268 113.147 43.4665 112.627 43.9968C112.106 44.5272 111.448 44.9315 110.711 45.1732C109.975 45.415 109.184 45.4866 108.41 45.3816C107.636 45.2766 106.903 44.9982 106.276 44.5717C105.65 44.1452 105.151 43.5839 104.824 42.9385C104.497 42.2932 104.352 41.584 104.402 40.8751C104.453 40.1662 104.697 39.4798 105.113 38.8779C105.529 38.2761 106.103 37.7777 106.785 37.4277C106.386 37.6418 106.024 37.9066 105.708 38.214C105.476 39.1285 105.581 40.087 106.008 40.9418C106.435 41.7967 107.16 42.5004 108.071 42.9446C108.982 43.3888 110.029 43.5488 111.05 43.3999C112.071 43.251 113.01 42.8016 113.722 42.1208L113.695 42.1354Z" fill="black"/>
<path d="M21.7193 52.2473L20.0605 55.2129L20.3293 55.3367L21.988 52.3711L21.7193 52.2473Z" fill="#455A64"/>
<path d="M18.6449 52.0103L18.3887 52.1543L20.0062 54.5252L20.2624 54.3813L18.6449 52.0103Z" fill="#455A64"/>
<path d="M20.4458 51.7461V58.8907C20.4437 58.9109 20.4355 58.9302 20.4223 58.9465C20.409 58.9628 20.3911 58.9756 20.3705 58.9835C20.3158 59.01 20.2548 59.0238 20.1929 59.0238C20.1309 59.0238 20.0699 59.01 20.0153 58.9835C19.9953 58.9754 19.9782 58.9624 19.9659 58.946C19.9535 58.9297 19.9464 58.9105 19.9453 58.8907V51.7461H20.4458Z" fill="#455A64"/>
<path d="M26.3973 49.5102C26.3973 50.1672 26.1825 50.8095 25.7802 51.3557C25.3778 51.9019 24.806 52.3275 24.1369 52.5787C23.4679 52.8299 22.7318 52.8954 22.0218 52.7669C21.3118 52.6383 20.6597 52.3216 20.1481 51.8567C19.6365 51.3918 19.2884 50.7996 19.1478 50.1551C19.0072 49.5106 19.0804 48.8428 19.3582 48.2361C19.6361 47.6293 20.106 47.111 20.7085 46.7467C21.311 46.3824 22.0191 46.1885 22.7431 46.1895C23.7128 46.1908 24.6422 46.5412 25.3273 47.1638C26.0125 47.7864 26.3973 48.6304 26.3973 49.5102Z" fill="#165DFC"/>
<path opacity="0.2" d="M23.8901 48.66C24.3583 47.3122 24.8642 46.7848 24.5413 46.6187C23.9349 46.308 23.2434 46.1607 22.548 46.1941C21.8526 46.2275 21.1821 46.4403 20.6153 46.8075C20.0485 47.1747 19.609 47.6809 19.3482 48.2669C19.0875 48.8529 19.0164 49.4942 19.1433 50.1155C19.2703 50.7368 19.5899 51.3124 20.0648 51.7746C20.5396 52.2369 21.15 52.5665 21.8241 52.725C22.4983 52.8834 23.2083 52.864 23.8707 52.669C24.5331 52.4741 25.1205 52.1117 25.5638 51.6243C24.4821 51.9076 23.2766 50.4083 23.8901 48.66Z" fill="black"/>
<path d="M19.5473 50.4466C19.5484 50.9087 19.3983 51.3607 19.116 51.7453C18.8337 52.13 18.432 52.4299 17.9618 52.6072C17.4915 52.7845 16.9738 52.8311 16.4743 52.7412C15.9748 52.6513 15.5159 52.4289 15.1558 52.1021C14.7957 51.7754 14.5506 51.359 14.4515 50.9057C14.3524 50.4524 14.4038 49.9827 14.5992 49.5559C14.7946 49.1292 15.1251 48.7647 15.549 48.5086C15.9728 48.2524 16.471 48.1162 16.9802 48.1172C17.6606 48.1185 18.3127 48.3643 18.7938 48.8009C19.275 49.2375 19.5459 49.8292 19.5473 50.4466Z" fill="#165DFC"/>
<path opacity="0.2" d="M16.98 48.1172C16.4391 48.1154 15.9115 48.2692 15.4731 48.5567C15.4031 49.9827 16.7378 51.3696 16.3665 51.8384C15.9951 52.3073 15.0749 52.0191 14.752 51.6236C14.9791 51.9757 15.3043 52.2675 15.6948 52.4697C16.0853 52.672 16.5275 52.7776 16.9771 52.776C17.4268 52.7745 17.8681 52.6658 18.2569 52.4608C18.6457 52.2558 18.9683 51.9618 19.1925 51.6081C19.4167 51.2544 19.5346 50.8535 19.5344 50.4455C19.5342 50.0375 19.4158 49.6366 19.1913 49.2832C18.9667 48.9297 18.6437 48.6359 18.2547 48.4313C17.8657 48.2267 17.4243 48.1184 16.9746 48.1172H16.98Z" fill="black"/>
<path d="M20.1925 52.2141C22.7991 52.2141 24.9123 50.2966 24.9123 47.9313C24.9123 45.5659 22.7991 43.6484 20.1925 43.6484C17.5858 43.6484 15.4727 45.5659 15.4727 47.9313C15.4727 50.2966 17.5858 52.2141 20.1925 52.2141Z" fill="#165DFC"/>
<path opacity="0.1" d="M24.7841 48.9099C24.6049 49.6017 24.2385 50.2421 23.7181 50.7732C23.1976 51.3043 22.5396 51.7095 21.8034 51.9519C21.0672 52.1944 20.276 52.2666 19.5013 52.1621C18.7266 52.0575 17.9928 51.7795 17.3662 51.353C16.7397 50.9266 16.24 50.3653 15.9125 49.7197C15.585 49.0741 15.4398 48.3647 15.4902 47.6554C15.5406 46.9462 15.785 46.2595 16.2011 45.6575C16.6173 45.0554 17.1922 44.5569 17.874 44.207C17.4647 44.4172 17.0928 44.6823 16.7707 44.9933C16.5333 45.9088 16.6355 46.8699 17.0613 47.7274C17.4871 48.5849 18.2128 49.2909 19.1259 49.7361C20.0389 50.1812 21.0883 50.3406 22.1113 50.1894C23.1344 50.0383 24.0739 49.5851 24.7841 48.9001V48.9099Z" fill="black"/>
<path d="M72.6013 63.8973L73.2687 63.5506C73.4539 62.5663 73.4811 61.5629 73.3494 60.5716C73.0157 58.6182 71.5626 57.9687 71.0352 58.1641C70.5078 58.3594 70.384 58.9308 71.3366 60.0442C72.1994 61.1737 72.6424 62.5235 72.6013 63.8973Z" fill="#165DFC"/>
<g opacity="0.2">
<path d="M72.6013 63.8973L73.2687 63.5506C73.4539 62.5663 73.4811 61.5629 73.3494 60.5716C73.0157 58.6182 71.5626 57.9687 71.0352 58.1641C70.5078 58.3594 70.384 58.9308 71.3366 60.0442C72.1994 61.1737 72.6424 62.5235 72.6013 63.8973Z" fill="black"/>
</g>
<path d="M72.8429 63.1256C72.8367 63.1251 72.8306 63.1234 72.8252 63.1205C72.8198 63.1177 72.8152 63.1138 72.8116 63.1091C72.808 63.1045 72.8056 63.0992 72.8045 63.0936C72.8034 63.088 72.8036 63.0823 72.8052 63.0768C73.0797 61.265 72.267 59.2823 71.3737 58.4814C71.3657 58.4734 71.3613 58.4629 71.3613 58.4521C71.3613 58.4413 71.3657 58.4309 71.3737 58.4228C71.377 58.4178 71.3817 58.4136 71.3874 58.4107C71.3931 58.4078 71.3995 58.4062 71.406 58.4062C71.4125 58.4062 71.4188 58.4078 71.4245 58.4107C71.4302 58.4136 71.4349 58.4178 71.4382 58.4228C72.3585 59.2335 73.1766 61.2504 72.8967 63.0915C72.8941 63.1023 72.8871 63.1118 72.8772 63.1181C72.8672 63.1244 72.8549 63.1271 72.8429 63.1256Z" fill="white"/>
<path d="M70.7493 64.8639C70.647 64.9225 70.4263 64.8004 70.3456 64.7515C70.2017 64.6636 70.0865 64.5421 70.012 64.3999C69.9299 64.2487 69.8999 64.0785 69.9258 63.9116C69.9434 63.8193 69.9668 63.728 69.9958 63.6381C70.0281 63.5502 70.055 63.4623 70.0819 63.3744C70.1146 63.2881 70.1292 63.197 70.125 63.1058C70.0672 62.9282 69.9361 62.7777 69.759 62.6858C69.6616 62.635 69.5785 62.5645 69.5159 62.4798C69.4534 62.3951 69.4132 62.2985 69.3984 62.1975C69.4107 62.0276 69.4845 61.8662 69.6083 61.7384C69.7267 61.6066 69.8613 61.4894 69.9635 61.3526C70.0457 61.2544 70.0893 61.1341 70.0873 61.0108C70.0742 60.937 70.0469 60.8659 70.0066 60.8008C69.908 60.6657 69.8216 60.5236 69.7482 60.3759C69.7135 60.3009 69.7027 60.2186 69.717 60.1384C69.7312 60.0581 69.77 59.983 69.829 59.9218C69.8874 59.8815 69.9543 59.8524 70.0256 59.8365C70.0969 59.8205 70.171 59.818 70.2434 59.829C70.3804 59.8452 70.5122 59.8868 70.6309 59.9511C71.013 60.1464 71.2282 60.5566 71.6372 60.7031C71.7977 60.7487 71.9613 60.7846 72.127 60.8105C72.21 60.8251 72.2888 60.8552 72.3583 60.8989C72.4278 60.9426 72.4865 60.999 72.5306 61.0645C72.6813 61.3331 72.4015 61.6652 72.5306 61.9533C72.6598 62.2414 72.8912 62.3049 73.0688 62.5295C73.1295 62.631 73.1539 62.747 73.1388 62.8616C73.1284 63.0564 73.0754 63.2473 72.9827 63.4232C72.8824 63.593 72.7691 63.7562 72.6436 63.9116L70.7493 64.8639Z" fill="#165DFC"/>
<g opacity="0.1">
<path d="M70.7493 64.8639C70.647 64.9225 70.4263 64.8004 70.3456 64.7515C70.2017 64.6636 70.0865 64.5421 70.012 64.3999C69.9299 64.2487 69.8999 64.0785 69.9258 63.9116C69.9434 63.8193 69.9668 63.728 69.9958 63.6381C70.0281 63.5502 70.055 63.4623 70.0819 63.3744C70.1146 63.2881 70.1292 63.197 70.125 63.1058C70.0672 62.9282 69.9361 62.7777 69.759 62.6858C69.6616 62.635 69.5785 62.5645 69.5159 62.4798C69.4534 62.3951 69.4132 62.2985 69.3984 62.1975C69.4107 62.0276 69.4845 61.8662 69.6083 61.7384C69.7267 61.6066 69.8613 61.4894 69.9635 61.3526C70.0457 61.2544 70.0893 61.1341 70.0873 61.0108C70.0742 60.937 70.0469 60.8659 70.0066 60.8008C69.908 60.6657 69.8216 60.5236 69.7482 60.3759C69.7135 60.3009 69.7027 60.2186 69.717 60.1384C69.7312 60.0581 69.77 59.983 69.829 59.9218C69.8874 59.8815 69.9543 59.8524 70.0256 59.8365C70.0969 59.8205 70.171 59.818 70.2434 59.829C70.3804 59.8452 70.5122 59.8868 70.6309 59.9511C71.013 60.1464 71.2282 60.5566 71.6372 60.7031C71.7977 60.7487 71.9613 60.7846 72.127 60.8105C72.21 60.8251 72.2888 60.8552 72.3583 60.8989C72.4278 60.9426 72.4865 60.999 72.5306 61.0645C72.6813 61.3331 72.4015 61.6652 72.5306 61.9533C72.6598 62.2414 72.8912 62.3049 73.0688 62.5295C73.1295 62.631 73.1539 62.747 73.1388 62.8616C73.1284 63.0564 73.0754 63.2473 72.9827 63.4232C72.8824 63.593 72.7691 63.7562 72.6436 63.9116L70.7493 64.8639Z" fill="black"/>
</g>
<path d="M71.8367 64.3416C71.8306 64.3416 71.8245 64.3405 71.8189 64.3382C71.8133 64.3359 71.8083 64.3326 71.8042 64.3284C71.8001 64.3243 71.7971 64.3194 71.7952 64.3141C71.7934 64.3087 71.7929 64.3031 71.7937 64.2976C71.869 62.5835 70.981 60.6887 70.3352 60.1417C70.3292 60.1383 70.3241 60.1337 70.3202 60.1283C70.3164 60.1228 70.3139 60.1167 70.3129 60.1103C70.312 60.1039 70.3126 60.0974 70.3148 60.0912C70.3169 60.0851 70.3205 60.0794 70.3253 60.0747C70.3302 60.0699 70.3361 60.0662 70.3427 60.0638C70.3493 60.0613 70.3564 60.0603 70.3635 60.0606C70.3706 60.0609 70.3775 60.0627 70.3838 60.0657C70.3901 60.0688 70.3955 60.0731 70.3998 60.0782C71.0617 60.6399 71.9659 62.564 71.8851 64.3025C71.8838 64.3133 71.8781 64.3232 71.8692 64.3305C71.8602 64.3377 71.8487 64.3416 71.8367 64.3416Z" fill="white"/>
<path d="M71.5502 62.3155C71.1041 62.2031 70.6456 62.136 70.1832 62.1152C70.1704 62.1152 70.158 62.1106 70.149 62.1024C70.1399 62.0941 70.1348 62.083 70.1348 62.0713C70.1348 62.0596 70.1399 62.0485 70.149 62.0402C70.158 62.032 70.1704 62.0273 70.1832 62.0273C70.6566 62.048 71.126 62.1168 71.5825 62.2325C71.5884 62.234 71.5938 62.2368 71.5985 62.2404C71.6031 62.2441 71.6069 62.2486 71.6094 62.2537C71.612 62.2588 71.6133 62.2644 71.6133 62.27C71.6133 62.2756 71.6119 62.2811 71.6094 62.2862C71.6083 62.292 71.6057 62.2975 71.6019 62.3022C71.5982 62.307 71.5933 62.311 71.5876 62.3138C71.5819 62.3166 71.5755 62.3182 71.5691 62.3185C71.5626 62.3188 71.5561 62.3178 71.5502 62.3155Z" fill="white"/>
<path d="M136.175 1.85204L132.435 3.80544C132.456 3.65646 132.467 3.50639 132.467 3.35616V2.37946C132.467 0.631158 131.111 -0.0623023 129.442 0.797196C128.725 1.19889 128.11 1.73501 127.639 2.36969C127.365 0.167223 125.487 -0.648323 123.151 0.557905C120.654 1.87157 118.625 5.05562 118.625 7.67318V9.13824C118.608 9.72579 118.741 10.3089 119.012 10.8426L115.902 12.4688C115.414 12.7584 115.008 13.1479 114.716 13.606C114.425 14.064 114.256 14.5778 114.223 15.1059C114.223 16.0826 114.976 16.4733 115.902 15.9849L136.175 5.35351C136.664 5.06474 137.07 4.67544 137.362 4.21723C137.654 3.75902 137.822 3.24483 137.854 2.71642C137.854 1.76413 137.122 1.36857 136.175 1.85204Z" fill="#EBEBEB"/>
<path d="M152.191 11.7463L149.371 13.2114C149.371 13.0942 149.371 12.9818 149.371 12.8695V12.1419C149.371 10.8233 148.348 10.2861 147.089 10.9503C146.547 11.2513 146.084 11.6564 145.732 12.137C145.528 10.4766 144.118 9.85639 142.347 10.7696C141.351 11.3571 140.523 12.1501 139.929 13.0836C139.335 14.0172 138.993 15.065 138.93 16.1415V17.25C138.919 17.6941 139.019 18.1347 139.221 18.5393L136.874 19.765C136.506 19.9838 136.199 20.2781 135.98 20.6242C135.76 20.9704 135.633 21.3586 135.609 21.7575C135.609 22.49 136.174 22.7879 136.874 22.4217L152.191 14.3981C152.56 14.1807 152.867 13.8874 153.087 13.5421C153.308 13.1967 153.436 12.809 153.461 12.4105C153.455 11.7024 152.885 11.38 152.191 11.7463Z" fill="#EBEBEB"/>
<path d="M223.538 102.78L220.718 104.246C220.718 104.133 220.718 104.021 220.718 103.909V103.166C220.718 101.843 219.695 101.311 218.436 101.97C217.894 102.273 217.43 102.678 217.074 103.157C216.87 101.496 215.433 100.876 213.689 101.789C212.693 102.377 211.864 103.17 211.27 104.103C210.677 105.037 210.334 106.085 210.272 107.161V108.27C210.26 108.712 210.36 109.151 210.562 109.554L208.216 110.785C207.848 111.002 207.541 111.296 207.321 111.641C207.102 111.986 206.975 112.374 206.951 112.772C206.951 113.505 207.489 113.803 208.216 113.436L223.516 105.422C223.885 105.204 224.193 104.91 224.413 104.564C224.634 104.218 224.762 103.829 224.786 103.43C224.808 102.707 224.237 102.409 223.538 102.78Z" fill="#EBEBEB"/>
</svg>
