<svg width="640" height="190" viewBox="0 0 640 190" fill="none" xmlns="http://www.w3.org/2000/svg">
<rect width="190" height="190" rx="50" fill="#0047FF"/>
<rect width="18.5547" height="101.309" rx="9.27734" transform="matrix(1 0 0 -1 84.9805 145.84)" fill="white"/>
<circle cx="94.2578" cy="152.52" r="6.67969" fill="white"/>
<rect width="25.9145" height="95.7422" rx="12.9572" transform="matrix(0.93018 0.367104 0.367104 -0.93018 51.9531 129.766)" fill="white"/>
<rect width="26.9317" height="95.7422" rx="13.4658" transform="matrix(0.927452 -0.373942 -0.373942 -0.927452 113.146 139.317)" fill="white"/>
<path d="M115.193 41.1914C115.193 52.6686 105.888 31.3574 94.4113 31.3574C82.9341 31.3574 73.63 52.6686 73.63 41.1914C73.63 29.7142 82.9341 20.4102 94.4113 20.4102C105.888 20.4102 115.193 29.7142 115.193 41.1914Z" fill="white"/>
<path d="M259.04 78.11C253.32 78.11 248.9 73.69 248.9 67.97C248.9 62.38 253.32 57.96 259.04 57.96C264.63 57.96 269.05 62.38 269.05 67.97C269.05 73.69 264.63 78.11 259.04 78.11ZM250.59 150V85H267.49V150H250.59ZM296.269 150H279.369V59H296.269V150ZM303.475 117.63C303.475 99.56 317.775 83.96 336.495 83.96C352.615 83.96 369.775 95.4 370.425 116.07C370.555 119.06 370.295 121.92 369.905 124.13H321.675C323.235 130.63 328.955 134.53 336.495 134.53C342.605 134.53 345.595 132.45 347.675 130.76L367.825 130.89C362.625 142.72 350.795 151.04 337.015 151.04C318.295 151.04 303.475 136.09 303.475 117.63ZM321.675 110.61H352.355C349.755 104.5 343.515 100.47 337.015 100.47C329.475 100.47 324.275 104.5 321.675 110.61ZM431.19 75.51H394.53V94.1H426.25V110.61H394.53V150H377.63V59H431.19V75.51ZM495.514 85V119.19C495.514 141.03 483.554 151.04 466.914 151.04C450.274 151.04 438.314 141.03 438.314 119.19V85H455.214V119.19C455.214 129.59 458.594 134.53 466.914 134.53C475.234 134.53 478.614 129.59 478.614 119.19V85H495.514ZM561.784 150H544.884V115.81C544.884 105.41 541.504 100.47 533.184 100.47C524.864 100.47 521.484 105.41 521.484 115.81V150H504.584V115.81C504.584 93.97 516.544 83.96 533.184 83.96C549.824 83.96 561.784 93.97 561.784 115.81V150ZM635.884 117.5C635.884 136.09 620.934 151.04 602.474 151.04C584.014 151.04 568.934 136.09 568.934 117.5C568.934 98.91 584.014 83.96 602.474 83.96C609.104 83.96 614.304 85.65 618.854 88.9V59H635.884V117.5ZM602.344 100.47C592.724 100.47 585.834 107.88 585.834 117.5C585.834 127.12 592.724 134.53 602.344 134.53C611.964 134.53 619.114 127.12 619.114 117.5C619.114 107.88 611.964 100.47 602.344 100.47Z" fill="white"/>
</svg>
