<svg width="194" height="70" viewBox="0 0 194 70" fill="none" xmlns="http://www.w3.org/2000/svg">
<mask id="mask0" mask-type="alpha" maskUnits="userSpaceOnUse" x="22" y="10" width="45" height="50">
<path d="M22.8633 10.7922H66.9352V59.0247H22.8633V10.7922Z" fill="white"/>
</mask>
<g mask="url(#mask0)">
<path fill-rule="evenodd" clip-rule="evenodd" d="M28.9998 24.9466L49.546 12.8706C54.4063 10.0136 58.2203 10.4143 61.2968 12.1995C64.8127 14.2368 66.9015 17.7581 66.9346 21.8729V46.9782C66.9346 52.3106 64.7941 55.5438 61.3354 57.5968C58.2561 59.4249 54.4572 59.7901 49.588 56.9447L28.7436 44.7712C24.3083 42.18 22.3985 37.4369 22.9584 33.3234C23.4357 29.8062 25.6182 26.9349 28.9998 24.9466Z" fill="#3DBCA2"/>
</g>
<mask id="mask1" mask-type="alpha" maskUnits="userSpaceOnUse" x="17" y="10" width="45" height="50">
<path d="M17.915 10.7922H61.9876V59.0247H17.915V10.7922Z" fill="white"/>
</mask>
<g mask="url(#mask1)">
<path fill-rule="evenodd" clip-rule="evenodd" d="M55.8505 24.9466L35.305 12.8706C30.444 10.0136 26.6313 10.4143 23.5535 12.1995C20.0376 14.2368 17.9481 17.7581 17.915 21.8729V46.9782C17.915 52.3106 20.0555 55.5438 23.5142 57.5968C26.5942 59.4249 30.3931 59.7901 35.2616 56.9447L56.1067 44.7712C60.5427 42.18 62.4511 37.4369 61.8933 33.3234C61.4146 29.8062 59.2328 26.9349 55.8505 24.9466" fill="#B2CC41"/>
</g>
<path fill-rule="evenodd" clip-rule="evenodd" d="M28.9996 24.9471L42.4253 17.0547L55.851 24.9477C59.2325 26.9353 61.4157 29.8066 61.8923 33.3239C62.4522 37.438 60.5445 42.1804 56.1072 44.7717L47.9515 49.5345L50.6526 51.1132C51.9653 51.8791 52.4226 53.5982 51.6684 54.9337C50.915 56.2692 49.2242 56.7339 47.9129 55.9673L42.4253 52.7635L42.2896 52.6838L41.6636 52.3172L28.7434 44.7717C24.3081 42.1804 22.399 37.438 22.9582 33.3246C23.4369 29.8066 25.618 26.9353 28.9996 24.9477" fill="#37A453"/>
<mask id="mask2" mask-type="alpha" maskUnits="userSpaceOnUse" x="80" y="18" width="94" height="23">
<path d="M80.9014 18.5754H173.886V40.138H80.9014V18.5754Z" fill="white"/>
</mask>
<g mask="url(#mask2)">
<path fill-rule="evenodd" clip-rule="evenodd" d="M80.9014 28.2503C80.9014 33.6984 83.8734 37.4447 88.8663 37.7124C89.136 37.7467 89.4795 37.8296 89.9678 37.9901C92.4588 38.8166 94.7922 39.5621 96.8832 40.1381L97.5519 38.1568C96.0249 37.8548 94.0724 37.4068 92.2711 36.9697V36.8615C95.2505 35.7564 97.4198 32.6519 97.4198 28.0836C97.4198 22.777 94.4988 18.5764 89.3492 18.5764C84.3308 18.5764 80.9014 22.585 80.9014 28.2503ZM158.761 37.4113H161.203L163.054 31.5792H169.462L171.389 37.4113H173.886L167.716 18.8784H164.9L158.761 37.4113V37.4113ZM163.536 29.7133L165.307 24.3499C165.647 23.2436 165.941 22.124 166.19 20.994H166.272C166.54 22.0649 166.809 23.1691 167.21 24.3752L168.98 29.7124H163.536L163.536 29.7133ZM140.899 37.4113H143.128V29.4898C143.128 26.416 143.071 24.1832 142.94 21.8485L143.022 21.8215C143.905 23.8307 145.136 25.9472 146.4 28.0051L152.138 37.4113H154.496V18.8784H152.302V26.6593C152.302 29.5204 152.356 31.7793 152.57 34.2492L152.514 34.3069C151.63 32.3824 150.588 30.4308 149.273 28.2566L143.478 18.8775H140.9V37.4104L140.899 37.4113ZM127.936 37.7187C132.492 37.7187 136.327 34.2808 136.327 28.1151C136.328 22.7526 133.407 18.5764 128.256 18.5764C123.27 18.5764 119.809 22.5597 119.809 28.2575C119.809 33.7814 123.026 37.7196 127.937 37.7196L127.936 37.7187ZM128.067 35.7627C124.395 35.7627 122.274 32.3824 122.274 28.1746C122.274 24.0164 124.339 20.5271 128.092 20.5271C132.067 20.5271 133.863 24.3761 133.863 28.1746C133.863 32.2156 131.881 35.7627 128.067 35.7627V35.7627ZM102.085 29.8224C102.085 35.5707 104.869 37.7187 108.573 37.7187C112.484 37.7187 115.381 35.4048 115.381 29.7124V18.8775H113.047V29.881C113.047 33.9463 111.307 35.7627 108.654 35.7627C106.214 35.7627 104.443 34.0067 104.443 29.881V18.8775H102.083V29.8224H102.085ZM89.136 35.7564C85.3503 35.7564 83.3659 32.2093 83.3659 28.1981C83.3659 24.1832 85.3503 20.5271 89.1852 20.5271C93.103 20.5271 94.9553 24.2661 94.9553 28.1413C94.9553 32.2418 92.9453 35.7564 89.136 35.7564V35.7564Z" fill="#455952"/>
</g>
<path fill-rule="evenodd" clip-rule="evenodd" d="M96.873 49.1161C96.873 51.5535 98.4219 52.8885 100.471 52.8885C101.368 52.8885 102.064 52.6974 102.411 52.5342L102.214 51.7617C101.836 51.9501 101.248 52.0709 100.675 52.0709C98.8984 52.0709 97.8689 50.9045 97.8689 49.0818C97.8689 47.133 99.0069 46.0188 100.717 46.0188C101.325 46.0188 101.836 46.1504 102.193 46.3289L102.42 45.5447C102.181 45.414 101.595 45.2256 100.684 45.2256C98.4219 45.2256 96.873 46.7922 96.873 49.1161V49.1161ZM154.546 52.765H158.62V51.9609H155.498V45.3356H154.546V52.765V52.765ZM143.377 52.765H144.364L145.112 50.4276H147.701L148.48 52.765H149.488L146.995 45.3356H145.859L143.377 52.765ZM145.306 49.6785L146.023 47.5305C146.16 47.0871 146.278 46.6384 146.378 46.1856H146.411C146.52 46.6129 146.628 47.0572 146.791 47.5395L147.506 49.6785H145.306ZM135.938 52.765H136.892V46.1504H139.123V45.3356H133.717V46.1504H135.938V52.765ZM127.959 52.765H128.911V45.3356H127.959V52.765ZM118.201 52.765H119.154V49.8201C119.35 49.8534 119.63 49.8759 119.934 49.8759C120.833 49.8759 121.645 49.6127 122.144 49.0611C122.511 48.6771 122.707 48.147 122.707 47.4656C122.707 46.7922 122.456 46.2514 122.068 45.8989C121.634 45.5032 120.952 45.2824 120.022 45.2824C119.273 45.2824 118.655 45.3482 118.201 45.4266V52.765V52.765ZM119.154 49.0394V46.1108C119.317 46.0765 119.619 46.0432 120.043 46.0432C121.081 46.0432 121.764 46.5272 121.764 47.5197C121.764 48.5319 121.071 49.1061 119.923 49.1061C119.62 49.1061 119.306 49.0818 119.154 49.0394V49.0394ZM107.033 52.765H108.02L108.767 50.4276H111.356L112.135 52.765H113.143L110.65 45.3356H109.514L107.033 52.765V52.765ZM108.962 49.6785L109.678 47.5305C109.814 47.0871 109.933 46.6384 110.033 46.1856H110.066C110.176 46.6129 110.284 47.0572 110.447 47.5395L111.161 49.6785H108.962V49.6785Z" fill="#455952"/>
</svg>
