<svg width="150" height="150" viewBox="0 0 150 150" fill="none" xmlns="http://www.w3.org/2000/svg">
<path d="M150 139.584C150 141.242 149.342 142.831 148.169 144.003C146.997 145.176 145.408 145.834 143.75 145.834H6.25C4.5924 145.834 3.00268 145.176 1.83058 144.003C0.65848 142.831 0 141.242 0 139.584C0 137.926 0.65848 136.337 1.83058 135.165C3.00268 133.992 4.5924 133.334 6.25 133.334H143.75C145.408 133.334 146.997 133.992 148.169 135.165C149.342 136.337 150 137.926 150 139.584Z" fill="#5C913B"/>
<path d="M51.4342 61.2591H43.1009C42.5484 61.2591 42.0185 61.0396 41.6278 60.6489C41.2371 60.2582 41.0176 59.7283 41.0176 59.1758V30.0091C41.0176 29.4566 41.2371 28.9267 41.6278 28.536C42.0185 28.1453 42.5484 27.9258 43.1009 27.9258H51.4342C51.9868 27.9258 52.5167 28.1453 52.9074 28.536C53.2981 28.9267 53.5176 29.4566 53.5176 30.0091V59.1758C53.5176 59.7283 53.2981 60.2582 52.9074 60.6489C52.5167 61.0396 51.9868 61.2591 51.4342 61.2591Z" fill="#A0041E"/>
<path d="M24.7579 133.333C24.1871 113.929 22.6496 100 20.8329 100C19.0163 100 17.4829 113.929 16.9121 133.333H24.7579Z" fill="#FFCC4D"/>
<path d="M41.6667 78.0465C41.6667 101.276 32.3417 108.334 20.8333 108.334C9.325 108.334 0 101.276 0 78.0465C0 54.809 16.6667 20.834 20.8333 20.834C25 20.834 41.6667 54.809 41.6667 78.0465Z" fill="#77B255"/>
<path d="M33.334 66.6667L87.5006 12.5L141.667 66.6667V133.333H33.334V66.6667Z" fill="#FFE8B6"/>
<path d="M87.5 66.666H91.6667V133.333H87.5V66.666Z" fill="#FFCC4D"/>
<path d="M141.667 70.8331C140.562 70.8329 139.503 70.3937 138.722 69.6123L87.5007 18.3914L36.2798 69.6123C35.893 69.9991 35.4337 70.306 34.9283 70.5153C34.4228 70.7247 33.8811 70.8325 33.334 70.8325C32.7869 70.8325 32.2452 70.7247 31.7397 70.5153C31.2343 70.306 30.775 69.9991 30.3882 69.6123C30.0013 69.2254 29.6945 68.7661 29.4851 68.2607C29.2757 67.7553 29.168 67.2135 29.168 66.6664C29.168 66.1193 29.2757 65.5776 29.4851 65.0722C29.6945 64.5667 30.0013 64.1074 30.3882 63.7206L84.5548 9.55393C85.3362 8.7728 86.3958 8.33398 87.5007 8.33398C88.6055 8.33398 89.6651 8.7728 90.4465 9.55393L144.613 63.7206C145.198 64.3025 145.596 65.045 145.758 65.8538C145.92 66.6627 145.838 67.5013 145.522 68.2634C145.207 69.0255 144.672 69.6766 143.985 70.1341C143.299 70.5916 142.492 70.8349 141.667 70.8331Z" fill="#66757F"/>
<path d="M87.4998 70.834C86.675 70.8358 85.8682 70.5925 85.1818 70.135C84.4955 69.6775 83.9606 69.0264 83.6449 68.2643C83.3293 67.5022 83.2472 66.6636 83.409 65.8548C83.5709 65.0459 83.9694 64.3034 84.554 63.7215L111.637 36.6382C112.024 36.2513 112.483 35.9445 112.989 35.7351C113.494 35.5257 114.036 35.418 114.583 35.418C115.13 35.418 115.672 35.5257 116.177 35.7351C116.683 35.9445 117.142 36.2513 117.529 36.6382C117.916 37.025 118.223 37.4843 118.432 37.9897C118.641 38.4952 118.749 39.0369 118.749 39.584C118.749 40.1311 118.641 40.6728 118.432 41.1783C118.223 41.6837 117.916 42.143 117.529 42.5298L90.4457 69.6132C89.6644 70.3946 88.6048 70.8338 87.4998 70.834Z" fill="#66757F"/>
<path d="M54.166 108.334H70.8327V133.334H54.166V108.334Z" fill="#C1694F"/>
<path d="M54.166 70.834H70.8327V87.5007H54.166V70.834ZM106.249 70.834H122.916V87.5007H106.249V70.834ZM106.249 108.334H122.916V125.001H106.249V108.334Z" fill="#55ACEE"/>
<path d="M44.2699 124.962C44.2699 131.683 40.6949 133.725 36.2824 133.725C31.8741 133.725 28.2949 131.683 28.2949 124.962C28.2949 118.242 34.6824 108.408 36.2824 108.408C37.8824 108.408 44.2699 118.237 44.2699 124.962ZM149.478 124.962C149.478 131.683 145.903 133.725 141.491 133.725C137.082 133.725 133.503 131.683 133.503 124.962C133.503 118.242 139.891 108.408 141.491 108.408C143.091 108.408 149.478 118.237 149.478 124.962Z" fill="#77B255"/>
</svg>
