<svg width="194" height="70" viewBox="0 0 194 70" fill="none" xmlns="http://www.w3.org/2000/svg">
<rect width="194" height="70" fill="white"/>
<path d="M0 25.1761C1.73886 25.901 2.219 27.852 2.92622 29.4574C4.62615 33.6168 6.38448 37.7491 8.16876 41.8745C10.0114 37.4374 11.932 33.041 13.7422 28.5971C14.3326 27.2491 14.8387 25.6368 16.3894 25.2236C14.0407 32.0384 10.8419 38.501 8.16876 45.1803C5.39826 38.7991 2.71211 32.3839 0 25.9755V25.1761Z" fill="#221E1F"/>
<path d="M20.3287 25.5758C22.9305 25.5758 25.5258 25.5758 28.1211 25.5826C28.1211 25.9619 28.1082 26.7139 28.1017 27.0932C25.9411 27.1068 23.774 27.0865 21.6134 26.9984C21.5809 29.3016 21.5809 31.5981 21.6004 33.8945C23.3393 33.8945 25.0846 33.8877 26.8235 33.8877C26.8235 34.2332 26.8235 34.931 26.8235 35.2765C25.0716 35.2832 23.3263 35.2697 21.5809 35.2697C21.5939 37.8845 21.6004 40.4926 21.5615 43.1074C24.0335 43.1142 26.512 43.1074 28.9841 43.1006C28.997 43.4529 29.023 44.1642 29.036 44.5165C26.1227 44.5706 23.216 44.5706 20.3027 44.5029C20.3546 38.1961 20.3027 31.8826 20.3287 25.5758Z" fill="#221E1F"/>
<path d="M35.1729 25.0271C39.2865 30.5006 43.4974 35.8929 47.5721 41.3936C47.5656 36.1232 47.5591 30.8529 47.5656 25.5826C47.8965 25.569 48.5453 25.5487 48.8697 25.5419C48.8827 32.1061 48.8762 38.6703 48.8762 45.2345C44.7107 39.8016 40.6426 34.2874 36.3992 28.929C36.4965 34.1316 36.4382 39.341 36.4511 44.5436C36.1137 44.5232 35.439 44.4894 35.1016 44.469C35.1859 37.9861 35.1081 31.51 35.1729 25.0271Z" fill="#221E1F"/>
<path d="M70.3601 25.569C70.6715 25.5623 71.2879 25.5419 71.5994 25.5352C71.6577 29.6674 71.5604 33.7929 71.6253 37.9252C71.5669 40.7568 73.8248 43.4258 76.5629 43.5477C79.5086 43.7713 82.1104 40.9397 82.0195 37.9116C82.1104 33.7997 81.9936 29.681 82.052 25.569C82.3699 25.5623 82.9993 25.5487 83.3172 25.5352C83.2718 29.8842 83.421 34.24 83.2653 38.589C83.1226 42.85 78.5483 46.2032 74.6878 44.5842C72.0665 43.6087 70.2628 40.7703 70.3666 37.8777C70.3082 33.7793 70.3731 29.6742 70.3601 25.569Z" fill="#221E1F"/>
<path d="M89.9082 44.5232C89.9342 38.2097 89.9017 31.8961 89.9277 25.5826C93.1718 25.7248 97.4476 24.6613 99.5757 28.0078C102.528 31.7878 99.4849 38.6229 94.5473 37.6474C96.656 39.7271 98.596 41.9761 100.627 44.1303L99.6666 44.8687C96.8182 42.3081 94.4046 39.2529 91.8287 36.401C93.879 36.2113 96.4224 37.0039 98.0121 35.229C100.348 33.0274 99.6147 28.3194 96.5522 27.2761C94.7874 26.9442 92.9837 27.1068 91.2059 27.0661C91.2123 32.8852 91.1864 38.6974 91.2253 44.5097C90.8944 44.5097 90.2391 44.5165 89.9082 44.5232Z" fill="#221E1F"/>
<path d="M106.512 25.5758C109.172 25.5826 111.839 25.5623 114.506 25.5961C114.408 25.9077 114.227 26.5242 114.136 26.8358C112.04 27.3168 109.886 27.0458 107.764 27.0797C107.764 29.349 107.771 31.6184 107.803 33.8877C109.484 33.8945 111.171 33.881 112.858 33.8945C112.851 34.24 112.845 34.931 112.845 35.2765C111.145 35.2832 109.451 35.2697 107.758 35.2765C107.777 37.8845 107.777 40.4926 107.745 43.1006C110.23 43.1142 112.709 43.1074 115.187 43.1074C115.181 43.4665 115.161 44.1845 115.155 44.5435C112.261 44.5571 109.361 44.5706 106.467 44.5029C106.525 38.1894 106.454 31.8826 106.512 25.5758Z" fill="#221E1F"/>
<path opacity="0.94" d="M53.0293 25.5759C57.3894 25.5691 61.7496 25.5623 66.1162 25.5826C66.0967 25.9552 66.0513 26.7139 66.0319 27.0865C64.1243 27.0933 62.2167 27.0933 60.3092 27.1068C60.3286 32.892 60.2573 38.6772 60.3546 44.4691C59.9977 44.4962 59.2905 44.5504 58.9337 44.5843C58.9272 38.7517 58.9272 32.9191 58.9401 27.0865C56.9742 27.0933 55.0147 27.0933 53.0552 27.0865C53.0488 26.7072 53.0358 25.9552 53.0293 25.5759Z" fill="#211D1E"/>
<path d="M121.298 33.1223C119.066 30.0875 121.506 25.0136 125.243 25.271C128.13 25.1423 129.941 28.0484 130.148 30.7649C128.137 30.7107 128.572 27.913 126.956 27.1949C124.296 25.2372 120.636 28.6988 121.979 31.6997C123.731 34.782 128.195 33.793 130.077 36.8075C132.283 40.513 128.617 45.7968 124.562 45.0991C121.571 45.0042 119.923 41.8881 119.592 39.1243L120.851 38.9955C121.285 40.8584 121.954 43.1278 124.004 43.5884C127.066 44.5978 130.323 41.0752 129.181 37.9455C127.43 35.0326 123.212 35.8997 121.298 33.1223Z" fill="#F38932"/>
<path d="M140.322 25.8197C144.377 23.8891 149.549 25.9078 151.56 30.013C154.233 34.6872 152.507 41.4614 147.836 43.9746C143.904 46.3049 138.499 44.6656 136.209 40.6417C133.029 35.7439 134.95 28.0417 140.322 25.8197ZM141.704 26.7749C137.331 28.0078 134.885 33.4475 136.39 37.8236C137.474 41.983 142.087 44.7062 146.032 43.2294C150.256 41.9491 152.468 36.6923 151.132 32.4449C150.107 28.3194 145.669 25.5352 141.704 26.7749Z" fill="#F38932"/>
<path d="M157.84 25.5758C158.171 25.5691 158.826 25.5623 159.157 25.5555C159.177 29.6607 159.131 33.7726 159.157 37.8778C159.041 40.75 161.383 43.4529 164.147 43.5478C166.833 43.7036 169.305 41.3462 169.48 38.5552C169.72 34.3281 169.402 30.0875 169.597 25.8536C169.908 25.7249 170.531 25.4607 170.843 25.3252C170.895 29.4981 170.895 33.671 170.869 37.8439C170.972 41.5833 167.839 45.1533 164.186 44.9636C160.65 44.9907 157.762 41.4681 157.84 37.8778C157.801 33.7794 157.847 29.6742 157.84 25.5758Z" fill="#F38932"/>
<path d="M175.943 35.8997C175.372 30.7513 179.213 25.393 184.287 25.1152C189.127 24.6071 193.403 28.841 194 33.7117V36.0826C193.747 38.352 192.709 40.3978 191.444 42.2201C192.287 43.1617 193.13 44.1101 193.909 45.1126C192.65 46.9281 191.541 43.961 190.431 43.2091C188.537 44.2591 186.493 45.3159 184.28 45.011C179.81 44.7468 176.157 40.4926 175.943 35.8997ZM182.704 26.8494C179.369 27.9536 177.001 31.5439 177.228 35.202C177.059 39.5578 180.699 43.6901 184.929 43.6223C189.439 43.7171 193.234 39.0904 192.644 34.4568C192.696 29.3559 187.395 25.1559 182.704 26.8494Z" fill="#F38932"/>
</svg>
