<svg width="207" height="231" viewBox="0 0 207 231" fill="none" xmlns="http://www.w3.org/2000/svg">
<path d="M31.6234 45.4824C6.25172 45.4824 6.20766 83.616 31.6234 83.616C57.0392 83.616 57.0343 45.4824 31.6234 45.4824Z" fill="#EBEBEB"/>
<path d="M47.0519 68.1259C45.6956 74.6833 40.5498 80.3764 31.6193 80.3764C10.5317 80.3764 10.5659 48.7227 31.6193 48.7227C31.7564 48.7227 31.8934 48.7227 32.0305 48.7227C12.2208 49.1056 12.3138 79.0773 32.4222 79.0773C40.6232 79.0877 45.5096 74.0726 47.0519 68.1259Z" fill="#DBDBDB"/>
<path d="M31.7713 52.8947C31.9387 52.8904 32.1011 52.9549 32.2244 53.0746C32.3477 53.1943 32.4222 53.3599 32.4323 53.5365V54.5716C34.1971 54.6923 35.894 55.3363 37.3284 56.4296C37.5732 56.616 37.7103 56.7712 37.7103 57.0404C37.6977 57.2271 37.6163 57.4012 37.4835 57.5251C37.3507 57.649 37.1772 57.7128 37.0004 57.7028C36.8206 57.7095 36.6453 57.6428 36.5108 57.5165C35.3142 56.5528 33.8895 55.9565 32.3931 55.7931V63.2252C36.5646 64.074 38.3223 65.5852 38.3223 68.1885C38.3223 71.004 35.8743 72.9915 32.447 73.1001V75.1704C32.4327 75.3446 32.3572 75.5069 32.2353 75.6252C32.1134 75.7434 31.9539 75.809 31.7884 75.809C31.623 75.809 31.4635 75.7434 31.3416 75.6252C31.2197 75.5069 31.1441 75.3446 31.1299 75.1704V73.1001C28.8654 72.9465 26.7047 72.0409 24.9559 70.5124C24.8649 70.455 24.7892 70.3741 24.7361 70.2772C24.6829 70.1802 24.6541 70.0706 24.6523 69.9586C24.667 69.7769 24.7455 69.6076 24.8724 69.484C24.9993 69.3604 25.1653 69.2916 25.3378 69.2909C25.517 69.2878 25.6912 69.3541 25.8274 69.4773C27.3182 70.8716 29.1952 71.7193 31.1789 71.8942V64.3379C27.0661 63.4632 25.3525 62.0037 25.3525 59.3487C25.3525 56.6936 27.7663 54.6234 31.1152 54.5457V53.5106C31.1312 53.3395 31.2076 53.1811 31.3292 53.067C31.4509 52.9528 31.6087 52.8913 31.7713 52.8947ZM31.1691 62.9871V55.7413C28.5056 55.7982 26.7626 57.3354 26.7626 59.2452C26.7528 61.0721 27.6292 62.1642 31.1691 62.9871ZM32.3784 64.6019V71.9408C35.1203 71.8891 36.9073 70.3467 36.9073 68.3179C36.9073 66.4909 35.9477 65.373 32.3784 64.6019Z" fill="#DBDBDB"/>
<path d="M175.06 159.543C152.215 163.875 158.247 199.648 181.132 195.306C204.016 190.963 197.94 155.2 175.06 159.543Z" fill="#DBDBDB"/>
<path d="M177.206 159.133C155.433 163.273 161.47 199.037 183.278 194.896C205.085 190.756 199.009 154.998 177.206 159.133Z" fill="#EBEBEB"/>
<path d="M194.047 177.859C193.93 184.23 190.419 190.405 182.757 191.859C164.641 195.291 159.647 165.604 177.719 162.177C177.836 162.15 177.954 162.129 178.071 162.115C161.131 165.702 165.988 193.795 183.242 190.524C190.277 189.189 193.67 183.687 194.047 177.859Z" fill="#DBDBDB"/>
<path d="M181.548 166.048C181.696 166.072 181.829 166.155 181.92 166.281C182.011 166.406 182.053 166.563 182.038 166.72L181.925 167.724C183.455 168.045 184.86 168.842 185.959 170.012C186.05 170.082 186.123 170.175 186.17 170.283C186.217 170.391 186.237 170.51 186.229 170.628C186.205 170.797 186.121 170.949 185.993 171.053C185.865 171.156 185.703 171.202 185.543 171.182C185.464 171.175 185.386 171.151 185.316 171.112C185.245 171.073 185.183 171.019 185.132 170.954C184.222 169.927 183.045 169.207 181.749 168.884L180.965 175.917C184.49 177.17 185.861 178.79 185.577 181.253C185.284 183.914 182.958 185.534 179.976 185.264L179.756 187.226C179.738 187.386 179.661 187.532 179.542 187.632C179.423 187.732 179.271 187.778 179.119 187.759C178.968 187.741 178.83 187.659 178.735 187.533C178.641 187.407 178.598 187.246 178.615 187.086L178.835 185.099C176.864 184.692 175.078 183.599 173.763 181.993C173.667 181.904 173.599 181.785 173.571 181.653C173.543 181.521 173.556 181.383 173.607 181.259C173.658 181.135 173.746 181.031 173.857 180.963C173.967 180.895 174.096 180.866 174.223 180.881C174.382 180.898 174.527 180.98 174.63 181.108C175.738 182.564 177.285 183.574 179.012 183.971L179.824 176.808C176.353 175.54 175.036 173.971 175.315 171.461C175.594 168.951 177.9 167.248 180.809 167.533L180.916 166.581C180.936 166.423 181.013 166.279 181.13 166.18C181.248 166.08 181.398 166.033 181.548 166.048ZM179.966 175.529L180.725 168.672C178.414 168.434 176.735 169.707 176.534 171.513C176.343 173.221 176.985 174.37 179.966 175.529ZM180.838 177.191L180.069 184.126C182.449 184.369 184.158 183.091 184.368 181.196C184.564 179.463 183.849 178.303 180.838 177.191Z" fill="#DBDBDB"/>
<path d="M181.681 147.447L188.222 147.302L191.444 147.245C192.516 147.219 193.579 147.245 194.646 147.214L194.431 147.447L194.401 141.655L194.646 141.914L188.149 141.883C185.99 141.883 183.83 141.821 181.666 141.795L181.803 141.655C181.803 142.602 181.759 143.555 181.735 144.523L181.681 147.447ZM181.681 147.447L181.612 144.579C181.612 143.617 181.559 142.639 181.549 141.655V141.516H181.681C183.845 141.49 186.004 141.433 188.163 141.428L194.646 141.396H194.891V141.655V147.447V147.68H194.67C193.579 147.68 192.482 147.68 191.395 147.649L188.134 147.592L181.681 147.447Z" fill="#EBEBEB"/>
<path d="M188.911 154.749L195.453 154.605L198.674 154.548C199.747 154.522 200.809 154.548 201.876 154.517L201.661 154.749L201.637 148.958L201.876 149.217L195.394 149.186C193.235 149.186 191.076 149.124 188.911 149.098L189.049 148.958C189.049 149.905 189.005 150.857 188.985 151.825L188.911 154.749ZM188.911 154.749L188.843 151.882C188.843 150.92 188.789 149.941 188.779 148.958V148.818H188.911C191.076 148.792 193.235 148.735 195.394 148.73L201.876 148.699H202.126V148.958L202.097 154.749V154.982H201.857C200.765 154.982 199.673 154.982 198.581 154.951L195.321 154.894L188.911 154.749Z" fill="#EBEBEB"/>
<path d="M174.439 154.749L180.98 154.605L184.202 154.548C185.269 154.522 186.336 154.548 187.404 154.517L187.188 154.749L187.169 148.958L187.414 149.217L180.931 149.186C178.772 149.186 176.608 149.124 174.449 149.098L174.581 148.958C174.581 149.905 174.542 150.857 174.517 151.825L174.439 154.749ZM174.439 154.749L174.37 151.882C174.346 150.92 174.316 149.941 174.307 148.958V148.818H174.439C176.598 148.792 178.762 148.735 180.921 148.73L187.404 148.699H187.649V148.958L187.658 154.749V154.982H187.443C186.351 154.982 185.254 154.982 184.167 154.951L180.907 154.894L174.439 154.749Z" fill="#EBEBEB"/>
<path d="M7.34998 154.749L13.8863 154.605L17.108 154.548C18.1802 154.522 19.2476 154.548 20.3149 154.517L20.0946 154.749L20.0701 148.958L20.3149 149.217L13.8471 149.186C11.6831 149.186 9.52386 149.124 7.36467 149.098L7.49686 148.958C7.49686 149.905 7.4528 150.857 7.43322 151.825L7.34998 154.749ZM7.34998 154.749L7.27654 151.882C7.27654 150.92 7.22268 149.941 7.21289 148.958V148.818H7.34998C9.50917 148.792 11.6684 148.735 13.8325 148.73L20.3149 148.699H20.5597V148.958L20.5304 154.749V154.982H20.3149C19.2231 154.982 18.1264 154.982 17.0345 154.951L13.7737 154.894L7.34998 154.749Z" fill="#EBEBEB"/>
<path d="M7.34998 24.7228L13.8863 24.5779L17.108 24.5158C18.1802 24.5158 19.2476 24.5158 20.3149 24.5158L20.0946 24.7487L20.0701 18.9572L20.3149 19.2108L13.8471 19.1487C11.6831 19.1487 9.52386 19.0918 7.36467 19.0659L7.49686 18.9262C7.49686 19.8733 7.4528 20.8256 7.43322 21.7882L7.34998 24.7228ZM7.34998 24.7228L7.27654 21.8555C7.27654 20.8877 7.22268 19.9095 7.21289 18.9313V18.7916H7.34998C9.50917 18.7916 11.6684 18.7088 13.8325 18.7088L20.3149 18.6777H20.5597V18.9417L20.5304 24.7331V24.9609H20.3149C19.2231 24.9609 18.1264 24.9609 17.0345 24.935L13.7737 24.8418L7.34998 24.7228Z" fill="#EBEBEB"/>
<path d="M0.137091 32.0255L6.67342 31.8806L9.89507 31.8185C10.9673 31.8185 12.0298 31.8185 13.102 31.8185L12.8817 32.0514V26.2599L13.1265 26.5136L6.59998 26.4566C4.43589 26.4566 2.2767 26.3945 0.137091 26.3945L0.269287 26.2548C0.269287 27.2019 0.225221 28.1542 0.205636 29.1169L0.137091 32.0255ZM0.137091 32.0255L0.0636483 29.1583C0.0636483 28.1904 0.00979225 27.2123 0 26.2341V26.0943H0.137091C2.29628 26.0943 4.45547 26.0115 6.61956 26.0115L13.102 25.9805H13.3468V26.2444L13.3175 32.0359V32.2636H13.102C12.0053 32.2636 10.9135 32.2636 9.82163 32.2636L6.56081 32.2015L0.137091 32.0255Z" fill="#EBEBEB"/>
<path d="M188.911 24.728L195.453 24.5831L198.674 24.5261C199.747 24.5261 200.809 24.5261 201.876 24.4951L201.661 24.728L201.637 18.9365L201.876 19.1953L195.394 19.1487C193.235 19.1487 191.076 19.0918 188.911 19.0659L189.049 18.9262C189.049 19.8733 189.005 20.8256 188.985 21.7882L188.911 24.728ZM188.911 24.728L188.843 21.8607C188.843 20.8929 188.789 19.9199 188.779 18.9365V18.7968H188.911C191.076 18.7709 193.235 18.7191 195.394 18.714L201.857 18.6777H202.107V18.9365L202.082 24.728V24.9609H201.857C200.765 24.9609 199.673 24.9609 198.581 24.9609L195.321 24.9039L188.911 24.728Z" fill="#EBEBEB"/>
<path d="M118.725 63.5714L112.189 63.7163L108.967 63.7732C107.895 63.7732 106.828 63.7732 105.76 63.8043L105.981 63.5714L106.005 69.3628L105.76 69.1041L112.243 69.1403C114.407 69.1403 116.566 69.1972 118.725 69.2231L118.593 69.3628C118.593 68.4157 118.637 67.4634 118.657 66.5007L118.725 63.5714ZM118.725 63.5714L118.799 66.4386C118.799 67.4065 118.853 68.3795 118.862 69.3628V69.5026H118.725C116.566 69.5026 114.407 69.5802 112.243 69.5854L105.76 69.6164H105.516V69.3525L105.545 63.561V63.3281H105.76C106.852 63.3281 107.949 63.3281 109.041 63.3281L112.302 63.3851L118.725 63.5714Z" fill="#EBEBEB"/>
<path d="M111.494 56.2693L104.958 56.4142L101.736 56.4712C100.664 56.4712 99.5964 56.4712 98.529 56.5022L98.7493 56.2693L98.7738 62.0608L98.529 61.802L105.011 61.8382C107.171 61.8382 109.335 61.8952 111.494 61.921L111.362 62.0608C111.362 61.1137 111.401 60.1613 111.425 59.1987L111.494 56.2693ZM111.494 56.2693L111.562 59.1366C111.587 60.1044 111.621 61.0774 111.626 62.0608V62.2005H111.489C109.33 62.2005 107.166 62.2782 105.007 62.2833L98.5241 62.3144H98.2793V62.0556L98.3087 56.2641V56.0312H98.5486C99.6404 56.0312 100.737 56.0312 101.829 56.0312L105.09 56.0882L111.494 56.2693Z" fill="#EBEBEB"/>
<path d="M186.201 0H185.711V61.7083H186.201V0Z" fill="#C7C7C7"/>
<path d="M165.686 82.3581L167.316 86.1466H204.6L206.225 82.3581L190.352 70.7441H181.559L165.686 82.3581Z" fill="#EBEBEB"/>
<path d="M180.457 59.5547L181.559 70.7443H190.352L191.454 59.5547H180.457Z" fill="#DBDBDB"/>
<path d="M165.689 82.3633L167.32 86.1518H204.604L206.229 82.3633H165.689Z" fill="#DBDBDB"/>
<path d="M142.677 0H142.188V49.4836H142.677V0Z" fill="#C7C7C7"/>
<path d="M122.164 70.1394L123.794 73.9279H161.078L162.704 70.1394L146.831 58.5254H138.037L122.164 70.1394Z" fill="#EBEBEB"/>
<path d="M136.936 47.3359L138.037 58.5255H146.831L147.932 47.3359H136.936Z" fill="#DBDBDB"/>
<path d="M122.164 70.1387L123.794 73.9272H161.078L162.704 70.1387H122.164Z" fill="#DBDBDB"/>
<path d="M0.773438 207.54L25.8318 207.416L50.8853 207.369L100.997 207.281L151.109 207.369L176.162 207.411L201.216 207.54L176.162 207.664L151.109 207.711L100.997 207.799L50.8853 207.711L25.8318 207.664L0.773438 207.54Z" fill="#263238"/>
<path d="M100.997 230.443C150.96 230.443 191.463 227.275 191.463 223.368C191.463 219.461 150.96 216.293 100.997 216.293C51.0341 216.293 10.5312 219.461 10.5312 223.368C10.5312 227.275 51.0341 230.443 100.997 230.443Z" fill="#EBEBEB"/>
<path d="M120.582 166.134V166.206C120.582 166.206 120.582 166.237 120.582 166.258C120.582 166.279 120.582 166.341 120.557 166.398V166.491C120.542 166.557 120.53 166.625 120.523 166.693C120.523 166.739 120.523 166.786 120.498 166.838C120.474 166.889 120.464 167.055 120.44 167.179C120.415 167.303 120.366 167.598 120.327 167.847L120.107 169.11C120.082 169.244 120.058 169.389 120.033 169.539C120.009 169.689 119.965 169.943 119.925 170.155C119.886 170.367 119.847 170.631 119.803 170.885C119.774 171.061 119.739 171.242 119.71 171.428C119.617 171.982 119.519 172.572 119.406 173.204C119.404 173.219 119.404 173.235 119.406 173.25C119.289 173.954 119.162 174.71 119.025 175.501C118.99 175.708 118.951 175.916 118.912 176.123C118.873 176.33 118.834 176.557 118.799 176.775C118.799 176.909 118.755 177.049 118.726 177.189C118.54 178.289 118.339 179.456 118.124 180.687C118.05 181.101 117.982 181.521 117.908 181.945C117.766 182.773 117.619 183.622 117.468 184.497C117.428 184.698 117.394 184.9 117.365 185.107C117.143 186.374 116.916 187.692 116.684 189.061C116.655 189.201 116.635 189.341 116.611 189.481C116.498 190.122 116.386 190.769 116.278 191.432C116.263 191.482 116.254 191.534 116.248 191.587L116.087 192.529C115.871 193.792 115.65 195.084 115.421 196.406C115.362 196.732 115.304 197.063 115.25 197.399C115.137 198.067 115.02 198.74 114.902 199.418C114.755 200.261 114.608 201.11 114.461 201.974C114.315 202.839 114.168 203.703 114.016 204.562C113.938 205.002 113.864 205.442 113.786 205.882C113.698 206.4 113.605 206.917 113.516 207.471H71.1992C76.4185 184.548 80.8201 166.066 80.8201 166.066L120.582 166.134Z" fill="#263238"/>
<path d="M114.187 171.31C112.069 183.387 109.927 195.463 107.763 207.539H107.176C109.423 195.434 111.739 183.349 114.03 171.259C114.065 171.145 114.216 171.191 114.187 171.31Z" fill="#263238"/>
<path d="M120.582 166.135C120.582 166.135 120.582 166.161 120.582 166.207C120.582 166.254 120.582 166.238 120.582 166.259C120.582 166.28 120.582 166.342 120.557 166.399V166.492C120.542 166.558 120.53 166.626 120.523 166.694C120.523 166.74 120.523 166.787 120.498 166.839C120.474 166.89 120.459 167.056 120.44 167.18C120.42 167.304 120.366 167.599 120.327 167.848C120.258 168.215 120.19 168.635 120.107 169.111C120.082 169.245 120.058 169.39 120.033 169.54C120.009 169.69 119.965 169.944 119.925 170.156C119.886 170.368 119.847 170.632 119.803 170.886C119.774 171.062 119.739 171.243 119.71 171.429C119.612 171.983 119.514 172.573 119.406 173.205C119.404 173.22 119.404 173.236 119.406 173.251C119.284 173.955 119.157 174.7 119.02 175.492C118.98 175.699 118.946 175.911 118.912 176.124C118.878 176.336 118.834 176.558 118.799 176.776C118.77 176.91 118.75 177.05 118.726 177.19C118.535 178.287 118.334 179.457 118.124 180.688C118.05 181.102 117.982 181.522 117.908 181.946C117.761 182.774 117.614 183.623 117.468 184.498C117.428 184.7 117.394 184.901 117.365 185.108C117.14 186.382 116.913 187.7 116.684 189.063C116.655 189.202 116.635 189.342 116.611 189.482C116.498 190.124 116.386 190.77 116.278 191.433C116.263 191.484 116.253 191.536 116.248 191.588L116.087 192.53C115.865 193.793 115.643 195.085 115.421 196.407C115.362 196.733 115.303 197.064 115.25 197.4C115.132 198.068 115.02 198.741 114.902 199.419C114.755 200.262 114.608 201.111 114.461 201.976C114.314 202.84 114.163 203.704 114.016 204.563C113.937 205.003 113.864 205.443 113.786 205.883C113.698 206.401 113.605 206.918 113.512 207.472H92.2721L90.5732 189.088L90.5144 188.436L90.4459 187.732L90.1129 184.135L89.8241 181.03L88.4434 166.135H120.582Z" fill="#455A64"/>
<path d="M144.62 207.539H98.9835C98.9052 203.099 98.822 198.803 98.7191 194.751C98.7191 194.652 98.7191 194.554 98.7191 194.456C98.7191 194.456 93.3922 191.123 90.523 188.509C90.0353 188.085 89.5862 187.614 89.1815 187.101C87.3454 184.627 85.5045 175.115 81.6953 166.166H137.511C146.579 184.767 145.942 199.714 144.62 207.539Z" fill="#263238"/>
<path d="M87.8555 186.443C90.568 187.618 93.0112 189.424 95.42 191.168C97.9269 192.975 100.223 195.065 102.632 197.006C102.725 197.084 102.632 197.244 102.534 197.172C99.993 195.459 97.3344 193.953 94.8227 192.188C92.3747 190.475 89.8483 188.808 87.7331 186.65C87.6499 186.567 87.7429 186.391 87.8555 186.443Z" fill="#455A64"/>
<path d="M87.5126 169.846C87.8358 171.684 88.2568 173.506 88.6338 175.333C88.9815 177.046 89.241 178.79 89.6718 180.508C90.0216 182.148 90.8102 183.646 91.9436 184.825C92.5801 185.451 93.2803 186.005 93.9559 186.574C94.3231 186.884 94.7148 187.179 95.0967 187.495C95.0478 187.252 95.0086 186.978 94.9645 186.755L94.6267 184.685C94.3819 183.132 94.1371 181.579 93.9217 180.027C93.481 176.978 93.0795 173.899 92.4528 170.882C92.4509 170.859 92.4567 170.836 92.469 170.817C92.4814 170.798 92.4997 170.784 92.5206 170.778C92.5415 170.772 92.5638 170.774 92.5837 170.783C92.6035 170.793 92.6195 170.809 92.6291 170.83C93.3488 173.821 94.142 176.782 94.7687 179.799C95.0771 181.274 96.169 188.598 96.2375 189.115C96.3061 189.633 96.3305 190.186 96.3501 190.72C96.4162 191.264 96.4162 191.816 96.3501 192.36C96.3405 192.385 96.3241 192.406 96.3032 192.42C96.2823 192.435 96.2578 192.443 96.2326 192.443C96.2075 192.443 96.1829 192.435 96.162 192.42C96.1411 192.406 96.1248 192.385 96.1151 192.36C95.9059 191.854 95.7594 191.322 95.6794 190.776C95.5521 190.259 95.4395 189.741 95.3513 189.193C95.3171 189.006 95.2926 188.81 95.2681 188.613C94.5875 188.173 93.9559 187.578 93.3096 187.112C92.6634 186.646 91.924 186.077 91.2777 185.497C90.0771 184.428 89.2115 182.999 88.7954 181.398C88.3777 179.678 88.1057 177.922 87.9827 176.15C87.7623 174.08 87.6008 172.01 87.3266 169.94C87.3168 169.759 87.4882 169.722 87.5126 169.846Z" fill="#455A64"/>
<path d="M133.953 182.639C133.224 182.241 130.403 182.95 125.263 182.024C124.257 181.886 123.302 181.476 122.491 180.833C121.155 179.679 120.141 177.821 119.328 176.232C118.363 174.442 117.619 172.529 117.115 170.539C117.091 170.415 116.929 170.477 116.949 170.591C117.14 171.714 117.243 172.837 117.527 173.95C117.805 174.994 118.16 176.013 118.589 176.998C119.363 178.841 120.268 180.818 121.835 182.065C123.475 183.369 125.752 183.618 127.75 183.763C128.895 183.845 133.405 183.716 134.012 183.038C134.035 183.009 134.052 182.974 134.061 182.938C134.071 182.901 134.073 182.862 134.068 182.825C134.062 182.787 134.049 182.751 134.029 182.719C134.009 182.687 133.984 182.66 133.953 182.639Z" fill="#455A64"/>
<path d="M91.4784 99.7633C86.7781 107.107 54.1307 151.338 49.406 152.244C37.3664 154.536 26.3403 150.173 30.8888 139.212C36.1864 126.449 65.6513 101.145 85.2848 89.9401C99.3464 81.9128 96.1003 92.5124 91.4784 99.7633Z" fill="#DD6A57"/>
<path d="M75.5364 124.151L49.9297 111.73C49.9297 111.73 73.622 94.3193 84.6922 89.0195C96.2568 83.4972 100.933 86.7267 91.0571 101.094C81.3677 115.234 75.5364 124.151 75.5364 124.151Z" fill="#455A64"/>
<path d="M63.5663 102.092C63.5122 102.125 63.4599 102.161 63.4096 102.2L83.3319 112.479L83.4299 112.334L63.5663 102.092ZM58.0581 105.917C58.0058 105.948 57.9551 105.983 57.9064 106.02L80.0124 117.406L80.1054 117.267L58.0581 105.917ZM52.6283 109.778L52.4766 109.886L76.7173 122.39C76.7418 122.344 76.776 122.297 76.8054 122.251L52.6283 109.778Z" fill="white"/>
<path d="M75.8557 118.654C75.2675 118.299 74.6629 117.976 74.0441 117.686L72.1787 116.718C70.9204 116.066 69.6523 115.435 68.3744 114.814C65.8333 113.566 63.2922 112.309 60.7316 111.113C60.0265 110.782 59.3166 110.451 58.6066 110.145C57.8967 109.84 57.0839 109.545 56.3348 109.219C56.2908 109.219 56.2663 109.271 56.3103 109.296C56.9322 109.622 57.5295 110.005 58.1464 110.331C58.7633 110.658 59.4243 110.999 60.0657 111.325C61.3354 111.957 62.6084 112.581 63.8847 113.199C66.3964 114.405 68.9081 115.621 71.4443 116.77C72.1542 117.096 72.8642 117.406 73.5741 117.727C74.284 118.048 75.0429 118.452 75.8214 118.711C75.8606 118.737 75.8948 118.675 75.8557 118.654Z" fill="#263238"/>
<path d="M91.0958 101.078C81.3672 115.233 75.5359 124.151 75.5359 124.151L67.3496 120.17L95.4142 87.0469C97.5685 88.6047 96.5501 93.1592 91.0958 101.078Z" fill="#263238"/>
<path d="M76.6225 176.051H142.671C142.671 176.051 132.58 109.432 108.232 86.6487C105.226 83.8332 98.4397 84.475 94.0332 86.7988C92.4517 87.6321 86.7771 96.0216 85.1565 103.961C83.5359 111.9 76.4414 175.813 76.6225 176.051Z" fill="#455A64"/>
<path d="M136.67 147.605L107.361 85.9902C107.673 86.1764 107.965 86.3967 108.233 86.6475C122.05 99.5761 131.274 126.624 136.67 147.605Z" fill="#263238"/>
<path d="M105.402 85.163H98.6848C98.9981 85.1009 99.3066 85.0439 99.6199 84.9922H104.609C104.873 85.0388 105.128 85.0957 105.402 85.163ZM112.306 90.9803H90.6257C90.5915 91.0372 90.5572 91.0942 90.518 91.1511H112.418L112.306 90.9803ZM116.663 96.9684H87.4384L87.3649 97.1392H116.771L116.663 96.9684ZM120.228 102.957H85.3624C85.3624 103.014 85.333 103.07 85.3183 103.127H120.326L120.228 102.957ZM123.283 108.945H84.3489C84.3489 109.002 84.3489 109.059 84.3244 109.115H123.366C123.337 109.059 123.307 109.002 123.283 108.945ZM125.966 114.933H83.5557C83.5557 114.99 83.5557 115.047 83.5557 115.104H126.049C126.01 115.047 125.966 114.99 125.966 114.933ZM128.36 120.926H82.8262C82.8262 120.983 82.8262 121.04 82.8262 121.092H128.414C128.414 121.035 128.375 120.978 128.355 120.926H128.36ZM130.519 126.914H82.0771C82.0771 126.971 82.0771 127.023 82.0771 127.08H130.568C130.554 127.023 130.534 126.971 130.514 126.914H130.519ZM132.478 132.902H81.3672C81.3672 132.959 81.3672 133.016 81.3672 133.073H132.537C132.522 133.011 132.507 132.959 132.488 132.902H132.478ZM134.289 138.891H80.667C80.667 138.947 80.667 139.004 80.667 139.061H134.343C134.329 139.004 134.289 138.947 134.289 138.891ZM135.954 144.879H79.9816C79.9816 144.936 79.9816 144.993 79.9816 145.049H136.003L135.954 144.879ZM137.491 150.867H79.301C79.301 150.924 79.301 150.981 79.301 151.038H137.565C137.521 150.981 137.506 150.924 137.496 150.867H137.491ZM138.906 156.855H78.6302C78.6302 156.912 78.6302 156.969 78.6302 157.026H138.95C138.936 156.969 138.926 156.912 138.911 156.855H138.906ZM140.209 162.843H77.9839C77.9839 162.9 77.9839 162.957 77.9839 163.014H140.248C140.238 162.957 140.228 162.9 140.214 162.843H140.209ZM141.403 168.831H77.323C77.323 168.888 77.323 168.945 77.323 169.002H141.462L141.403 168.831ZM142.471 174.819H76.7109V174.99H142.515C142.495 174.933 142.485 174.876 142.476 174.819H142.471Z" fill="white"/>
<path d="M119.689 88.3248C136.336 94.8305 177.326 112.096 179.422 122.199C180.95 129.626 149.673 134.242 148.782 133.042C148.082 132.089 119.038 108.173 108.8 95.3015C99.899 84.1223 114.367 86.2442 119.689 88.3248Z" fill="#DD6A57"/>
<path d="M132.269 118.768L154.198 102.724C154.198 102.724 127.994 89.9508 116.195 86.7834C103.896 83.4814 99.8268 87.5183 111.925 99.8413C123.842 111.963 132.269 118.768 132.269 118.768Z" fill="#455A64"/>
<path d="M137.986 95.1992L120.986 108.718C121.03 108.754 121.065 108.795 121.109 108.826L138.162 95.2717L137.986 95.1992ZM143.998 97.9112L125.344 112.744L125.466 112.858L144.174 97.9888C144.116 97.963 144.081 97.9319 143.998 97.9112ZM149.957 100.67L129.814 116.714C129.854 116.753 129.897 116.789 129.941 116.823L150.123 100.778C150.065 100.747 150.009 100.71 149.957 100.67Z" fill="white"/>
<path d="M148.146 101.621C147.558 101.963 147.005 102.393 146.447 102.791C145.888 103.19 145.301 103.609 144.723 104.012C143.558 104.835 142.402 105.684 141.252 106.533C138.96 108.236 136.654 109.928 134.397 111.672C133.775 112.148 133.154 112.63 132.542 113.127C131.93 113.623 131.288 114.219 130.647 114.741C130.608 114.772 130.647 114.829 130.696 114.804C131.274 114.4 131.89 114.048 132.473 113.644C133.056 113.24 133.663 112.816 134.25 112.387C135.406 111.548 136.552 110.699 137.678 109.84C139.925 108.148 142.182 106.46 144.395 104.716L146.246 103.252C146.892 102.734 147.578 102.258 148.18 101.699C148.219 101.658 148.19 101.595 148.146 101.621Z" fill="#263238"/>
<path d="M130.241 116.93C129.625 116.382 129.052 115.781 128.454 115.212C127.857 114.643 127.24 114.079 126.638 113.509C125.458 112.402 124.263 111.31 123.078 110.202C120.684 107.956 118.29 105.705 115.92 103.433C114.574 102.139 113.252 100.809 111.861 99.5664L111.832 99.5975C112.924 100.845 114.099 102.02 115.259 103.189C115.015 103.029 114.77 102.863 114.535 102.672C114.3 102.48 114.016 102.278 113.766 102.066C113.516 101.854 113.276 101.616 112.992 101.419C112.948 101.388 112.909 101.45 112.939 101.487C113.379 102.036 113.897 102.509 114.476 102.889C114.76 103.091 115.059 103.272 115.357 103.443L115.685 103.603C116.723 104.638 117.768 105.674 118.819 106.709C121.169 109 123.566 111.242 126.011 113.437C126.687 114.037 127.367 114.627 128.053 115.217C128.738 115.807 129.492 116.377 130.193 116.982C130.227 117.024 130.276 116.967 130.241 116.93Z" fill="#263238"/>
<path d="M96.1354 99.588C100.018 100.106 105.928 93.279 107.994 88.0361C108.136 87.6738 107.289 84.1441 106.447 79.8018C105.957 77.1674 105.467 74.2174 105.183 71.495C105.13 70.9361 89.4277 77.4366 89.4277 77.4366C89.4277 77.4366 91.582 82.9693 92.0276 87.7204C92.0594 88.0975 92.0594 88.4768 92.0276 88.8539C92.0276 88.9056 92.0276 88.9677 92.0276 89.0402C91.9052 91.1984 92.385 99.0756 96.1354 99.588Z" fill="#DD6A57"/>
<path d="M93.6913 88.9457C93.1382 89.0258 92.5797 89.0569 92.0217 89.0388C92.0217 88.9664 92.0217 88.9043 92.0217 88.8473C92.0583 88.4722 92.0583 88.0941 92.0217 87.7191C91.581 82.9731 89.4316 77.4352 89.4316 77.4352C89.4316 77.4352 102.162 72.1561 104.737 71.5195C104.551 74.7232 103.2 87.6673 93.6913 88.9457Z" fill="#263238"/>
<path d="M103.444 50.373C106.7 55.7297 108.282 73.544 105.344 78.4919C101.084 85.6704 91.8601 88.9827 85.5245 83.0257C79.3799 77.2549 77.6907 54.0011 81.1963 49.2603C86.3079 42.2733 98.6266 42.4389 103.444 50.373Z" fill="#DD6A57"/>
<path d="M92.9811 65.9263C92.9811 65.8797 93.079 65.978 93.079 66.0246C93.1574 67.2305 93.4365 68.6124 94.4989 68.8815C94.5332 68.8815 94.5332 68.954 94.4989 68.9488C93.2259 68.8971 92.8734 67.0804 92.9811 65.9263Z" fill="#263238"/>
<path d="M93.878 64.5696C95.6895 64.2332 96.1938 68.0838 94.5193 68.3996C92.8449 68.7153 92.3602 64.8543 93.878 64.5696Z" fill="#263238"/>
<path d="M86.0387 66.7648C86.0387 66.7234 85.9555 66.8372 85.9653 66.8838C86.1562 68.0742 86.1856 69.4716 85.2162 70.015C85.1868 70.015 85.2162 70.0926 85.2162 70.0771C86.4598 69.7252 86.401 67.8775 86.0387 66.7648Z" fill="#263238"/>
<path d="M84.8645 65.6815C83.0333 65.8006 83.3956 69.6719 85.0946 69.5632C86.7935 69.4545 86.4068 65.5832 84.8645 65.6815Z" fill="#263238"/>
<path d="M95.0876 62.6228C94.5932 62.5419 94.103 62.4348 93.6188 62.3019C93.0774 62.269 92.5613 62.049 92.1499 61.6756C92.0451 61.5317 91.9883 61.3552 91.9883 61.1736C91.9883 60.992 92.0451 60.8155 92.1499 60.6716C92.6395 60.0764 93.3593 60.0557 94.0496 60.154C94.746 60.2535 95.3827 60.6223 95.8367 61.1891C95.9434 61.3253 96.0088 61.4922 96.0244 61.6682C96.04 61.8442 96.0051 62.0211 95.9243 62.1758C95.8434 62.3305 95.7204 62.4559 95.5711 62.5356C95.4219 62.6154 95.2534 62.6457 95.0876 62.6228Z" fill="#263238"/>
<path d="M83.2044 63.9489C83.6798 63.7726 84.1456 63.5687 84.5998 63.3382C85.1193 63.1964 85.5803 62.8782 85.912 62.4325C85.9902 62.2703 86.0153 62.0853 85.9834 61.9064C85.9515 61.7276 85.8644 61.5649 85.7357 61.444C85.158 60.9575 84.4383 61.0817 83.7773 61.3456C83.1106 61.5843 82.552 62.0769 82.2105 62.7275C82.1407 62.8816 82.1149 63.0538 82.1361 63.2232C82.1574 63.3926 82.2248 63.5517 82.3302 63.6812C82.4356 63.8108 82.5744 63.905 82.7297 63.9526C82.8849 64.0001 83.0499 63.9988 83.2044 63.9489Z" fill="#263238"/>
<path d="M95.3406 76.474C95.1105 76.7949 94.8902 77.2193 94.4838 77.3125C94.0627 77.3659 93.6357 77.3254 93.2304 77.1934C93.2223 77.1913 93.2138 77.1919 93.2061 77.1952C93.1983 77.1986 93.1918 77.2044 93.1874 77.2119C93.1831 77.2194 93.1811 77.2282 93.1818 77.237C93.1824 77.2457 93.1858 77.2541 93.1912 77.2607C93.3835 77.4713 93.626 77.6233 93.893 77.7007C94.1601 77.7781 94.442 77.7781 94.709 77.7007C94.9311 77.6026 95.1207 77.4372 95.2541 77.2253C95.3874 77.0135 95.4584 76.7647 95.4581 76.5103C95.4679 76.443 95.3749 76.4275 95.3406 76.474Z" fill="#263238"/>
<path d="M93.6861 73.0736C93.4621 73.5876 93.1398 74.0471 92.7396 74.423C92.3393 74.7989 91.8697 75.0831 91.3604 75.2577C90.9167 75.4177 90.4532 75.5083 89.9846 75.5268C89.895 75.5345 89.805 75.5345 89.7153 75.5268H89.4656C89.4038 75.5231 89.3447 75.4985 89.2971 75.4565C89.2494 75.4146 89.2159 75.3576 89.2013 75.2939C89.1965 75.2527 89.1965 75.211 89.2013 75.1697V75.0662C89.0593 74.1501 88.9613 72.7424 88.9613 72.7424C88.6627 72.9546 87.1449 73.9638 87.1106 73.4773C86.8119 69.4714 86.4839 65.0152 86.9882 60.9628C86.9934 60.9374 87.0067 60.9146 87.0259 60.8983C87.045 60.8819 87.0689 60.873 87.0935 60.873C87.1181 60.873 87.1419 60.8819 87.1611 60.8983C87.1802 60.9146 87.1935 60.9374 87.1987 60.9628C87.6247 64.803 87.4142 68.6951 87.7863 72.556C88.3258 72.191 88.9108 71.9071 89.5244 71.7124C89.6566 71.7124 89.6713 74.4399 89.7643 74.8436C89.7631 74.8574 89.7631 74.8713 89.7643 74.885C91.2331 74.885 92.2907 74.2433 93.5735 73.0011C93.6518 72.9028 93.7449 72.9753 93.6861 73.0736Z" fill="#263238"/>
<path d="M90.4355 74.987C90.9995 75.5716 91.6956 75.9939 92.4576 76.2136C92.8765 76.3203 93.3165 76.286 93.716 76.1153C94.5875 75.7323 94.4944 74.8525 94.23 74.1279C94.0861 73.7442 93.9004 73.3794 93.6768 73.041C92.8202 74.0383 91.6845 74.7201 90.4355 74.987Z" fill="#263238"/>
<path d="M92.4567 76.2147C92.8756 76.3214 93.3155 76.287 93.715 76.1163C94.5865 75.7333 94.4935 74.8535 94.2291 74.1289C93.2743 74.3773 92.4126 75.2106 92.4567 76.2147Z" fill="#FF98B9"/>
<path d="M105.922 63.9276C102.955 64.7298 100.953 57.1166 100.953 57.1166C100.953 57.1166 96.2574 57.7842 92.1397 52.0808C92.1397 52.0808 87.5814 57.8101 82.5091 58.5192C74.5577 59.6216 71.6201 49.2445 73.7939 46.191C76.8736 41.859 85.2852 43.7895 85.2852 43.7895C85.2852 43.7895 95.0774 36.9836 100.586 43.5721C100.586 43.5721 105.443 42.1695 107.469 47.6453C109.496 53.121 108.135 63.3273 105.922 63.9276Z" fill="#263238"/>
<path d="M102.265 57.65C99.9873 57.9892 97.6677 57.5196 95.6698 56.3147C93.6282 55.0105 91.9243 52.5262 91.8509 49.9488C91.8509 49.809 91.6305 49.8297 91.6452 49.9488C91.9096 52.7539 92.8742 55.3986 95.1264 57.0755C96.1555 57.8599 97.3613 58.3453 98.6233 58.4834C99.8853 58.6214 101.16 58.4072 102.319 57.8622C102.334 57.8468 102.346 57.8272 102.352 57.8055C102.358 57.7838 102.358 57.7608 102.352 57.7389C102.347 57.7171 102.336 57.6973 102.32 57.6816C102.305 57.6659 102.286 57.655 102.265 57.65Z" fill="#263238"/>
<path d="M106.873 44.2401C104.792 42.7599 102.442 43.205 100.234 44.059C100.111 44.1056 100.19 44.3229 100.307 44.2608C102.422 43.2257 105.105 44.0486 106.829 45.5651C108.552 47.0815 108.973 49.4778 109.145 51.6878C109.494 55.9541 108.336 60.2061 105.893 63.6226C105.854 63.6744 105.933 63.7417 105.972 63.6899C107.404 61.8848 108.473 59.7897 109.113 57.5329C109.752 55.276 109.95 52.905 109.693 50.5647C109.414 48.2719 108.772 45.6065 106.873 44.2401Z" fill="#263238"/>
<path d="M85.6919 44.0636C84.2628 42.7731 82.4351 42.0824 80.5559 42.1228C78.2909 42.2341 76.1445 43.2256 74.5287 44.9072C73.8954 45.6033 73.447 46.4636 73.2287 47.4013C73.0103 48.3391 73.0298 49.3211 73.2851 50.2484C73.8041 52.4428 75.3709 54.1404 77.0307 55.424C77.035 55.4288 77.0403 55.4327 77.0462 55.4352C77.0521 55.4377 77.0584 55.4388 77.0647 55.4385C77.071 55.4382 77.0772 55.4365 77.0829 55.4334C77.0885 55.4303 77.0934 55.426 77.0973 55.4208C77.1013 55.4155 77.104 55.4094 77.1055 55.4029C77.107 55.3964 77.1072 55.3896 77.1059 55.383C77.1047 55.3765 77.1022 55.3702 77.0985 55.3648C77.0948 55.3594 77.09 55.3548 77.0845 55.3515C75.6744 54.0731 74.4112 52.5101 73.9363 50.5486C73.6826 49.6355 73.6781 48.6653 73.9232 47.7496C74.1684 46.834 74.6532 46.0101 75.3219 45.373C77.9609 42.8784 82.5437 41.5897 85.5646 44.2137C85.5839 44.2211 85.6048 44.2222 85.6247 44.2169C85.6446 44.2116 85.6625 44.2002 85.6762 44.1841C85.6899 44.1679 85.6987 44.1478 85.7015 44.1264C85.7043 44.1049 85.7009 44.0831 85.6919 44.0636Z" fill="#263238"/>
<path d="M103.803 65.7918C103.803 65.7918 106.089 59.2809 108.792 60.0055C111.495 60.7301 110.721 69.4664 108.214 71.3193C107.907 71.5775 107.554 71.7681 107.176 71.8797C106.798 71.9913 106.403 72.0217 106.013 71.9691C105.624 71.9165 105.249 71.782 104.909 71.5735C104.57 71.365 104.274 71.0867 104.038 70.7552L103.803 65.7918Z" fill="#DD6A57"/>
<path d="M108.512 62.5052C108.521 62.5028 108.53 62.5037 108.538 62.5076C108.546 62.5115 108.553 62.5183 108.557 62.5268C108.561 62.5353 108.562 62.545 108.56 62.5542C108.558 62.5635 108.553 62.5718 108.546 62.5777C106.803 63.9492 106.25 66.1385 106.02 68.3122C106.412 67.391 107.097 66.7596 108.238 67.2202C108.249 67.2274 108.258 67.2381 108.263 67.2509C108.269 67.2637 108.27 67.2778 108.267 67.2914C108.265 67.3051 108.258 67.3175 108.248 67.327C108.239 67.3364 108.226 67.3425 108.213 67.3444C107.843 67.3237 107.476 67.4245 107.162 67.633C106.849 67.8415 106.603 68.1474 106.461 68.5089C106.226 69.1173 106.053 69.7506 105.947 70.398C105.902 70.605 105.565 70.5947 105.574 70.3618C105.577 70.3446 105.577 70.3271 105.574 70.31C104.884 67.7015 105.893 63.499 108.512 62.5052Z" fill="#263238"/>
<path d="M171.682 165.261C167.025 182.433 153.703 196.387 150.976 198.214C148.655 199.766 147.446 200.563 147.446 200.563C143.333 203.462 140.503 202.675 140.503 202.675C140.503 202.675 136.679 207.504 133.536 205.542C130.006 203.363 136.062 197.013 137.374 191.366C140.376 178.427 141.223 159.159 141.737 155.334L171.682 165.261Z" fill="#DD6A57"/>
<path d="M149.532 180.145C148.578 183.934 147.731 187.681 146.296 191.314C144.72 195.299 142.575 198.855 140.475 202.53C140.465 202.552 140.462 202.577 140.468 202.6C140.474 202.624 140.487 202.645 140.506 202.659C140.524 202.673 140.547 202.68 140.57 202.678C140.593 202.676 140.615 202.666 140.631 202.649C145.434 196.63 148.93 188.017 149.846 180.223C149.87 180.032 149.581 179.959 149.532 180.145Z" fill="#263238"/>
<path d="M157.179 180.926C156.058 184.549 154.045 190.925 147.347 200.49C147.323 200.521 147.347 200.568 147.396 200.536C152.416 195.164 155.922 188.42 157.522 181.061C157.576 180.828 157.257 180.688 157.179 180.926Z" fill="#263238"/>
<path d="M140.057 175.539C139.818 173.692 138.897 173.811 137.311 176.673C135.724 179.535 131.749 192.282 127.66 190.44C123.572 188.597 129.428 170.695 132.415 166.146C135.401 161.596 141.717 155.334 141.717 155.334C141.257 159.06 140.909 168.206 140.057 175.539Z" fill="#DD6A57"/>
<path d="M179.413 122.199C182.679 133.041 174.062 157.222 171.682 165.259C170.644 168.763 140.376 159.406 141.507 155.664C143.828 148.009 149.831 134.076 148.773 133.041C147.936 132.218 176.441 112.349 179.413 122.199Z" fill="#DD6A57"/>
<path d="M157.067 126.521C156.665 126.686 156.264 126.816 155.872 127.038C155.481 127.261 155.064 127.437 154.678 127.659C153.928 128.104 153.214 128.613 152.543 129.181C151.866 129.735 151.225 130.337 150.624 130.982C150.31 131.313 150.007 131.655 149.718 132.017C149.425 132.349 149.168 132.715 148.954 133.109C148.943 133.128 148.938 133.149 148.938 133.171C148.938 133.193 148.943 133.215 148.954 133.233C148.954 133.233 148.954 133.27 148.983 133.275C149.111 133.332 149.184 133.218 149.277 133.135L149.737 132.685C150.061 132.369 150.374 132.033 150.717 131.712C151.368 131.075 152.053 130.464 152.758 129.89C153.463 129.315 154.188 128.772 154.922 128.249C155.29 127.985 155.652 127.732 156.024 127.457C156.396 127.183 156.763 126.94 157.145 126.707C157.219 126.634 157.16 126.479 157.067 126.521Z" fill="#263238"/>
<path d="M47.6289 121.195C42.7328 124.818 27.8241 138.932 30.8303 146.644C33.8365 154.355 45.313 154.169 61.3625 151.1L47.6289 121.195Z" fill="#DD6A57"/>
<path d="M47.1973 121.531C53.7728 115.74 63.3251 108.706 67.2371 108.929C71.3401 109.162 85.7298 110.601 88.971 112.071C92.2123 113.54 101.534 123.131 102.489 126.309C103.253 128.855 98.5234 131.256 92.5207 127.173C86.9049 123.353 85.7396 122.147 83.9084 121.48C82.0773 120.812 74.8604 122.277 73.9889 125.154C73.4748 126.852 75.5556 131.432 78.4492 132.4C81.3428 133.368 84.3246 131.551 88.4031 131.784C92.4815 132.017 96.3984 136.271 95.6102 137.669C94.8219 139.066 92.9956 138.316 87.4287 140.283C83.8497 141.551 79.5949 143.828 73.5384 147.596C67.335 151.451 58.3604 151.384 58.3604 151.384L47.1973 121.531Z" fill="#DD6A57"/>
<path d="M92.7701 127.898C102.562 131.138 98.0432 146.484 88.2265 143.239C78.4098 139.994 82.9583 124.648 92.7701 127.898Z" fill="#165DFC"/>
<path opacity="0.1" d="M92.7701 127.898C102.562 131.138 98.0432 146.484 88.2265 143.239C78.4098 139.994 82.9583 124.648 92.7701 127.898Z" fill="black"/>
<path d="M91.8506 127.592C101.188 130.697 96.6635 146.027 87.307 142.932C77.9505 139.837 82.499 124.497 91.8506 127.592Z" fill="#165DFC"/>
<path opacity="0.1" d="M83.4723 134.822C83.1932 137.622 84.4074 140.541 87.6927 141.628C95.458 144.216 99.2133 131.458 91.4627 128.896L91.3109 128.85C98.5572 131.437 94.9537 143.46 87.5507 141.012C86.2916 140.651 85.193 139.832 84.4474 138.701C83.7017 137.569 83.3565 136.196 83.4723 134.822Z" fill="black"/>
<g opacity="0.1">
<path d="M90.9879 130.486C91.05 130.513 91.1 130.564 91.1274 130.628C91.1547 130.693 91.1574 130.766 91.1348 130.833L90.983 131.252C91.5966 131.572 92.1074 132.076 92.4519 132.701C92.4825 132.743 92.503 132.793 92.5115 132.845C92.5201 132.897 92.5164 132.951 92.5008 133.001C92.4727 133.071 92.4202 133.126 92.3543 133.155C92.2885 133.184 92.2146 133.184 92.1483 133.157C92.0816 133.131 92.0271 133.079 91.9965 133.012C91.7141 132.465 91.2871 132.017 90.7676 131.723L89.6905 134.647C91.0712 135.594 91.4824 136.448 91.1054 137.468C90.7039 138.575 89.5338 139.021 88.2853 138.534L87.9866 139.347C87.9744 139.381 87.956 139.412 87.9324 139.438C87.9088 139.465 87.8805 139.486 87.8491 139.501C87.8177 139.516 87.7839 139.524 87.7495 139.525C87.7152 139.526 87.6809 139.52 87.6488 139.507C87.6166 139.494 87.5872 139.475 87.5622 139.45C87.5371 139.425 87.517 139.395 87.5029 139.362C87.4888 139.329 87.481 139.293 87.48 139.256C87.479 139.22 87.4848 139.184 87.497 139.15L87.7956 138.327C86.9958 137.921 86.3463 137.246 85.9498 136.407C85.925 136.369 85.9093 136.325 85.9042 136.279C85.8991 136.233 85.9047 136.186 85.9204 136.143C85.9485 136.076 85.9992 136.023 86.0625 135.993C86.1259 135.963 86.1974 135.96 86.2632 135.983C86.329 136.009 86.3831 136.061 86.4149 136.127C86.7375 136.88 87.2937 137.494 87.9915 137.866L89.0833 134.896C87.7271 133.943 87.3256 133.115 87.7075 132.075C88.0894 131.035 89.2596 130.574 90.4738 131.04L90.6207 130.647C90.6321 130.608 90.6514 130.573 90.677 130.544C90.7026 130.514 90.734 130.491 90.769 130.476C90.804 130.461 90.8417 130.454 90.8795 130.455C90.9173 130.457 90.9543 130.468 90.9879 130.486ZM89.3183 134.363L90.3612 131.516C89.382 131.143 88.5448 131.49 88.2657 132.241C87.9866 132.991 88.1629 133.529 89.3183 134.363ZM89.5191 135.175L88.4615 138.058C89.4407 138.441 90.3172 138.099 90.6109 137.307C90.9047 136.516 90.7137 136.003 89.5191 135.175Z" fill="black"/>
</g>
<path d="M67.2383 108.929C72.0757 107.542 82.3134 106.486 89.1289 109.302C93.7361 111.206 100.272 128.56 97.8831 130.604C95.4938 132.649 93.4766 130.723 90.8327 127.499C89.8535 126.324 86.0149 118.638 83.9488 118.97C80.9719 119.441 73.8187 123.964 73.8187 123.964L67.2383 108.929Z" fill="#DD6A57"/>
<path d="M98.3923 129.389C99.1267 125.45 97.1046 121.025 94.8573 116.895C94.8182 116.833 94.7251 116.895 94.7594 116.947C95.3322 117.982 98.3336 125.497 98.3189 129.394C98.3189 129.446 98.3825 129.436 98.3923 129.389Z" fill="#263238"/>
<path d="M67.2383 108.929C72.0757 107.542 82.3134 106.486 89.1289 109.302C93.7361 111.206 96.3604 127.887 93.9711 129.932C91.5818 131.976 88.5413 129.388 86.3625 125.149C85.6575 123.778 84.4041 117.904 82.3526 118.214C79.3758 118.69 72.0708 119.927 72.0708 119.927L67.2383 108.929Z" fill="#DD6A57"/>
<path d="M76.4418 119.038C77.2105 118.826 77.4798 118.748 78.2534 118.546C79.027 118.344 79.7957 118.163 80.5791 118.029C81.2542 117.852 81.9529 117.797 82.6452 117.868C83.2933 118.024 83.876 118.398 84.305 118.934C85.3185 120.104 85.6759 121.807 86.1215 123.277C86.6111 124.922 87.9086 128.038 89.7299 129.456C90.2107 129.868 90.7677 130.17 91.3652 130.341C91.8028 130.492 92.2691 130.524 92.7215 130.434C94.5575 129.834 94.9247 127.495 94.9051 125.564C94.866 121.941 93.779 118.318 92.5354 115.011C92.2318 114.199 91.9087 113.391 91.5856 112.584C91.2727 111.634 90.7719 110.766 90.1167 110.037C88.9661 108.914 86.0089 108.335 85.0933 108.143C85.0247 108.143 85.059 108.019 85.1276 108.035C86.239 108.247 89.3089 108.418 91.091 110.312C91.7373 111.005 92.0703 111.989 92.4326 112.869C92.7949 113.748 93.1964 114.727 93.5391 115.674C94.2248 117.504 94.7733 119.389 95.1793 121.31C95.5465 123.132 95.8697 125.155 95.5808 127.003C95.3311 128.613 94.2784 130.233 92.7557 130.709C91.4778 131.118 90.2048 130.284 89.6467 129.875C89.0989 129.469 88.6049 128.987 88.1779 128.442C87.2987 127.146 86.51 125.785 85.8179 124.369C85.1716 122.971 84.8828 121.377 84.1288 120.042C83.9606 119.717 83.7328 119.43 83.4588 119.199C83.1847 118.968 82.8699 118.797 82.5326 118.696C81.8477 118.588 81.1513 118.588 80.4665 118.696C79.1477 118.752 77.8365 118.936 76.5496 119.245C76.2117 119.333 76.1187 119.11 76.4418 119.038Z" fill="#263238"/>
<path d="M63.5117 109.929C64.8043 109.121 72.1779 104.235 75.0764 103.376C77.9749 102.517 89.3045 100.856 91.5714 103.583C94.421 107.015 85.9115 109.877 82.1023 110.762C78.2931 111.647 74.9344 116.155 74.9344 116.155L63.5117 109.929Z" fill="#DD6A57"/>
<path d="M87.9776 108.866C86.7003 109.113 85.4355 109.427 84.188 109.808C82.9821 110.082 81.7972 110.45 80.6432 110.911C79.5396 111.455 78.5275 112.185 77.6468 113.074C77.2012 113.504 76.79 113.954 76.3836 114.42C75.9772 114.886 75.5366 115.486 75.0861 115.972C75.0372 116.024 75.0861 116.112 75.1596 116.055C76.0234 115.179 76.9392 114.361 77.9014 113.607C78.879 112.805 79.9462 112.132 81.079 111.604C83.3361 110.569 85.7695 110.052 88.0315 109.017C88.1245 108.991 88.0657 108.851 87.9776 108.866Z" fill="#263238"/>
<path d="M93.3871 130.144C94.2586 130.661 95.2427 131.179 96.2758 131.132C96.7171 131.119 97.1449 130.968 97.5047 130.698C97.6927 130.553 97.858 130.379 97.9943 130.18C98.1569 129.98 98.2471 129.725 98.2489 129.461C98.2489 129.388 98.3419 129.393 98.3272 129.461C98.3043 129.608 98.2912 129.757 98.2881 129.906C98.2675 130.03 98.2346 130.151 98.1901 130.268C98.1046 130.499 97.9764 130.71 97.8131 130.889C97.4503 131.281 96.972 131.531 96.4569 131.598C95.2378 131.774 94.1704 131.081 93.3332 130.232C93.3277 130.228 93.323 130.223 93.3193 130.218C93.3156 130.212 93.313 130.205 93.3116 130.199C93.3103 130.192 93.3102 130.185 93.3114 130.178C93.3125 130.172 93.315 130.165 93.3185 130.159C93.322 130.154 93.3266 130.149 93.332 130.145C93.3373 130.141 93.3434 130.138 93.3497 130.137C93.3561 130.135 93.3627 130.135 93.3691 130.136C93.3755 130.137 93.3816 130.14 93.3871 130.144Z" fill="#263238"/>
<path d="M73.7535 117.758C72.689 119.382 71.7241 121.076 70.8647 122.83C70.0435 124.574 69.4631 126.434 69.1413 128.352C68.8328 130.423 68.9944 132.493 69.0385 134.604C69.0794 135.601 69.0417 136.6 68.9259 137.591C68.8065 138.454 68.5997 139.3 68.309 140.116C67.6058 141.953 66.4799 143.576 65.0335 144.837C64.9796 144.888 65.0335 144.981 65.1118 144.94C66.4797 143.938 67.6228 142.631 68.4604 141.11C69.2979 139.59 69.8095 137.894 69.959 136.142C70.1352 133.999 69.7925 131.851 69.959 129.703C70.1302 127.748 70.5382 125.824 71.1732 123.979C71.8692 121.825 72.7561 119.746 73.822 117.768C73.8226 117.764 73.8224 117.759 73.8213 117.754C73.8201 117.749 73.8181 117.745 73.8154 117.741C73.8127 117.737 73.8093 117.734 73.8054 117.732C73.8015 117.729 73.7971 117.728 73.7926 117.727C73.7835 117.726 73.7743 117.728 73.767 117.734C73.7596 117.74 73.7547 117.748 73.7535 117.758Z" fill="#263238"/>
<path d="M55.8688 114.525C52.0659 116.977 48.4439 119.729 45.0337 122.759C41.5838 125.735 38.4631 129.114 35.7311 132.831C34.2196 134.938 32.8984 137.191 31.7848 139.559C31.7603 139.605 31.824 139.642 31.8533 139.595C32.9897 137.585 34.2507 135.658 35.6282 133.824C36.9916 132.004 38.4479 130.265 39.9907 128.613C43.1457 125.287 46.5318 122.216 50.1208 119.426C52.138 117.821 53.9887 116.289 55.9961 114.68C56.1822 114.525 56.0843 114.38 55.8688 114.525Z" fill="#263238"/>
<path d="M112.439 213.475C112.405 213.687 112.365 213.899 112.326 214.116C112.36 213.904 112.4 213.687 112.434 213.475H112.439Z" fill="#EBEBEB"/>
<path d="M34.7717 156.261C28.1571 165.727 21.2633 176.714 19.5938 188.587C19.5938 188.763 19.8483 188.825 19.8875 188.644C20.6512 185.407 21.6329 182.231 22.8252 179.142C27.173 177.874 31.4375 176.839 33.724 172.274C36.0496 167.585 35.7559 161.472 35.3152 156.364C35.2565 156.09 34.899 156.074 34.7717 156.261Z" fill="#165DFC"/>
<path d="M22.866 179.073C25.838 172.029 29.6521 164.954 34.4992 159.157C34.5335 159.116 34.5825 159.157 34.5531 159.214C31.3804 163.355 28.9666 167.837 26.6116 172.407C28.8001 170.057 31.1992 167.956 33.2752 165.461C33.3144 165.415 33.3829 165.461 33.3437 165.534C31.2825 168.121 29.0352 170.984 26.3521 172.919C25.6275 174.32 24.8996 175.726 24.1684 177.137C24.3496 177.029 24.5356 176.935 24.7217 176.837C24.751 176.837 24.7804 176.873 24.751 176.889C24.5454 176.998 24.3398 177.117 24.1292 177.21C23.7816 177.877 23.4389 178.54 23.0766 179.208C22.9982 179.327 22.8024 179.197 22.866 179.073Z" fill="#263238"/>
<path d="M25.0776 176.59C26.8559 175.541 28.552 174.344 30.15 173.009C30.1941 172.973 30.2577 173.035 30.2137 173.076C28.6616 174.483 26.9631 175.698 25.1511 176.699C25.0678 176.766 24.9944 176.642 25.0776 176.59Z" fill="#263238"/>
<path d="M18.8209 186.837C18.8209 186.982 19.0657 186.977 19.0608 186.837C19.0951 182.924 19.0608 178.996 19.1195 175.068C20.0694 173.049 22.1013 171.932 23.526 170.312C24.5427 169.126 25.4281 167.822 26.1651 166.425C27.8668 163.086 28.908 159.416 29.2251 155.639C29.6168 151.457 28.1137 137.659 26.4441 138.135C25.5824 138.383 22.7818 145.22 22.0376 147.482C20.8342 151.209 19.9541 155.045 19.4084 158.941C18.0473 168.112 18.1599 177.563 18.8209 186.837Z" fill="#165DFC"/>
<path d="M18.7909 169.955C18.9917 165.007 20.0492 160.013 21.0334 155.215C22.0958 150.039 23.3394 145.179 25.856 140.568C25.905 140.48 26.0225 140.568 25.9833 140.646C24.3037 144.231 23.0032 148 22.1056 151.887C22.277 151.607 22.4826 151.343 22.654 151.08C22.7225 150.976 22.8841 151.08 22.8204 151.183C22.595 151.6 22.3309 151.991 22.0322 152.353C22.0267 152.355 22.0209 152.356 22.015 152.356C22.0091 152.356 22.0033 152.355 21.9979 152.353C21.1313 156.048 20.529 159.826 19.9807 163.599L20.0982 163.454C20.104 163.449 20.1114 163.446 20.1191 163.446C20.1267 163.445 20.1343 163.448 20.1405 163.453C20.1467 163.457 20.1512 163.464 20.1533 163.472C20.1554 163.48 20.155 163.488 20.152 163.496C20.0884 163.62 20.0101 163.744 19.9415 163.868C19.6722 165.783 19.4225 167.693 19.1728 169.587C22.4141 166.653 25.1706 163.242 26.7227 159.014C26.7227 159.014 26.7569 159.014 26.752 159.014C25.2293 163.397 22.8351 167.295 19.1434 169.96L18.9378 171.487C18.9378 171.59 18.7664 171.564 18.7664 171.461C18.7664 171.011 18.7664 170.56 18.8056 170.11C18.742 170.074 18.742 170.001 18.7909 169.955Z" fill="#263238"/>
<path d="M20.3105 162.786C22.7585 158.899 25.0744 155.126 26.8811 150.83C26.8811 150.784 26.979 150.83 26.9594 150.866C25.4416 155.136 23.3118 159.458 20.4378 162.884C20.379 162.956 20.2615 162.863 20.3105 162.786Z" fill="#263238"/>
<path d="M23.5858 149.873C24.6042 147.963 25.6814 146.105 26.641 144.18C26.6704 144.128 26.7389 144.18 26.7194 144.226C25.9321 146.257 24.9337 148.189 23.7425 149.987C23.674 150.09 23.5271 149.982 23.5858 149.873Z" fill="#263238"/>
<path d="M23.1893 150.701V150.732C23.1893 150.732 23.1501 150.701 23.1893 150.701Z" fill="#263238"/>
<path d="M16.2942 175.513C16.2547 178.103 15.9726 180.683 15.452 183.214C15.4912 183.494 15.5255 183.773 15.5646 184.058C16.3227 181.254 16.7615 178.365 16.8719 175.451C16.8938 175.411 16.9054 175.365 16.9054 175.319C16.9054 175.273 16.8938 175.227 16.8719 175.187C16.9803 171.288 16.7096 167.388 16.064 163.547C14.9183 156.358 12.4164 149.464 7.67698 144.077C7.63782 144.041 7.59147 144.015 7.54147 144.002C7.49147 143.988 7.43917 143.987 7.38857 143.998C7.33797 144.009 7.29044 144.032 7.24962 144.065C7.20879 144.099 7.17577 144.141 7.15309 144.191C5.23871 149.335 5.90458 155.468 7.53499 160.597C8.42155 163.375 9.68842 166.001 11.2952 168.391C12.9207 170.829 14.9967 172.863 16.2942 175.513Z" fill="#165DFC"/>
<path d="M8.23611 146.504C12.7307 154.231 15.8545 163.351 16.2364 172.454C16.2364 172.62 15.9867 172.661 15.9671 172.496C15.8594 171.678 15.7419 170.866 15.6195 170.058C13.7638 168.174 11.8543 166.187 10.5226 163.847C10.5226 163.806 10.5569 163.759 10.5862 163.796C12.1304 165.793 13.7832 167.694 15.5362 169.489C15.2098 167.474 14.8263 165.492 14.3856 163.542C14.2632 163.397 14.1457 163.247 14.0282 163.097C13.9107 162.947 14.0821 162.864 14.1604 162.957C14.2388 163.05 14.2339 163.045 14.2681 163.087C13.6363 160.41 12.8531 157.776 11.9229 155.199C10.7772 153.76 9.4993 152.513 8.66696 150.774C8.66696 150.733 8.70124 150.702 8.72572 150.738C9.39649 151.731 10.0428 152.73 10.8017 153.652C11.1052 154.019 11.4382 154.366 11.7515 154.723C10.7148 151.93 9.48587 149.221 8.07453 146.618C8.06403 146.595 8.06164 146.57 8.06781 146.545C8.07398 146.521 8.08828 146.5 8.10806 146.486C8.12783 146.472 8.15173 146.466 8.17529 146.47C8.19885 146.473 8.22046 146.485 8.23611 146.504Z" fill="#263238"/>
<path d="M9.14639 156.011C10.6152 158.082 12.2505 160.048 13.6019 162.186C13.641 162.248 13.5578 162.31 13.5088 162.263C11.7756 160.54 10.3068 158.19 9.04847 156.053C9.0093 156.006 9.10233 155.954 9.14639 156.011Z" fill="#263238"/>
<path d="M13.8074 162.661L13.8661 162.729C13.9102 162.775 13.8416 162.843 13.8025 162.801L13.7388 162.734C13.6947 162.687 13.7633 162.62 13.8074 162.661Z" fill="#263238"/>
<path d="M1.19999 161.322C1.55741 165.287 3.53055 170.028 5.93944 173.081C6.99844 174.409 8.30735 175.49 9.7829 176.254C11.4476 177.123 13.2102 178.127 14.914 178.842C15.7328 181.046 16.3414 183.331 16.7305 185.663C16.7893 185.466 16.8431 185.259 16.897 185.058C15.7905 175.017 9.64581 166.426 1.78263 160.929C1.72171 160.886 1.65015 160.862 1.57674 160.861C1.50333 160.86 1.43127 160.882 1.36939 160.924C1.30752 160.966 1.25853 161.026 1.22844 161.096C1.19835 161.167 1.18846 161.246 1.19999 161.322Z" fill="#165DFC"/>
<path d="M3.91225 164.286C3.85839 164.235 3.91225 164.131 3.99549 164.178C8.31475 167.575 11.759 172.063 14.013 177.231C14.0668 177.365 13.8906 177.484 13.8171 177.35C13.4499 176.672 13.0778 176.014 12.7008 175.367C10.9039 175.01 9.20496 173.675 7.87322 172.407C7.83894 172.376 7.87322 172.319 7.92707 172.355C8.61302 173.014 9.37463 173.579 10.194 174.037C10.9284 174.431 11.7167 174.679 12.4756 174.995C11.8097 173.877 11.1193 172.805 10.3947 171.77C8.45947 170.99 6.64446 169.91 5.00898 168.567C4.95513 168.525 5.00898 168.437 5.05794 168.473C6.6779 169.511 8.34813 170.457 10.0618 171.31C8.9591 169.781 7.77046 168.324 6.5023 166.947C5.89029 166.605 5.27337 166.264 4.68094 165.912C4.63198 165.886 4.68094 165.798 4.72011 165.813C5.21041 165.999 5.67868 166.243 6.11551 166.543C5.42515 165.767 4.69563 165.016 3.91225 164.286Z" fill="#263238"/>
<path d="M4.07818 167.754C4.1859 167.82 4.28754 167.896 4.38174 167.982C4.41112 168.008 4.38174 168.049 4.34258 168.034C4.23353 167.981 4.12873 167.918 4.02922 167.847C3.97537 167.811 4.02433 167.718 4.07818 167.754Z" fill="#263238"/>
<path d="M29.166 207.405H7.62305L9.36117 186.667L9.74307 182.092H27.046L27.4279 186.667L29.166 207.405Z" fill="#455A64"/>
<path d="M27.428 186.667H9.36133L9.74323 182.092H27.0461L27.428 186.667Z" fill="#263238"/>
<path d="M28.079 178.898H8.71484V183.427H28.079V178.898Z" fill="#455A64"/>
<path d="M60.5946 167.772C60.7561 166.892 60.8541 166.105 60.9373 165.267C61.0205 164.428 61.0597 163.595 61.0548 162.741C61.0588 161.863 60.9867 160.987 60.8394 160.122C60.6847 159.121 60.3053 158.173 59.7329 157.359C59.3762 156.898 58.9193 156.536 58.4011 156.303C58.1424 156.188 57.871 156.108 57.5932 156.065C57.334 156.024 57.0715 156.012 56.8099 156.028C55.8417 156.106 54.92 156.499 54.1709 157.152C53.4974 157.722 52.9254 158.414 52.4817 159.196C52.02 159.966 51.7056 160.824 51.5563 161.722C51.4579 162.258 51.4985 162.812 51.6738 163.326C51.7947 163.658 52.0082 163.943 52.2858 164.144C52.5499 164.329 52.8558 164.436 53.172 164.454C53.4974 164.472 53.8205 164.389 54.1023 164.216C54.3443 164.055 54.5498 163.839 54.7045 163.585C54.9497 163.176 55.1161 162.721 55.1941 162.244C55.3339 161.398 55.3339 160.533 55.1941 159.688C55.0712 158.84 54.7791 158.031 54.3373 157.312C54.1013 156.931 53.7823 156.615 53.4071 156.391C53.0187 156.167 52.57 156.088 52.1341 156.168C51.3532 156.353 50.6464 156.791 50.112 157.421C49.0976 158.602 48.2888 159.963 47.7227 161.442C48.3874 160.042 49.2789 158.775 50.3568 157.7C50.8596 157.184 51.5039 156.849 52.1977 156.743C52.5086 156.737 52.814 156.829 53.0755 157.007C53.3369 157.184 53.5426 157.44 53.6666 157.742C53.9786 158.385 54.1604 159.09 54.2002 159.812C54.258 160.531 54.2 161.256 54.0289 161.954C53.9569 162.255 53.8305 162.538 53.6568 162.788C53.6025 162.862 53.5319 162.92 53.4511 162.959C53.4054 162.977 53.3549 162.977 53.3091 162.959C53.2406 162.959 53.1623 162.902 53.1525 162.876C53.1321 162.839 53.1172 162.799 53.1084 162.757C53.0748 162.514 53.0915 162.267 53.1574 162.032C53.5388 160.747 54.3227 159.637 55.3802 158.885C55.808 158.558 56.3208 158.377 56.849 158.368C56.9613 158.374 57.0727 158.391 57.182 158.42C57.2708 158.444 57.3563 158.481 57.4366 158.528C57.5893 158.623 57.7172 158.756 57.8087 158.916C58.0685 159.415 58.2206 159.968 58.2542 160.536C58.3118 161.225 58.3118 161.918 58.2542 162.607C58.1967 163.339 58.1035 164.068 57.9751 164.791C57.8478 165.51 57.6863 166.271 57.4855 166.928L60.5946 167.772Z" fill="#165DFC"/>
<path opacity="0.1" d="M60.5946 167.772C60.7561 166.892 60.8541 166.105 60.9373 165.267C61.0205 164.428 61.0597 163.595 61.0548 162.741C61.0588 161.863 60.9867 160.987 60.8394 160.122C60.6847 159.121 60.3053 158.173 59.7329 157.359C59.3762 156.898 58.9193 156.536 58.4011 156.303C58.1424 156.188 57.871 156.108 57.5932 156.065C57.334 156.024 57.0715 156.012 56.8099 156.028C55.8417 156.106 54.92 156.499 54.1709 157.152C53.4974 157.722 52.9254 158.414 52.4817 159.196C52.02 159.966 51.7056 160.824 51.5563 161.722C51.4579 162.258 51.4985 162.812 51.6738 163.326C51.7947 163.658 52.0082 163.943 52.2858 164.144C52.5499 164.329 52.8558 164.436 53.172 164.454C53.4974 164.472 53.8205 164.389 54.1023 164.216C54.3443 164.055 54.5498 163.839 54.7045 163.585C54.9497 163.176 55.1161 162.721 55.1941 162.244C55.3339 161.398 55.3339 160.533 55.1941 159.688C55.0712 158.84 54.7791 158.031 54.3373 157.312C54.1013 156.931 53.7823 156.615 53.4071 156.391C53.0187 156.167 52.57 156.088 52.1341 156.168C51.3532 156.353 50.6464 156.791 50.112 157.421C49.0976 158.602 48.2888 159.963 47.7227 161.442C48.3874 160.042 49.2789 158.775 50.3568 157.7C50.8596 157.184 51.5039 156.849 52.1977 156.743C52.5086 156.737 52.814 156.829 53.0755 157.007C53.3369 157.184 53.5426 157.44 53.6666 157.742C53.9786 158.385 54.1604 159.09 54.2002 159.812C54.258 160.531 54.2 161.256 54.0289 161.954C53.9569 162.255 53.8305 162.538 53.6568 162.788C53.6025 162.862 53.5319 162.92 53.4511 162.959C53.4054 162.977 53.3549 162.977 53.3091 162.959C53.2406 162.959 53.1623 162.902 53.1525 162.876C53.1321 162.839 53.1172 162.799 53.1084 162.757C53.0748 162.514 53.0915 162.267 53.1574 162.032C53.5388 160.747 54.3227 159.637 55.3802 158.885C55.808 158.558 56.3208 158.377 56.849 158.368C56.9613 158.374 57.0727 158.391 57.182 158.42C57.2708 158.444 57.3563 158.481 57.4366 158.528C57.5893 158.623 57.7172 158.756 57.8087 158.916C58.0685 159.415 58.2206 159.968 58.2542 160.536C58.3118 161.225 58.3118 161.918 58.2542 162.607C58.1967 163.339 58.1035 164.068 57.9751 164.791C57.8478 165.51 57.6863 166.271 57.4855 166.928L60.5946 167.772Z" fill="black"/>
<path d="M63.0762 206.227C65.2354 209.451 64.7947 219.3 66.102 220.682C67.4092 222.064 80.7904 221.914 81.7108 221.101C82.6313 220.289 82.2004 216.811 83.1797 216.241C83.5958 216.014 63.0762 206.227 63.0762 206.227Z" fill="#165DFC"/>
<path opacity="0.1" d="M63.0762 206.227C65.2354 209.451 64.7947 219.3 66.102 220.682C67.4092 222.064 80.7904 221.914 81.7108 221.101C82.6313 220.289 82.2004 216.811 83.1797 216.241C83.5958 216.014 63.0762 206.227 63.0762 206.227Z" fill="black"/>
<path d="M120.283 206.387C117.585 210.527 119.044 219.326 117.737 220.682C116.429 222.038 103.048 221.913 102.128 221.101C101.207 220.288 101.638 216.624 101.105 215.925C100.825 215.558 120.283 206.387 120.283 206.387Z" fill="#165DFC"/>
<path opacity="0.1" d="M120.283 206.387C117.585 210.527 119.044 219.326 117.737 220.682C116.429 222.038 103.048 221.913 102.128 221.101C101.207 220.288 101.638 216.624 101.105 215.925C100.825 215.558 120.283 206.387 120.283 206.387Z" fill="black"/>
<path opacity="0.3" d="M83.1992 216.241C83.0427 216.365 82.911 216.52 82.8118 216.697C82.7126 216.875 82.6479 217.072 82.6215 217.277C76.4393 216.519 70.3953 214.808 64.6821 212.199C64.3687 209.798 63.9232 207.51 63.0762 206.242C63.0762 206.232 83.5958 216.019 83.1992 216.241Z" fill="black"/>
<path opacity="0.3" d="M120.284 206.387C119.28 207.939 118.849 210.108 118.639 212.318C113.16 214.884 107.352 216.581 101.404 217.354C101.413 216.86 101.312 216.371 101.111 215.925C100.822 215.558 120.284 206.387 120.284 206.387Z" fill="black"/>
<path d="M90.7849 146.697C63.8562 146.697 53.5156 168.999 53.5156 182.052C53.5156 194.928 61.3494 216.811 90.7849 216.811C120.22 216.811 129.978 198.272 129.978 181.757C129.978 165.241 118.012 146.697 90.7849 146.697Z" fill="#165DFC"/>
<path opacity="0.1" d="M90.7849 146.697C63.8562 146.697 53.5156 168.999 53.5156 182.052C53.5156 194.928 61.3494 216.811 90.7849 216.811C120.22 216.811 129.978 198.272 129.978 181.757C129.978 165.241 118.012 146.697 90.7849 146.697Z" fill="black"/>
<path d="M98.3887 148.311C98.3887 148.311 110.698 138.333 124.03 139.513C128.617 139.922 120.999 150.439 120.857 158.663L98.3887 148.311Z" fill="#165DFC"/>
<path opacity="0.1" d="M98.3887 148.311C98.3887 148.311 110.698 138.333 124.03 139.513C128.617 139.922 120.999 150.439 120.857 158.663L98.3887 148.311Z" fill="black"/>
<path opacity="0.3" d="M115.716 154.635C115.638 155.153 119.887 157.078 120.328 156.783C120.769 156.488 121.209 150.019 124.676 143.125C125.185 142.11 116.538 149.056 115.716 154.635Z" fill="black"/>
<path opacity="0.3" d="M118.388 180.265C118.799 180.198 119.183 180.01 119.496 179.721C119.809 179.432 120.038 179.055 120.155 178.634C120.116 179.152 119.967 179.654 119.718 180.102C119.47 180.55 119.129 180.933 118.721 181.222C118.662 181.264 118.691 181.383 118.77 181.357C121.125 180.42 120.87 176.906 120.043 174.665C119.999 174.541 119.955 174.416 119.901 174.297C119.372 172.998 118.432 172.056 117.296 172.227C113.492 172.807 114.863 180.803 118.388 180.265Z" fill="black"/>
<path d="M127.436 168.879C128.024 170.747 133.37 169.231 134.717 170.432C136.837 172.295 136.249 195.373 134.31 197.231C133.223 198.266 127.162 197.174 125.458 198.442C123.754 199.71 127.436 168.879 127.436 168.879Z" fill="#165DFC"/>
<path opacity="0.1" d="M127.436 168.879C128.024 170.747 133.37 169.231 134.717 170.432C136.837 172.295 136.249 195.373 134.31 197.231C133.223 198.266 127.162 197.174 125.458 198.442C123.754 199.71 127.436 168.879 127.436 168.879Z" fill="black"/>
<path opacity="0.3" d="M135.021 183.253C135.021 188.873 134.575 193.433 134.042 193.433C133.508 193.433 133.062 188.873 133.062 183.253C133.062 177.632 133.503 173.072 134.042 173.072C134.58 173.072 135.021 177.632 135.021 183.253Z" fill="black"/>
<path opacity="0.3" d="M80.3358 154.093C80.4239 154.062 89.5111 150.941 97.9618 153.384L98.804 150.129C89.3936 147.406 79.7091 150.75 79.3223 150.889L80.3309 154.093L79.8413 152.494L80.3358 154.093Z" fill="black"/>
<path d="M67.7031 203.095C55.5656 188.35 62.9931 171.229 63.3309 170.489C63.5384 169.99 63.5555 169.426 63.3787 168.914C63.2018 168.403 62.8447 167.983 62.382 167.743C61.9192 167.503 61.3866 167.462 60.8955 167.627C60.4045 167.793 59.9929 168.152 59.7469 168.631C58.1073 172.515 57.1373 176.678 56.8827 180.923C56.3 190.301 59.2328 198.913 66.1853 204.777C68.2858 206.547 69.2797 204.995 67.7031 203.095Z" fill="white"/>
<path d="M62.4356 163.947C62.4346 164.402 62.5613 164.847 62.7995 165.225C63.0378 165.604 63.377 165.899 63.7741 166.074C64.1713 166.249 64.6085 166.295 65.0305 166.207C65.4525 166.119 65.8403 165.9 66.1449 165.579C66.4494 165.258 66.6569 164.848 66.7412 164.402C66.8254 163.957 66.7827 163.494 66.6183 163.074C66.4539 162.654 66.1753 162.295 65.8177 162.042C65.4601 161.789 65.0396 161.654 64.6094 161.654C64.0337 161.654 63.4815 161.896 63.074 162.326C62.6665 162.755 62.4368 163.339 62.4356 163.947Z" fill="white"/>
<path d="M170.271 218.191H154.922V221.778H170.271V218.191Z" fill="#165DFC"/>
<g opacity="0.1">
<path d="M155.554 218.518C155.878 219.444 155.878 220.463 155.554 221.39C155.229 220.463 155.229 219.444 155.554 218.518Z" fill="black"/>
<path d="M156.694 218.518C157.019 219.444 157.019 220.463 156.694 221.39C156.37 220.463 156.37 219.444 156.694 218.518Z" fill="black"/>
<path d="M157.253 218.518C157.577 219.444 157.577 220.463 157.253 221.39C156.929 220.463 156.929 219.444 157.253 218.518Z" fill="black"/>
<path d="M160.323 218.518C160.643 219.445 160.643 220.462 160.323 221.39C159.999 220.463 159.999 219.444 160.323 218.518Z" fill="black"/>
<path d="M161.15 218.518C161.319 218.976 161.402 219.465 161.395 219.956C161.404 220.447 161.321 220.934 161.15 221.39C160.977 220.935 160.894 220.447 160.905 219.956C160.898 219.465 160.981 218.976 161.15 218.518Z" fill="black"/>
<path d="M164.577 218.518C164.901 219.444 164.901 220.463 164.577 221.39C164.253 220.463 164.253 219.444 164.577 218.518Z" fill="black"/>
<path d="M165.37 218.518C165.694 219.444 165.694 220.463 165.37 221.39C165.046 220.463 165.046 219.444 165.37 218.518Z" fill="black"/>
<path d="M166.824 218.518C167.148 219.444 167.148 220.463 166.824 221.39C166.504 220.462 166.504 219.445 166.824 218.518Z" fill="black"/>
<path d="M163.916 218.518C164.086 218.977 164.168 219.468 164.156 219.962C164.167 220.452 164.084 220.94 163.911 221.395C163.741 220.939 163.658 220.452 163.667 219.962C163.661 219.468 163.745 218.977 163.916 218.518Z" fill="black"/>
<path d="M158.28 218.518C158.605 219.444 158.605 220.463 158.28 221.39C157.956 220.463 157.956 219.444 158.28 218.518Z" fill="black"/>
<path d="M162.242 218.518C162.566 219.444 162.566 220.463 162.242 221.39C162.069 220.935 161.986 220.447 161.997 219.956C161.988 219.464 162.071 218.975 162.242 218.518Z" fill="black"/>
<path d="M162.815 218.518C163.14 219.444 163.14 220.463 162.815 221.39C162.491 220.463 162.491 219.444 162.815 218.518Z" fill="black"/>
<path d="M168.724 218.518C168.893 218.976 168.976 219.465 168.969 219.956C168.978 220.447 168.895 220.934 168.724 221.39C168.552 220.935 168.468 220.447 168.479 219.956C168.47 219.464 168.553 218.975 168.724 218.518Z" fill="black"/>
<path d="M169.581 218.518C169.75 218.976 169.833 219.465 169.826 219.956C169.837 220.447 169.754 220.935 169.581 221.39C169.411 220.934 169.328 220.447 169.337 219.956C169.33 219.465 169.413 218.976 169.581 218.518Z" fill="black"/>
<path d="M167.501 218.518C167.825 219.444 167.825 220.463 167.501 221.39C167.177 220.463 167.177 219.444 167.501 218.518Z" fill="black"/>
<path d="M159.657 218.518C159.828 218.975 159.911 219.464 159.902 219.956C159.913 220.447 159.83 220.935 159.657 221.39C159.333 220.463 159.333 219.444 159.657 218.518Z" fill="black"/>
</g>
<path opacity="0.1" d="M170.272 218.191V218.952L154.918 219.465V218.191H170.272Z" fill="black"/>
<path d="M168.99 214.605H153.641V218.192H168.99V214.605Z" fill="#165DFC"/>
<g opacity="0.1">
<path d="M168.298 217.803C167.971 216.878 167.971 215.86 168.298 214.936C168.624 215.86 168.624 216.878 168.298 217.803Z" fill="black"/>
<path d="M167.158 217.803C166.987 217.347 166.904 216.859 166.913 216.369C166.901 215.879 166.984 215.391 167.158 214.936C167.329 215.391 167.413 215.879 167.403 216.369C167.41 216.859 167.327 217.346 167.158 217.803Z" fill="black"/>
<path d="M166.604 217.803C166.278 216.878 166.278 215.86 166.604 214.936C166.931 215.86 166.931 216.878 166.604 217.803Z" fill="black"/>
<path d="M163.534 217.803C163.207 216.878 163.207 215.86 163.534 214.936C163.861 215.86 163.861 216.878 163.534 217.803Z" fill="black"/>
<path d="M162.687 217.803C162.518 217.346 162.435 216.859 162.442 216.369C162.432 215.879 162.516 215.391 162.687 214.936C162.861 215.391 162.944 215.879 162.932 216.369C162.941 216.859 162.858 217.347 162.687 217.803Z" fill="black"/>
<path d="M159.261 217.803C158.934 216.878 158.934 215.86 159.261 214.936C159.587 215.86 159.587 216.878 159.261 217.803Z" fill="black"/>
<path d="M158.482 217.803C158.311 217.347 158.228 216.859 158.237 216.369C158.225 215.879 158.309 215.391 158.482 214.936C158.809 215.86 158.809 216.878 158.482 217.803Z" fill="black"/>
<path d="M157.028 217.803C156.702 216.878 156.702 215.86 157.028 214.936C157.355 215.86 157.355 216.878 157.028 217.803Z" fill="black"/>
<path d="M159.935 217.803C159.767 217.346 159.684 216.859 159.691 216.369C159.678 215.879 159.762 215.391 159.935 214.936C160.107 215.391 160.19 215.879 160.18 216.369C160.187 216.859 160.104 217.346 159.935 217.803Z" fill="black"/>
<path d="M165.586 217.803C165.415 217.347 165.332 216.859 165.341 216.369C165.329 215.879 165.412 215.391 165.586 214.936C165.912 215.86 165.912 216.878 165.586 217.803Z" fill="black"/>
<path d="M161.61 217.803C161.284 216.878 161.284 215.86 161.61 214.936C161.937 215.86 161.937 216.878 161.61 217.803Z" fill="black"/>
<path d="M161.042 217.803C160.715 216.878 160.715 215.86 161.042 214.936C161.362 215.861 161.362 216.877 161.042 217.803Z" fill="black"/>
<path d="M155.128 217.803C154.801 216.878 154.801 215.86 155.128 214.936C155.301 215.391 155.385 215.879 155.373 216.369C155.382 216.859 155.299 217.347 155.128 217.803Z" fill="black"/>
<path d="M154.271 217.803C154.102 217.346 154.019 216.859 154.026 216.369C154.016 215.879 154.1 215.391 154.271 214.936C154.445 215.391 154.528 215.879 154.516 216.369C154.525 216.859 154.442 217.347 154.271 217.803Z" fill="black"/>
<path d="M156.352 217.803C156.026 216.878 156.026 215.86 156.352 214.936C156.679 215.86 156.679 216.878 156.352 217.803Z" fill="black"/>
<path d="M164.195 217.803C164.024 217.347 163.941 216.859 163.95 216.369C163.938 215.879 164.022 215.391 164.195 214.936C164.366 215.391 164.45 215.879 164.44 216.369C164.447 216.859 164.364 217.346 164.195 217.803Z" fill="black"/>
</g>
<path opacity="0.1" d="M168.99 214.605V215.366L153.641 215.879V214.605H168.99Z" fill="black"/>
<path d="M170.17 211.049H154.82V214.635H170.17V211.049Z" fill="#165DFC"/>
<g opacity="0.1">
<path d="M155.456 211.375C155.78 212.302 155.78 213.321 155.456 214.247C155.132 213.321 155.132 212.302 155.456 211.375Z" fill="black"/>
<path d="M156.597 211.375C156.768 211.833 156.851 212.322 156.842 212.814C156.853 213.304 156.769 213.792 156.597 214.247C156.272 213.321 156.272 212.302 156.597 211.375Z" fill="black"/>
<path d="M157.155 211.375C157.48 212.302 157.48 213.321 157.155 214.247C156.831 213.321 156.831 212.302 157.155 211.375Z" fill="black"/>
<path d="M160.239 211.375C160.564 212.302 160.564 213.321 160.239 214.247C159.915 213.321 159.915 212.302 160.239 211.375Z" fill="black"/>
<path d="M161.052 211.375C161.221 211.833 161.304 212.322 161.297 212.814C161.306 213.304 161.223 213.791 161.052 214.247C160.88 213.792 160.797 213.304 160.808 212.814C160.798 212.322 160.882 211.833 161.052 211.375Z" fill="black"/>
<path d="M164.48 211.375C164.804 212.302 164.804 213.321 164.48 214.247C164.155 213.321 164.155 212.302 164.48 211.375Z" fill="black"/>
<path d="M165.272 211.375C165.597 212.302 165.597 213.321 165.272 214.247C164.948 213.321 164.948 212.302 165.272 211.375Z" fill="black"/>
<path d="M166.728 211.375C167.052 212.302 167.052 213.321 166.728 214.247C166.403 213.321 166.403 212.302 166.728 211.375Z" fill="black"/>
<path d="M163.818 211.375C163.986 211.833 164.069 212.322 164.063 212.814C164.074 213.304 163.99 213.792 163.818 214.247C163.647 213.791 163.564 213.304 163.573 212.814C163.566 212.322 163.649 211.833 163.818 211.375Z" fill="black"/>
<path d="M158.169 211.375C158.493 212.302 158.493 213.321 158.169 214.247C157.845 213.321 157.845 212.302 158.169 211.375Z" fill="black"/>
<path d="M162.144 211.375C162.468 212.302 162.468 213.321 162.144 214.247C161.819 213.321 161.819 212.302 162.144 211.375Z" fill="black"/>
<path d="M162.718 211.375C163.038 212.303 163.038 213.32 162.718 214.247C162.394 213.321 162.394 212.302 162.718 211.375Z" fill="black"/>
<path d="M168.627 211.375C168.951 212.302 168.951 213.321 168.627 214.247C168.454 213.792 168.371 213.304 168.382 212.814C168.373 212.322 168.456 211.833 168.627 211.375Z" fill="black"/>
<path d="M169.484 211.375C169.653 211.833 169.736 212.322 169.729 212.814C169.738 213.304 169.655 213.791 169.484 214.247C169.311 213.792 169.228 213.304 169.239 212.814C169.232 212.322 169.315 211.833 169.484 211.375Z" fill="black"/>
<path d="M167.403 211.375C167.728 212.302 167.728 213.321 167.403 214.247C167.079 213.321 167.079 212.302 167.403 211.375Z" fill="black"/>
<path d="M159.56 211.375C159.731 211.833 159.814 212.322 159.805 212.814C159.816 213.304 159.732 213.792 159.56 214.247C159.389 213.791 159.306 213.304 159.315 212.814C159.308 212.322 159.391 211.833 159.56 211.375Z" fill="black"/>
</g>
<path opacity="0.1" d="M170.175 211.049V211.81L154.82 212.322V211.049H170.175Z" fill="black"/>
<path d="M58.0095 216.033H42.6602V219.62H58.0095V216.033Z" fill="#165DFC"/>
<g opacity="0.1">
<path d="M43.2901 216.338C43.6143 217.265 43.6143 218.284 43.2901 219.21C42.9658 218.284 42.9658 217.265 43.2901 216.338Z" fill="black"/>
<path d="M44.4353 216.338C44.6036 216.795 44.6867 217.281 44.6802 217.772C44.6895 218.264 44.6063 218.753 44.4353 219.21C44.2621 218.753 44.1788 218.264 44.1905 217.772C44.1816 217.281 44.2648 216.794 44.4353 216.338Z" fill="black"/>
<path d="M44.9936 216.338C45.1618 216.795 45.2449 217.281 45.2384 217.772C45.2501 218.264 45.1668 218.753 44.9936 219.21C44.8226 218.753 44.7394 218.264 44.7488 217.772C44.7422 217.281 44.8253 216.795 44.9936 216.338Z" fill="black"/>
<path d="M48.0596 216.338C48.3839 217.265 48.3839 218.284 48.0596 219.21C47.7353 218.284 47.7353 217.265 48.0596 216.338Z" fill="black"/>
<path d="M48.8916 216.338C49.2159 217.265 49.2159 218.284 48.8916 219.21C48.5674 218.284 48.5674 217.265 48.8916 216.338Z" fill="black"/>
<path d="M52.3194 216.338C52.4899 216.794 52.5731 217.281 52.5642 217.772C52.5759 218.264 52.4926 218.753 52.3194 219.21C51.9951 218.284 51.9951 217.265 52.3194 216.338Z" fill="black"/>
<path d="M53.1107 216.338C53.279 216.795 53.3621 217.281 53.3556 217.772C53.3673 218.264 53.284 218.753 53.1107 219.21C52.9398 218.753 52.8566 218.264 52.8659 217.772C52.8594 217.281 52.9425 216.795 53.1107 216.338Z" fill="black"/>
<path d="M54.5655 216.338C54.736 216.794 54.8192 217.281 54.8103 217.772C54.822 218.264 54.7387 218.753 54.5655 219.21C54.2412 218.284 54.2412 217.265 54.5655 216.338Z" fill="black"/>
<path d="M51.658 216.338C51.9823 217.265 51.9823 218.284 51.658 219.21C51.4848 218.753 51.4015 218.264 51.4132 217.772C51.4043 217.281 51.4875 216.794 51.658 216.338Z" fill="black"/>
<path d="M46.0076 216.338C46.1758 216.795 46.259 217.281 46.2524 217.772C46.2617 218.264 46.1785 218.753 46.0076 219.21C45.8344 218.753 45.7511 218.264 45.7628 217.772C45.7563 217.281 45.8394 216.795 46.0076 216.338Z" fill="black"/>
<path d="M49.9834 216.338C50.3077 217.265 50.3077 218.284 49.9834 219.21C49.6592 218.284 49.6592 217.265 49.9834 216.338Z" fill="black"/>
<path d="M50.5655 216.338C50.8897 217.265 50.8897 218.284 50.5655 219.21C50.2412 218.284 50.2412 217.265 50.5655 216.338Z" fill="black"/>
<path d="M56.4659 216.338C56.7901 217.265 56.7901 218.284 56.4659 219.21C56.1416 218.284 56.1416 217.265 56.4659 216.338Z" fill="black"/>
<path d="M57.3233 216.338C57.6475 217.265 57.6475 218.284 57.3233 219.21C56.999 218.284 56.999 217.265 57.3233 216.338Z" fill="black"/>
<path d="M55.2412 216.338C55.4118 216.794 55.495 217.281 55.486 217.772C55.4978 218.264 55.4145 218.753 55.2412 219.21C54.917 218.284 54.917 217.265 55.2412 216.338Z" fill="black"/>
<path d="M47.3982 216.338C47.5665 216.795 47.6496 217.281 47.643 217.772C47.6524 218.264 47.5692 218.753 47.3982 219.21C47.225 218.753 47.1417 218.264 47.1534 217.772C47.1445 217.281 47.2277 216.794 47.3982 216.338Z" fill="black"/>
</g>
<path opacity="0.1" d="M58.0144 216.033V216.794L42.6602 217.306V216.033H58.0144Z" fill="black"/>
<path d="M56.9607 212.447H41.6113V216.034H56.9607V212.447Z" fill="#165DFC"/>
<g opacity="0.1">
<path d="M42.2438 212.773C42.4124 213.232 42.4956 213.72 42.4886 214.212C42.4997 214.703 42.4164 215.19 42.2438 215.646C42.0712 215.19 41.988 214.703 41.999 214.212C41.9921 213.72 42.0752 213.232 42.2438 212.773Z" fill="black"/>
<path d="M43.3845 212.773C43.7088 213.7 43.7088 214.719 43.3845 215.646C43.0645 214.718 43.0645 213.701 43.3845 212.773Z" fill="black"/>
<path d="M43.9483 212.773C44.2725 213.7 44.2725 214.719 43.9483 215.646C43.624 214.719 43.624 213.7 43.9483 212.773Z" fill="black"/>
<path d="M47.0134 212.773C47.3376 213.7 47.3376 214.719 47.0134 215.646C46.8408 215.19 46.7575 214.703 46.7686 214.212C46.7592 213.72 46.8424 213.231 47.0134 212.773Z" fill="black"/>
<path d="M47.8409 212.773C48.1651 213.7 48.1651 214.719 47.8409 215.646C47.5166 214.719 47.5166 213.7 47.8409 212.773Z" fill="black"/>
<path d="M51.2725 212.773C51.5968 213.7 51.5968 214.719 51.2725 215.646C50.9482 214.719 50.9482 213.7 51.2725 212.773Z" fill="black"/>
<path d="M52.0655 212.773C52.3897 213.7 52.3897 214.719 52.0655 215.646C51.7412 214.719 51.7412 213.7 52.0655 212.773Z" fill="black"/>
<path d="M53.5049 212.773C53.8292 213.7 53.8292 214.719 53.5049 215.646C53.1807 214.719 53.1807 213.7 53.5049 212.773Z" fill="black"/>
<path d="M50.6065 212.773C50.9307 213.7 50.9307 214.719 50.6065 215.646C50.2822 214.719 50.2822 213.7 50.6065 212.773Z" fill="black"/>
<path d="M44.9619 212.773C45.2862 213.7 45.2862 214.719 44.9619 215.646C44.6377 214.719 44.6377 213.7 44.9619 212.773Z" fill="black"/>
<path d="M48.931 212.773C49.1019 213.231 49.1851 213.72 49.1758 214.212C49.1869 214.703 49.1036 215.19 48.931 215.646C48.7605 215.19 48.6773 214.703 48.6862 214.212C48.6793 213.72 48.7624 213.232 48.931 212.773Z" fill="black"/>
<path d="M49.5055 212.773C49.8298 213.7 49.8298 214.719 49.5055 215.646C49.333 215.19 49.2497 214.703 49.2607 214.212C49.2514 213.72 49.3346 213.231 49.5055 212.773Z" fill="black"/>
<path d="M55.4151 212.773C55.586 213.231 55.6692 213.72 55.6599 214.212C55.6709 214.703 55.5877 215.19 55.4151 215.646C55.0908 214.719 55.0908 213.7 55.4151 212.773Z" fill="black"/>
<path d="M56.2705 212.773C56.5948 213.7 56.5948 214.719 56.2705 215.646C55.9463 214.719 55.9463 213.7 56.2705 212.773Z" fill="black"/>
<path d="M54.1944 212.773C54.5186 213.7 54.5186 214.719 54.1944 215.646C53.8701 214.719 53.8701 213.7 54.1944 212.773Z" fill="black"/>
<path d="M46.3467 212.773C46.671 213.7 46.671 214.719 46.3467 215.646C46.0225 214.719 46.0225 213.7 46.3467 212.773Z" fill="black"/>
</g>
<path opacity="0.1" d="M56.9607 212.447V213.208L41.6113 213.72V212.447H56.9607Z" fill="black"/>
<path d="M59.3298 205.305H43.9805V208.891H59.3298V205.305Z" fill="#165DFC"/>
<g opacity="0.1">
<path d="M44.6123 205.631C44.9366 206.558 44.9366 207.576 44.6123 208.503C44.2881 207.576 44.2881 206.558 44.6123 205.631Z" fill="black"/>
<path d="M45.7575 205.631C45.9261 206.089 46.0092 206.578 46.0023 207.07C46.0112 207.56 45.928 208.047 45.7575 208.503C45.5849 208.048 45.5016 207.56 45.5127 207.07C45.5034 206.578 45.5866 206.089 45.7575 205.631Z" fill="black"/>
<path d="M46.3161 205.631C46.4847 206.089 46.5678 206.578 46.5609 207.07C46.5698 207.56 46.4866 208.047 46.3161 208.503C46.1435 208.048 46.0602 207.56 46.0713 207.07C46.0644 206.578 46.1475 206.089 46.3161 205.631Z" fill="black"/>
<path d="M49.3819 205.631C49.5528 206.089 49.636 206.578 49.6267 207.07C49.6377 207.56 49.5545 208.048 49.3819 208.503C49.0576 207.576 49.0576 206.558 49.3819 205.631Z" fill="black"/>
<path d="M50.2139 205.631C50.5382 206.558 50.5382 207.576 50.2139 208.503C49.8896 207.576 49.8896 206.558 50.2139 205.631Z" fill="black"/>
<path d="M53.64 205.631C53.8109 206.089 53.8941 206.578 53.8848 207.07C53.8959 207.56 53.8126 208.048 53.64 208.503C53.4695 208.047 53.3862 207.56 53.3952 207.07C53.3883 206.578 53.4714 206.089 53.64 205.631Z" fill="black"/>
<path d="M54.4333 205.631C54.6019 206.089 54.685 206.578 54.6781 207.07C54.687 207.56 54.6038 208.047 54.4333 208.503C54.2607 208.048 54.1774 207.56 54.1885 207.07C54.1816 206.578 54.2647 206.089 54.4333 205.631Z" fill="black"/>
<path d="M55.8877 205.631C56.0586 206.089 56.1419 206.578 56.1325 207.07C56.1436 207.56 56.0603 208.048 55.8877 208.503C55.5635 207.576 55.5635 206.558 55.8877 205.631Z" fill="black"/>
<path d="M52.9795 205.631C53.3038 206.558 53.3038 207.576 52.9795 208.503C52.6553 207.576 52.6553 206.558 52.9795 205.631Z" fill="black"/>
<path d="M47.3298 205.631C47.4984 206.089 47.5815 206.578 47.5746 207.07C47.5835 207.56 47.5003 208.047 47.3298 208.503C47.1572 208.048 47.0739 207.56 47.085 207.07C47.078 206.578 47.1612 206.089 47.3298 205.631Z" fill="black"/>
<path d="M51.3005 205.631C51.6248 206.558 51.6248 207.576 51.3005 208.503C50.9805 207.576 50.9805 206.558 51.3005 205.631Z" fill="black"/>
<path d="M51.8741 205.631C52.1983 206.558 52.1983 207.576 51.8741 208.503C51.5498 207.576 51.5498 206.558 51.8741 205.631Z" fill="black"/>
<path d="M57.7881 205.631C58.1124 206.558 58.1124 207.576 57.7881 208.503C57.4639 207.576 57.4639 206.558 57.7881 205.631Z" fill="black"/>
<path d="M58.6455 205.631C58.9698 206.558 58.9698 207.576 58.6455 208.503C58.3213 207.576 58.3213 206.558 58.6455 205.631Z" fill="black"/>
<path d="M56.5638 205.631C56.7347 206.089 56.818 206.578 56.8086 207.07C56.8197 207.56 56.7364 208.048 56.5638 208.503C56.3933 208.047 56.3101 207.56 56.319 207.07C56.3121 206.578 56.3952 206.089 56.5638 205.631Z" fill="black"/>
<path d="M48.7204 205.631C48.889 206.089 48.9721 206.578 48.9652 207.07C48.9741 207.56 48.8909 208.047 48.7204 208.503C48.5478 208.048 48.4645 207.56 48.4756 207.07C48.4663 206.578 48.5495 206.089 48.7204 205.631Z" fill="black"/>
</g>
<path opacity="0.1" d="M59.3298 205.305V206.065L43.9805 206.578V205.305H59.3298Z" fill="black"/>
<path d="M58.9431 201.717H43.5938V205.303H58.9431V201.717Z" fill="#165DFC"/>
<g opacity="0.1">
<path d="M58.2586 204.916C57.932 203.991 57.932 202.973 58.2586 202.049C58.5786 202.975 58.5786 203.99 58.2586 204.916Z" fill="black"/>
<path d="M57.1128 204.916C56.9442 204.459 56.861 203.973 56.868 203.482C56.8582 202.992 56.9415 202.505 57.1128 202.049C57.2864 202.504 57.3697 202.992 57.3576 203.482C57.3645 203.973 57.2813 204.459 57.1128 204.916Z" fill="black"/>
<path d="M56.5546 204.916C56.3837 204.46 56.3004 203.973 56.3098 203.482C56.2976 202.992 56.3809 202.504 56.5546 202.049C56.7259 202.505 56.8091 202.992 56.7994 203.482C56.8063 203.973 56.7231 204.459 56.5546 204.916Z" fill="black"/>
<path d="M53.5027 204.916C53.1762 203.991 53.1762 202.973 53.5027 202.049C53.8293 202.973 53.8293 203.991 53.5027 204.916Z" fill="black"/>
<path d="M52.657 204.916C52.3305 203.991 52.3305 202.973 52.657 202.049C52.9835 202.973 52.9835 203.991 52.657 204.916Z" fill="black"/>
<path d="M49.2284 204.916C49.0575 204.46 48.9743 203.973 48.9836 203.482C48.9714 202.992 49.0547 202.504 49.2284 202.049C49.5549 202.973 49.5549 203.991 49.2284 204.916Z" fill="black"/>
<path d="M48.4354 204.916C48.2645 204.46 48.1813 203.973 48.1906 203.482C48.1784 202.992 48.2618 202.504 48.4354 202.049C48.6067 202.505 48.69 202.992 48.6802 203.482C48.6871 203.973 48.604 204.459 48.4354 204.916Z" fill="black"/>
<path d="M46.9812 204.916C46.6547 203.991 46.6547 202.973 46.9812 202.049C47.3078 202.973 47.3078 203.991 46.9812 204.916Z" fill="black"/>
<path d="M49.8901 204.916C49.7215 204.459 49.6384 203.973 49.6453 203.482C49.6356 202.992 49.7188 202.505 49.8901 202.049C50.0638 202.504 50.1471 202.992 50.1349 203.482C50.1442 203.973 50.061 204.46 49.8901 204.916Z" fill="black"/>
<path d="M55.5409 204.916C55.3723 204.459 55.2892 203.973 55.2961 203.482C55.2839 202.992 55.3672 202.504 55.5409 202.049C55.7122 202.505 55.7954 202.992 55.7857 203.482C55.7926 203.973 55.7095 204.459 55.5409 204.916Z" fill="black"/>
<path d="M51.5457 204.916C51.2191 203.991 51.2191 202.973 51.5457 202.049C51.8722 202.973 51.8722 203.991 51.5457 204.916Z" fill="black"/>
<path d="M50.9969 204.916C50.6703 203.991 50.6703 202.973 50.9969 202.049C51.3234 202.973 51.3234 203.991 50.9969 204.916Z" fill="black"/>
<path d="M45.0828 204.916C44.7563 203.991 44.7563 202.973 45.0828 202.049C45.4093 202.973 45.4093 203.991 45.0828 204.916Z" fill="black"/>
<path d="M44.2254 204.916C43.8988 203.991 43.8988 202.973 44.2254 202.049C44.5519 202.973 44.5519 203.991 44.2254 204.916Z" fill="black"/>
<path d="M46.3054 204.916C45.9789 203.991 45.9789 202.973 46.3054 202.049C46.632 202.973 46.632 203.991 46.3054 204.916Z" fill="black"/>
<path d="M54.1499 204.916C53.9813 204.459 53.8982 203.973 53.9051 203.482C53.8953 202.992 53.9786 202.505 54.1499 202.049C54.3235 202.504 54.4068 202.992 54.3947 203.482C54.4016 203.973 54.3184 204.459 54.1499 204.916Z" fill="black"/>
</g>
<path opacity="0.1" d="M58.9431 201.717V202.478L43.5938 202.99V201.717H58.9431Z" fill="black"/>
<path d="M58.0095 198.131H42.6602V201.718H58.0095V198.131Z" fill="#165DFC"/>
<g opacity="0.1">
<path d="M43.2908 198.463C43.6174 199.387 43.6174 200.406 43.2908 201.33C42.9708 200.404 42.9708 199.389 43.2908 198.463Z" fill="black"/>
<path d="M44.4372 198.463C44.6058 198.92 44.6889 199.406 44.682 199.897C44.6913 200.387 44.6081 200.874 44.4372 201.33C44.2646 200.875 44.1813 200.387 44.1924 199.897C44.1855 199.406 44.2686 198.92 44.4372 198.463Z" fill="black"/>
<path d="M44.9955 198.463C45.1664 198.919 45.2496 199.406 45.2403 199.897C45.2514 200.387 45.1681 200.875 44.9955 201.33C44.8246 200.874 44.7414 200.387 44.7507 199.897C44.7438 199.406 44.8269 198.92 44.9955 198.463Z" fill="black"/>
<path d="M48.0594 198.463C48.3859 199.387 48.3859 200.406 48.0594 201.33C47.7328 200.406 47.7328 199.387 48.0594 198.463Z" fill="black"/>
<path d="M48.8914 198.463C49.2179 199.387 49.2179 200.406 48.8914 201.33C48.5649 200.406 48.5649 199.387 48.8914 198.463Z" fill="black"/>
<path d="M52.3191 198.463C52.6457 199.387 52.6457 200.406 52.3191 201.33C51.9926 200.406 51.9926 199.387 52.3191 198.463Z" fill="black"/>
<path d="M53.1127 198.463C53.2836 198.919 53.3668 199.406 53.3575 199.897C53.3686 200.387 53.2853 200.875 53.1127 201.33C52.9418 200.874 52.8586 200.387 52.8679 199.897C52.861 199.406 52.9441 198.92 53.1127 198.463Z" fill="black"/>
<path d="M54.5672 198.463C54.8937 199.387 54.8937 200.406 54.5672 201.33C54.2406 200.406 54.2406 199.387 54.5672 198.463Z" fill="black"/>
<path d="M51.6579 198.463C51.8265 198.92 51.9096 199.406 51.9027 199.897C51.912 200.387 51.8288 200.874 51.6579 201.33C51.4853 200.875 51.402 200.387 51.4131 199.897C51.4038 199.406 51.487 198.919 51.6579 198.463Z" fill="black"/>
<path d="M46.0072 198.463C46.1758 198.92 46.2589 199.406 46.252 199.897C46.2631 200.387 46.1798 200.875 46.0072 201.33C45.8363 200.874 45.7531 200.387 45.7624 199.897C45.7555 199.406 45.8387 198.92 46.0072 198.463Z" fill="black"/>
<path d="M49.9832 198.463C50.3097 199.387 50.3097 200.406 49.9832 201.33C49.6566 200.406 49.6566 199.387 49.9832 198.463Z" fill="black"/>
<path d="M50.5672 198.463C50.8937 199.387 50.8937 200.406 50.5672 201.33C50.2406 200.406 50.2406 199.387 50.5672 198.463Z" fill="black"/>
<path d="M56.4656 198.463C56.7921 199.387 56.7921 200.406 56.4656 201.33C56.1391 200.406 56.1391 199.387 56.4656 198.463Z" fill="black"/>
<path d="M57.323 198.463C57.6496 199.387 57.6496 200.406 57.323 201.33C56.9965 200.406 56.9965 199.387 57.323 198.463Z" fill="black"/>
<path d="M55.2429 198.463C55.5695 199.387 55.5695 200.406 55.2429 201.33C54.9164 200.406 54.9164 199.387 55.2429 198.463Z" fill="black"/>
<path d="M47.3981 198.463C47.5667 198.92 47.6498 199.406 47.6429 199.897C47.6523 200.387 47.569 200.874 47.3981 201.33C47.2255 200.875 47.1422 200.387 47.1533 199.897C47.1464 199.406 47.2296 198.92 47.3981 198.463Z" fill="black"/>
</g>
<path opacity="0.1" d="M58.0144 198.131V198.897L42.6602 199.409V198.131H58.0144Z" fill="black"/>
<path d="M58.0095 208.891H42.6602V212.477H58.0095V208.891Z" fill="#165DFC"/>
<g opacity="0.1">
<path d="M57.3233 212.089C56.999 211.162 56.999 210.144 57.3233 209.217C57.6475 210.144 57.6475 211.162 57.3233 212.089Z" fill="black"/>
<path d="M56.1768 212.089C55.8525 211.162 55.8525 210.144 56.1768 209.217C56.501 210.144 56.501 211.162 56.1768 212.089Z" fill="black"/>
<path d="M55.6182 212.089C55.2939 211.162 55.2939 210.144 55.6182 209.217C55.7908 209.672 55.8741 210.16 55.863 210.65C55.8723 211.142 55.7891 211.632 55.6182 212.089Z" fill="black"/>
<path d="M52.5544 212.089C52.3858 211.631 52.3027 211.142 52.3096 210.65C52.2985 210.16 52.3818 209.672 52.5544 209.217C52.7249 209.673 52.8081 210.16 52.7992 210.65C52.8061 211.142 52.723 211.631 52.5544 212.089Z" fill="black"/>
<path d="M51.7256 212.089C51.4014 211.162 51.4014 210.144 51.7256 209.217C52.0456 210.144 52.0456 211.162 51.7256 212.089Z" fill="black"/>
<path d="M48.2943 212.089C48.1257 211.631 48.0426 211.142 48.0495 210.65C48.0405 210.16 48.1238 209.673 48.2943 209.217C48.4669 209.672 48.5502 210.16 48.5391 210.65C48.546 211.142 48.4629 211.631 48.2943 212.089Z" fill="black"/>
<path d="M47.501 212.089C47.1767 211.162 47.1767 210.144 47.501 209.217C47.6736 209.672 47.7569 210.16 47.7458 210.65C47.7551 211.142 47.6719 211.632 47.501 212.089Z" fill="black"/>
<path d="M46.0466 212.089C45.878 211.631 45.7948 211.142 45.8018 210.65C45.7907 210.16 45.874 209.672 46.0466 209.217C46.2171 209.673 46.3003 210.16 46.2914 210.65C46.2983 211.142 46.2152 211.631 46.0466 212.089Z" fill="black"/>
<path d="M48.9541 212.089C48.6299 211.162 48.6299 210.144 48.9541 209.217C49.2784 210.144 49.2784 211.162 48.9541 212.089Z" fill="black"/>
<path d="M54.6045 212.089C54.2803 211.162 54.2803 210.144 54.6045 209.217C54.7771 209.672 54.8604 210.16 54.8493 210.65C54.8587 211.142 54.7754 211.632 54.6045 212.089Z" fill="black"/>
<path d="M50.6338 212.089C50.3096 211.162 50.3096 210.144 50.6338 209.217C50.9581 210.144 50.9581 211.162 50.6338 212.089Z" fill="black"/>
<path d="M50.0759 212.089C49.9049 211.632 49.8217 211.142 49.8311 210.65C49.82 210.16 49.9033 209.672 50.0759 209.217C50.2464 209.673 50.3296 210.16 50.3207 210.65C50.3276 211.142 50.2445 211.631 50.0759 212.089Z" fill="black"/>
<path d="M44.1514 212.089C43.8271 211.162 43.8271 210.144 44.1514 209.217C44.4757 210.144 44.4757 211.162 44.1514 212.089Z" fill="black"/>
<path d="M43.2901 212.089C42.9658 211.162 42.9658 210.144 43.2901 209.217C43.6143 210.144 43.6143 211.162 43.2901 212.089Z" fill="black"/>
<path d="M45.3708 212.089C45.2022 211.631 45.1191 211.142 45.126 210.65C45.1149 210.16 45.1982 209.672 45.3708 209.217C45.5434 209.672 45.6267 210.16 45.6156 210.65C45.6225 211.142 45.5394 211.631 45.3708 212.089Z" fill="black"/>
<path d="M53.2139 212.089C52.8896 211.162 52.8896 210.144 53.2139 209.217C53.5382 210.144 53.5382 211.162 53.2139 212.089Z" fill="black"/>
</g>
<path opacity="0.1" d="M58.0144 208.891V209.651L42.6602 210.164V208.891H58.0144Z" fill="black"/>
<path d="M41.3806 207.105C51.4862 209.025 48.8129 224.846 38.6926 222.926C28.5723 221.006 31.2554 205.184 41.3806 207.105Z" fill="#165DFC"/>
<path opacity="0.1" d="M41.3806 207.105C51.4862 209.025 48.8129 224.846 38.6926 222.926C28.5723 221.006 31.2554 205.184 41.3806 207.105Z" fill="black"/>
<path d="M40.4316 206.924C50.0623 208.751 47.3939 224.578 37.7437 222.746C28.0934 220.914 30.7863 205.097 40.4316 206.924Z" fill="#165DFC"/>
<path opacity="0.1" d="M32.9805 215.211C33.0343 218.031 34.5864 220.759 37.9745 221.421C45.9797 222.938 48.1976 209.802 40.2023 208.286L40.0456 208.26C47.5415 209.849 45.3921 222.275 37.7591 220.826C36.4651 220.633 35.2767 219.965 34.4028 218.938C33.5289 217.911 33.0253 216.591 32.9805 215.211Z" fill="black"/>
<g opacity="0.1">
<path d="M39.923 209.91C39.987 209.929 40.0415 209.974 40.0752 210.035C40.109 210.095 40.1193 210.167 40.1042 210.236L40.0014 210.671C40.6572 210.9 41.2323 211.333 41.6513 211.913C41.6872 211.95 41.714 211.996 41.7294 212.046C41.7447 212.097 41.7482 212.15 41.7395 212.203C41.7189 212.275 41.673 212.336 41.611 212.374C41.5491 212.411 41.4759 212.422 41.4065 212.404C41.3719 212.396 41.3392 212.38 41.3106 212.358C41.282 212.336 41.258 212.308 41.2401 212.275C40.893 211.773 40.4149 211.388 39.8643 211.168L39.1494 214.206C40.6183 214.966 41.1373 215.758 40.8876 216.819C40.6134 217.973 39.5068 218.543 38.2143 218.248L38.0135 219.097C38.0095 219.135 37.9978 219.171 37.9792 219.204C37.9606 219.237 37.9356 219.266 37.9058 219.288C37.8759 219.309 37.8421 219.324 37.8064 219.331C37.7707 219.338 37.734 219.337 37.6988 219.328C37.6636 219.318 37.6306 219.301 37.6022 219.277C37.5738 219.253 37.5505 219.223 37.534 219.189C37.5174 219.155 37.5079 219.118 37.5062 219.079C37.5045 219.041 37.5105 219.003 37.5239 218.967L37.7247 218.108C36.8806 217.815 36.1545 217.229 35.6634 216.447C35.634 216.412 35.6133 216.37 35.603 216.325C35.5927 216.28 35.5933 216.233 35.6046 216.188C35.6231 216.117 35.6664 216.057 35.7256 216.02C35.7848 215.982 35.8555 215.97 35.9229 215.986C35.9576 215.993 35.9904 216.007 36.0192 216.028C36.048 216.05 36.0719 216.078 36.0894 216.11C36.4991 216.815 37.1245 217.35 37.8618 217.627L38.5913 214.521C37.1224 213.755 36.6328 212.969 36.8972 211.908C37.1616 210.847 38.2534 210.21 39.5166 210.51L39.6146 210.096C39.6339 210.03 39.6766 209.973 39.7339 209.938C39.7912 209.904 39.8588 209.894 39.923 209.91ZM38.7235 213.978L39.4187 211.012C38.4395 210.774 37.612 211.23 37.4309 212.011C37.2497 212.793 37.475 213.29 38.7235 213.978ZM39.0172 214.759L38.3269 217.756C39.3551 218.004 40.1727 217.549 40.3686 216.721C40.5644 215.893 40.2853 215.427 39.0172 214.785V214.759Z" fill="black"/>
</g>
</svg>
